<?xml version="1.0" encoding="UTF-8"?>
<!DOCTYPE svg PUBLIC "-//W3C//DTD SVG 1.1//EN" "http://www.w3.org/Graphics/SVG/1.1/DTD/svg11.dtd">
<svg xmlns="http://www.w3.org/2000/svg" version="1.1" width="500px" height="500px" style="shape-rendering:geometricPrecision; text-rendering:geometricPrecision; image-rendering:optimizeQuality; fill-rule:evenodd; clip-rule:evenodd" xmlns:xlink="http://www.w3.org/1999/xlink">
<g><path style="opacity:0.207" fill="#7b7b7b" d="M 333.5,6.5 C 245.862,5.5078 158.195,5.17447 70.5,5.5C 155.34,4.61035 240.34,4.11035 325.5,4C 328.522,4.09842 331.189,4.93175 333.5,6.5 Z"/></g>
<g><path style="opacity:0.998" fill="#010101" d="M 70.5,5.5 C 158.195,5.17447 245.862,5.5078 333.5,6.5C 334.492,6.32842 335.158,6.66175 335.5,7.5C 335.973,8.90632 336.973,9.57298 338.5,9.5C 339.08,11.7488 340.413,13.4154 342.5,14.5C 343.757,17.4274 345.757,19.7607 348.5,21.5C 349.757,24.4274 351.757,26.7607 354.5,28.5C 355.419,31.0892 357.086,33.0892 359.5,34.5C 360.419,37.0892 362.086,39.0892 364.5,40.5C 365.419,43.0892 367.086,45.0892 369.5,46.5C 370.08,48.7488 371.413,50.4154 373.5,51.5C 374.757,54.4274 376.757,56.7607 379.5,58.5C 380.419,61.0892 382.086,63.0892 384.5,64.5C 385.419,67.0892 387.086,69.0892 389.5,70.5C 390.419,73.0892 392.086,75.0892 394.5,76.5C 395.419,79.0892 397.086,81.0892 399.5,82.5C 400.419,85.0892 402.086,87.0892 404.5,88.5C 405.419,91.0892 407.086,93.0892 409.5,94.5C 410.419,97.0892 412.086,99.0892 414.5,100.5C 415.08,102.749 416.413,104.415 418.5,105.5C 419.419,108.089 421.086,110.089 423.5,111.5C 424.419,114.089 426.086,116.089 428.5,117.5C 429.757,120.427 431.757,122.761 434.5,124.5C 436.122,127.455 438.122,130.122 440.5,132.5C 441.338,132.842 441.672,133.508 441.5,134.5C 442.494,249.472 442.827,364.472 442.5,479.5C 442.539,482.089 441.539,484.089 439.5,485.5C 438.094,485.973 437.427,486.973 437.5,488.5C 434.96,491.607 431.627,493.44 427.5,494C 308.833,494.667 190.167,494.667 71.5,494C 68.5547,493.861 66.2214,492.694 64.5,490.5C 62.8333,488.167 60.8333,486.167 58.5,484.5C 57.207,483.158 56.3736,481.491 56,479.5C 55.3333,326.167 55.3333,172.833 56,19.5C 56.2321,18.2625 56.7321,17.2625 57.5,16.5C 58.9063,16.0269 59.573,15.0269 59.5,13.5C 61.5,12.1667 63.1667,10.5 64.5,8.5C 66.0269,8.57298 67.0269,7.90632 67.5,6.5C 68.209,5.59603 69.209,5.26269 70.5,5.5 Z M 165.5,125.5 C 221.332,126.333 277.332,126.833 333.5,127C 341.514,129.188 347.181,134.021 350.5,141.5C 350.232,144.119 350.565,146.619 351.5,149C 349.963,150.11 349.297,151.61 349.5,153.5C 347.58,156.762 345.246,159.762 342.5,162.5C 339.526,163.651 336.526,164.817 333.5,166C 277.168,166.5 220.834,166.667 164.5,166.5C 162.898,164.926 160.898,164.259 158.5,164.5C 157.055,162.937 155.389,161.604 153.5,160.5C 151.822,157.298 150.322,153.965 149,150.5C 148.349,145.707 148.849,141.041 150.5,136.5C 151.167,136.5 151.5,136.167 151.5,135.5C 153.833,133.833 155.833,131.833 157.5,129.5C 158.167,129.5 158.5,129.167 158.5,128.5C 160.898,128.741 162.898,128.074 164.5,126.5C 164.5,125.833 164.833,125.5 165.5,125.5 Z M 350.5,251.5 C 350.328,252.492 350.662,253.158 351.5,253.5C 351.866,266.447 345.866,274.447 333.5,277.5C 277.904,278.662 222.237,278.829 166.5,278C 153.814,274.809 147.814,266.642 148.5,253.5C 149.621,251.259 150.787,248.925 152,246.5C 154.5,245.333 156.333,243.5 157.5,241C 159.949,240.275 162.283,239.275 164.5,238C 221.5,237.333 278.5,237.333 335.5,238C 342.566,240.233 347.566,244.733 350.5,251.5 Z M 333.5,347.5 C 337.76,348.632 341.76,350.299 345.5,352.5C 348.031,355.57 350.031,358.904 351.5,362.5C 352.257,371.983 348.923,379.65 341.5,385.5C 338.332,386.864 334.999,387.697 331.5,388C 276.833,388.667 222.167,388.667 167.5,388C 164.793,387.605 162.127,387.105 159.5,386.5C 159.027,385.094 158.027,384.427 156.5,384.5C 154.576,382.305 152.909,379.972 151.5,377.5C 151.167,376.833 150.833,376.167 150.5,375.5C 148.466,371.608 148.133,367.608 149.5,363.5C 149.584,360.673 150.25,358.006 151.5,355.5C 154.881,352.798 158.548,350.465 162.5,348.5C 162.833,348.5 163.167,348.5 163.5,348.5C 220.095,347.504 276.762,347.171 333.5,347.5 Z"/></g>
<g><path style="opacity:0.447" fill="#7c7c7c" d="M 67.5,6.5 C 67.0269,7.90632 66.0269,8.57298 64.5,8.5C 64.9731,7.09368 65.9731,6.42702 67.5,6.5 Z"/></g>
<g><path style="opacity:0.016" fill="#d7d7d7" d="M 335.5,7.5 C 337.027,7.42702 338.027,8.09368 338.5,9.5C 336.973,9.57298 335.973,8.90632 335.5,7.5 Z"/></g>
<g><path style="opacity:0.412" fill="#a2a2a2" d="M 338.5,9.5 C 340.587,10.5846 341.92,12.2512 342.5,14.5C 340.413,13.4154 339.08,11.7488 338.5,9.5 Z"/></g>
<g><path style="opacity:0.188" fill="#a5a5a5" d="M 64.5,8.5 C 63.1667,10.5 61.5,12.1667 59.5,13.5C 60.1667,10.8333 61.8333,9.16667 64.5,8.5 Z"/></g>
<g><path style="opacity:0.141" fill="#b2b2b2" d="M 59.5,13.5 C 59.573,15.0269 58.9063,16.0269 57.5,16.5C 57.427,14.9731 58.0937,13.9731 59.5,13.5 Z"/></g>
<g><path style="opacity:0.271" fill="#a7a7a7" d="M 342.5,14.5 C 345.243,16.2393 347.243,18.5726 348.5,21.5C 345.757,19.7607 343.757,17.4274 342.5,14.5 Z"/></g>
<g><path style="opacity:0.192" fill="#bababa" d="M 348.5,21.5 C 351.243,23.2393 353.243,25.5726 354.5,28.5C 351.757,26.7607 349.757,24.4274 348.5,21.5 Z"/></g>
<g><path style="opacity:0.188" fill="#c5c5c5" d="M 354.5,28.5 C 356.914,29.9108 358.581,31.9108 359.5,34.5C 357.086,33.0892 355.419,31.0892 354.5,28.5 Z"/></g>
<g><path style="opacity:0.161" fill="#c6c6c6" d="M 359.5,34.5 C 361.914,35.9108 363.581,37.9108 364.5,40.5C 362.086,39.0892 360.419,37.0892 359.5,34.5 Z"/></g>
<g><path style="opacity:0.161" fill="#c7c7c7" d="M 364.5,40.5 C 366.914,41.9108 368.581,43.9108 369.5,46.5C 367.086,45.0892 365.419,43.0892 364.5,40.5 Z"/></g>
<g><path style="opacity:0.173" fill="#bababa" d="M 369.5,46.5 C 371.587,47.5846 372.92,49.2512 373.5,51.5C 371.413,50.4154 370.08,48.7488 369.5,46.5 Z"/></g>
<g><path style="opacity:0.361" fill="#aaaaaa" d="M 373.5,51.5 C 376.243,53.2393 378.243,55.5726 379.5,58.5C 376.757,56.7607 374.757,54.4274 373.5,51.5 Z"/></g>
<g><path style="opacity:0.176" fill="#c0c0c0" d="M 379.5,58.5 C 381.914,59.9108 383.581,61.9108 384.5,64.5C 382.086,63.0892 380.419,61.0892 379.5,58.5 Z"/></g>
<g><path style="opacity:0.184" fill="#bfbfbf" d="M 384.5,64.5 C 386.914,65.9108 388.581,67.9108 389.5,70.5C 387.086,69.0892 385.419,67.0892 384.5,64.5 Z"/></g>
<g><path style="opacity:0.165" fill="#c2c2c2" d="M 389.5,70.5 C 391.914,71.9108 393.581,73.9108 394.5,76.5C 392.086,75.0892 390.419,73.0892 389.5,70.5 Z"/></g>
<g><path style="opacity:0.184" fill="#c3c3c3" d="M 394.5,76.5 C 396.914,77.9108 398.581,79.9108 399.5,82.5C 397.086,81.0892 395.419,79.0892 394.5,76.5 Z"/></g>
<g><path style="opacity:0.165" fill="#c5c5c5" d="M 399.5,82.5 C 401.914,83.9108 403.581,85.9108 404.5,88.5C 402.086,87.0892 400.419,85.0892 399.5,82.5 Z"/></g>
<g><path style="opacity:0.169" fill="#c5c5c5" d="M 404.5,88.5 C 406.914,89.9108 408.581,91.9108 409.5,94.5C 407.086,93.0892 405.419,91.0892 404.5,88.5 Z"/></g>
<g><path style="opacity:0.192" fill="#bcbcbc" d="M 409.5,94.5 C 411.914,95.9108 413.581,97.9108 414.5,100.5C 412.086,99.0892 410.419,97.0892 409.5,94.5 Z"/></g>
<g><path style="opacity:0.271" fill="#acacac" d="M 414.5,100.5 C 416.587,101.585 417.92,103.251 418.5,105.5C 416.413,104.415 415.08,102.749 414.5,100.5 Z"/></g>
<g><path style="opacity:0.353" fill="#9d9d9d" d="M 418.5,105.5 C 420.914,106.911 422.581,108.911 423.5,111.5C 421.086,110.089 419.419,108.089 418.5,105.5 Z"/></g>
<g><path style="opacity:0.337" fill="#9d9d9d" d="M 423.5,111.5 C 425.914,112.911 427.581,114.911 428.5,117.5C 426.086,116.089 424.419,114.089 423.5,111.5 Z"/></g>
<g><path style="opacity:0.329" fill="#a8a8a8" d="M 428.5,117.5 C 431.243,119.239 433.243,121.573 434.5,124.5C 431.757,122.761 429.757,120.427 428.5,117.5 Z"/></g>
<g><path style="opacity:0.08" fill="#e6e6e6" d="M 165.5,125.5 C 222.168,125.333 278.834,125.5 335.5,126C 342.908,127.738 348.241,132.071 351.5,139C 350.748,139.671 350.414,140.504 350.5,141.5C 347.181,134.021 341.514,129.188 333.5,127C 277.332,126.833 221.332,126.333 165.5,125.5 Z"/></g>
<g><path style="opacity:0.004" fill="#dbdbdb" d="M 164.5,126.5 C 162.898,128.074 160.898,128.741 158.5,128.5C 160.214,127.262 162.214,126.595 164.5,126.5 Z"/></g>
<g><path style="opacity:0.2" fill="#bcbcbc" d="M 434.5,124.5 C 437.647,126.313 439.647,128.98 440.5,132.5C 438.122,130.122 436.122,127.455 434.5,124.5 Z"/></g>
<g><path style="opacity:0.024" fill="#c6c6c6" d="M 157.5,129.5 C 155.833,131.833 153.833,133.833 151.5,135.5C 152.5,132.5 154.5,130.5 157.5,129.5 Z"/></g>
<g><path style="opacity:0.157" fill="#a5a5a5" d="M 150.5,136.5 C 148.849,141.041 148.349,145.707 149,150.5C 150.322,153.965 151.822,157.298 153.5,160.5C 148.163,155.309 146.329,148.975 148,141.5C 148.099,139.347 148.933,137.681 150.5,136.5 Z"/></g>
<g><path style="opacity:0.404" fill="#a8a8a8" d="M 350.5,141.5 C 351.777,142.694 352.444,144.36 352.5,146.5C 352.333,148.167 352.167,149.833 352,151.5C 351.583,152.756 350.75,153.423 349.5,153.5C 349.297,151.61 349.963,150.11 351.5,149C 350.565,146.619 350.232,144.119 350.5,141.5 Z"/></g>
<g><path style="opacity:0.176" fill="#a3a3a3" d="M 349.5,153.5 C 350.303,154.423 350.47,155.423 350,156.5C 347.963,158.706 345.797,160.706 343.5,162.5C 343.167,162.5 342.833,162.5 342.5,162.5C 345.246,159.762 347.58,156.762 349.5,153.5 Z"/></g>
<g><path style="opacity:0.049" fill="#c9c9c9" d="M 158.5,164.5 C 160.898,164.259 162.898,164.926 164.5,166.5C 162.214,166.405 160.214,165.738 158.5,164.5 Z"/></g>
<g><path style="opacity:0.066" fill="#efefef" d="M 342.5,162.5 C 342.833,162.5 343.167,162.5 343.5,162.5C 341.035,164.837 338.035,166.337 334.5,167C 277.665,167.832 220.999,167.665 164.5,166.5C 220.834,166.667 277.168,166.5 333.5,166C 336.526,164.817 339.526,163.651 342.5,162.5 Z"/></g>
<g><path style="opacity:0.095" fill="#c9c9c9" d="M 350.5,251.5 C 347.566,244.733 342.566,240.233 335.5,238C 278.5,237.333 221.5,237.333 164.5,238C 162.283,239.275 159.949,240.275 157.5,241C 156.333,243.5 154.5,245.333 152,246.5C 150.787,248.925 149.621,251.259 148.5,253.5C 150.122,245.04 155.122,239.54 163.5,237C 221.167,236.333 278.833,236.333 336.5,237C 343.544,239.21 348.544,243.71 351.5,250.5C 351.376,251.107 351.043,251.44 350.5,251.5 Z"/></g>
<g><path style="opacity:0.145" fill="#adadad" d="M 441.5,134.5 C 442.222,134.918 442.722,135.584 443,136.5C 443.449,142.671 443.949,148.838 444.5,155C 443.845,263.326 443.178,371.492 442.5,479.5C 442.827,364.472 442.494,249.472 441.5,134.5 Z"/></g>
<g><path style="opacity:0.314" fill="#969696" d="M 351.5,253.5 C 353.476,263.727 349.809,271.56 340.5,277C 338.19,277.497 335.857,277.663 333.5,277.5C 345.866,274.447 351.866,266.447 351.5,253.5 Z"/></g>
<g><path style="opacity:0.127" fill="#8e8e8e" d="M 148.5,253.5 C 147.814,266.642 153.814,274.809 166.5,278C 222.237,278.829 277.904,278.662 333.5,277.5C 305.841,278.833 277.841,279.5 249.5,279.5C 221.5,279.333 193.5,279.167 165.5,279C 152.13,275.387 146.464,266.887 148.5,253.5 Z"/></g>
<g><path style="opacity:0.225" fill="#3d3d3d" d="M 333.5,346.5 C 333.5,346.833 333.5,347.167 333.5,347.5C 276.762,347.171 220.095,347.504 163.5,348.5C 219.824,346.504 276.49,345.837 333.5,346.5 Z"/></g>
<g><path style="opacity:0.114" fill="#7f7f7f" d="M 333.5,347.5 C 333.5,347.167 333.5,346.833 333.5,346.5C 338.367,346.933 342.367,348.933 345.5,352.5C 341.76,350.299 337.76,348.632 333.5,347.5 Z"/></g>
<g><path style="opacity:0.063" fill="#828282" d="M 162.5,348.5 C 158.548,350.465 154.881,352.798 151.5,355.5C 154.082,350.825 157.748,348.492 162.5,348.5 Z"/></g>
<g><path style="opacity:0.161" fill="#aaaaaa" d="M 149.5,363.5 C 148.133,367.608 148.466,371.608 150.5,375.5C 149.503,375.53 148.836,375.03 148.5,374C 147.949,372.042 147.615,370.042 147.5,368C 147.569,366.014 148.235,364.514 149.5,363.5 Z"/></g>
<g><path style="opacity:0.133" fill="#989898" d="M 351.5,362.5 C 353.95,372.607 350.617,380.273 341.5,385.5C 348.923,379.65 352.257,371.983 351.5,362.5 Z"/></g>
<g><path style="opacity:0.016" fill="#bfbfbf" d="M 151.5,377.5 C 152.909,379.972 154.576,382.305 156.5,384.5C 153.759,383.561 151.759,381.727 150.5,379C 151.056,378.617 151.389,378.117 151.5,377.5 Z"/></g>
<g><path style="opacity:0.094" fill="#bdbdbd" d="M 156.5,384.5 C 158.027,384.427 159.027,385.094 159.5,386.5C 157.973,386.573 156.973,385.906 156.5,384.5 Z"/></g>
<g><path style="opacity:0.004" fill="#bfbfbf" d="M 58.5,484.5 C 60.8333,486.167 62.8333,488.167 64.5,490.5C 61.5,489.5 59.5,487.5 58.5,484.5 Z"/></g>
<g><path style="opacity:0.039" fill="#c0c0c0" d="M 439.5,485.5 C 439.573,487.027 438.906,488.027 437.5,488.5C 437.427,486.973 438.094,485.973 439.5,485.5 Z"/></g>
</svg>
