<?xml version="1.0" encoding="UTF-8"?>
<!DOCTYPE svg PUBLIC "-//W3C//DTD SVG 1.1//EN" "http://www.w3.org/Graphics/SVG/1.1/DTD/svg11.dtd">
<svg xmlns="http://www.w3.org/2000/svg" version="1.1" width="512px" height="512px" style="shape-rendering:geometricPrecision; text-rendering:geometricPrecision; image-rendering:optimizeQuality; fill-rule:evenodd; clip-rule:evenodd" xmlns:xlink="http://www.w3.org/1999/xlink">
<g><path style="opacity:1" fill="#fdfdfd" d="M -0.5,-0.5 C 170.167,-0.5 340.833,-0.5 511.5,-0.5C 511.5,170.167 511.5,340.833 511.5,511.5C 340.833,511.5 170.167,511.5 -0.5,511.5C -0.5,340.833 -0.5,170.167 -0.5,-0.5 Z"/></g>
<g><path style="opacity:1" fill="#000000" d="M 73.5,4.5 C 162.211,4.01028 250.877,4.51028 339.5,6C 343.758,7.38408 347.258,9.88408 350,13.5C 381.623,52.1256 413.623,90.4589 446,128.5C 448.583,131.997 450.916,135.664 453,139.5C 453.667,256.833 453.667,374.167 453,491.5C 450.511,499.675 445.011,504.508 436.5,506C 315.5,506.667 194.5,506.667 73.5,506C 66.0657,503.565 60.899,498.732 58,491.5C 57.3333,333.833 57.3333,176.167 58,18.5C 61.4922,11.8344 66.6589,7.16775 73.5,4.5 Z"/></g>
<g><path style="opacity:1" fill="#fafafa" d="M 344.5,130.5 C 346.5,131.167 348.5,131.833 350.5,132.5C 350.5,133.167 350.833,133.5 351.5,133.5C 352.833,135.5 354.5,137.167 356.5,138.5C 358.915,139.982 359.582,141.982 358.5,144.5C 359.642,146.117 360.309,147.95 360.5,150C 359.646,152.54 358.979,155.04 358.5,157.5C 356.849,158.641 355.515,160.641 354.5,163.5C 353.027,164.072 351.693,164.905 350.5,166C 351.833,166.667 351.833,167.333 350.5,168C 349.007,169.368 347.507,169.535 346,168.5C 345.323,170.689 344.156,171.022 342.5,169.5C 341.304,169.846 341.304,170.346 342.5,171C 284.5,171.667 226.5,171.667 168.5,171C 169.696,170.346 169.696,169.846 168.5,169.5C 167.833,169.833 167.167,170.167 166.5,170.5C 165.304,170.154 165.304,169.654 166.5,169C 164.981,169.331 163.648,169.164 162.5,168.5C 162.938,168.565 163.272,168.399 163.5,168C 160,165.833 157.167,163 155,159.5C 154.601,159.728 154.435,160.062 154.5,160.5C 153.853,156.788 152.853,153.288 151.5,150C 152.907,147.764 153.574,144.93 153.5,141.5C 153.435,141.938 153.601,142.272 154,142.5C 154.374,141.584 154.874,140.75 155.5,140C 155.272,139.601 154.938,139.435 154.5,139.5C 154.5,138.833 154.833,138.5 155.5,138.5C 157.833,136.833 159.833,134.833 161.5,132.5C 162.255,130.534 163.421,130.2 165,131.5C 165.333,130.833 165.667,130.167 166,129.5C 167.049,130.517 168.216,130.684 169.5,130C 169.167,129.667 168.833,129.333 168.5,129C 226.833,128.333 285.167,128.333 343.5,129C 342.288,130.107 342.621,130.607 344.5,130.5 Z"/></g>
<g><path style="opacity:1" fill="#8f8f8f" d="M 344.5,130.5 C 346.915,129.352 348.915,130.018 350.5,132.5C 348.5,131.833 346.5,131.167 344.5,130.5 Z"/></g>
<g><path style="opacity:1" fill="#727272" d="M 356.5,138.5 C 354.5,137.167 352.833,135.5 351.5,133.5C 351.435,133.062 351.601,132.728 352,132.5C 354.127,134.114 355.627,136.114 356.5,138.5 Z"/></g>
<g><path style="opacity:1" fill="#626262" d="M 161.5,132.5 C 159.833,134.833 157.833,136.833 155.5,138.5C 156.5,135.5 158.5,133.5 161.5,132.5 Z"/></g>
<g><path style="opacity:1" fill="#787878" d="M 154.5,139.5 C 154.938,139.435 155.272,139.601 155.5,140C 154.874,140.75 154.374,141.584 154,142.5C 153.601,142.272 153.435,141.938 153.5,141.5C 153.328,140.508 153.662,139.842 154.5,139.5 Z"/></g>
<g><path style="opacity:1" fill="#757575" d="M 162.5,168.5 C 158.833,166.833 156.167,164.167 154.5,160.5C 154.435,160.062 154.601,159.728 155,159.5C 157.167,163 160,165.833 163.5,168C 163.272,168.399 162.938,168.565 162.5,168.5 Z"/></g>
<g><path style="opacity:1" fill="#676767" d="M 358.5,157.5 C 358.155,160.198 356.822,162.198 354.5,163.5C 355.515,160.641 356.849,158.641 358.5,157.5 Z"/></g>
<g><path style="opacity:1" fill="#fafafa" d="M 347.5,244.5 C 351.464,247.345 354.964,251.345 358,256.5C 358.399,256.272 358.565,255.938 358.5,255.5C 358.936,258.029 359.602,260.862 360.5,264C 359.646,266.54 358.979,269.04 358.5,271.5C 356.753,273.142 355.086,275.475 353.5,278.5C 351.933,280.626 350.266,282.126 348.5,283C 347.451,283.492 346.451,283.326 345.5,282.5C 345.511,283.441 345.011,284.108 344,284.5C 343.127,284.265 342.293,283.931 341.5,283.5C 340.304,283.846 340.304,284.346 341.5,285C 284.167,285.667 226.833,285.667 169.5,285C 169.833,284.667 170.167,284.333 170.5,284C 169.101,283.405 167.768,283.572 166.5,284.5C 165.304,284.154 165.304,283.654 166.5,283C 165.231,283.109 164.231,282.942 163.5,282.5C 160.196,280.027 157.362,277.027 155,273.5C 154.601,273.728 154.435,274.062 154.5,274.5C 153.853,270.788 152.853,267.288 151.5,264C 151.691,261.95 152.358,260.117 153.5,258.5C 153.167,257.833 152.833,257.167 152.5,256.5C 152.846,255.304 153.346,255.304 154,256.5C 155.205,254.804 155.705,253.137 155.5,251.5C 155.435,251.938 155.601,252.272 156,252.5C 157.833,250.667 159.667,248.833 161.5,247C 161.272,246.601 160.938,246.435 160.5,246.5C 161.189,245.226 162.023,245.226 163,246.5C 165.058,245.891 165.891,244.891 165.5,243.5C 166.167,243.833 166.833,244.167 167.5,244.5C 168.696,244.154 168.696,243.654 167.5,243C 226.5,242.333 285.5,242.333 344.5,243C 344.167,243.333 343.833,243.667 343.5,244C 345.019,243.669 346.352,243.836 347.5,244.5 Z"/></g>
<g><path style="opacity:1" fill="#757575" d="M 347.5,244.5 C 352.833,246.5 356.5,250.167 358.5,255.5C 358.565,255.938 358.399,256.272 358,256.5C 354.964,251.345 351.464,247.345 347.5,244.5 Z"/></g>
<g><path style="opacity:1" fill="#545454" d="M 160.5,246.5 C 160.938,246.435 161.272,246.601 161.5,247C 159.667,248.833 157.833,250.667 156,252.5C 155.601,252.272 155.435,251.938 155.5,251.5C 156.833,249.5 158.5,247.833 160.5,246.5 Z"/></g>
<g><path style="opacity:1" fill="#6b6b6b" d="M 358.5,271.5 C 357.99,274.674 356.323,277.008 353.5,278.5C 355.086,275.475 356.753,273.142 358.5,271.5 Z"/></g>
<g><path style="opacity:1" fill="#848484" d="M 163.5,282.5 C 159.254,281.255 156.254,278.588 154.5,274.5C 154.435,274.062 154.601,273.728 155,273.5C 157.362,277.027 160.196,280.027 163.5,282.5 Z"/></g>
<g><path style="opacity:1" fill="#fdfdfd" d="M 347.5,357.5 C 351.464,360.345 354.964,364.345 358,369.5C 358.399,369.272 358.565,368.938 358.5,368.5C 359.273,370.797 359.939,373.464 360.5,376.5C 359.939,379.536 359.273,382.203 358.5,384.5C 355.258,389.171 350.591,393.004 344.5,396C 344.728,396.399 345.062,396.565 345.5,396.5C 315.892,397.785 285.892,398.452 255.5,398.5C 225.149,398.452 195.149,397.785 165.5,396.5C 163.459,394.564 160.793,392.564 157.5,390.5C 156.977,388.292 155.644,386.792 153.5,386C 153.957,385.586 154.291,385.086 154.5,384.5C 153.833,384.167 153.167,383.833 152.5,383.5C 152.833,382.833 153.167,382.167 153.5,381.5C 153.154,380.304 152.654,380.304 152,381.5C 151.043,377.901 151.543,374.568 153.5,371.5C 153.167,370.833 152.833,370.167 152.5,369.5C 152.846,368.304 153.346,368.304 154,369.5C 155.205,367.804 155.705,366.137 155.5,364.5C 155.435,364.938 155.601,365.272 156,365.5C 159.078,362.227 161.912,359.561 164.5,357.5C 165.313,356.347 166.313,356.347 167.5,357.5C 167.833,356.833 168.167,356.167 168.5,355.5C 226.654,356.832 284.821,356.832 343,355.5C 344.011,355.892 344.511,356.559 344.5,357.5C 345.687,356.347 346.687,356.347 347.5,357.5 Z"/></g>
<g><path style="opacity:1" fill="#616161" d="M 347.5,357.5 C 352.833,359.5 356.5,363.167 358.5,368.5C 358.565,368.938 358.399,369.272 358,369.5C 354.964,364.345 351.464,360.345 347.5,357.5 Z"/></g>
<g><path style="opacity:1" fill="#4d4d4d" d="M 164.5,357.5 C 161.912,359.561 159.078,362.227 156,365.5C 155.601,365.272 155.435,364.938 155.5,364.5C 157.637,361.027 160.637,358.694 164.5,357.5 Z"/></g>
<g><path style="opacity:1" fill="#7b7b7b" d="M 157.5,390.5 C 160.793,392.564 163.459,394.564 165.5,396.5C 162.139,395.316 159.139,393.483 156.5,391C 156.728,390.601 157.062,390.435 157.5,390.5 Z"/></g>
<g><path style="opacity:1" fill="#7c7c7c" d="M 358.5,384.5 C 356.1,390.566 351.767,394.566 345.5,396.5C 345.062,396.565 344.728,396.399 344.5,396C 350.591,393.004 355.258,389.171 358.5,384.5 Z"/></g>
</svg>
