<?xml version="1.0" encoding="UTF-8"?>
<!DOCTYPE svg PUBLIC "-//W3C//DTD SVG 1.1//EN" "http://www.w3.org/Graphics/SVG/1.1/DTD/svg11.dtd">
<svg xmlns="http://www.w3.org/2000/svg" version="1.1" width="512px" height="512px" style="shape-rendering:geometricPrecision; text-rendering:geometricPrecision; image-rendering:optimizeQuality; fill-rule:evenodd; clip-rule:evenodd" xmlns:xlink="http://www.w3.org/1999/xlink">
<g><path style="opacity:0.98" fill="#000000" d="M 71.5,4.5 C 161.557,4.00761 251.557,4.50761 341.5,6C 344.902,7.39988 347.736,9.56655 350,12.5C 383.333,52.5 416.667,92.5 450,132.5C 451.825,135.311 453.158,138.311 454,141.5C 454.667,258.167 454.667,374.833 454,491.5C 451.86,498.974 447.026,503.807 439.5,506C 316.833,506.667 194.167,506.667 71.5,506C 64.2417,503.076 59.4084,497.909 57,490.5C 56.3333,333.833 56.3333,177.167 57,20.5C 59.5996,13.0704 64.4329,7.73709 71.5,4.5 Z M 99.5,46.5 C 173.501,46.3333 247.501,46.5 321.5,47C 351.333,82.1667 381.167,117.333 411,152.5C 411.5,256.499 411.667,360.499 411.5,464.5C 307.5,464.5 203.5,464.5 99.5,464.5C 99.5,325.167 99.5,185.833 99.5,46.5 Z"/></g>
<g><path style="opacity:0.967" fill="#000000" d="M 168.5,128.5 C 226.834,128.333 285.168,128.5 343.5,129C 359.681,134.872 364.181,145.706 357,161.5C 353.476,166.694 348.643,169.861 342.5,171C 284.5,171.667 226.5,171.667 168.5,171C 154.096,166.167 148.929,156.334 153,141.5C 156.258,134.73 161.425,130.397 168.5,128.5 Z"/></g>
<g><path style="opacity:0.967" fill="#000000" d="M 167.5,242.5 C 226.501,242.333 285.501,242.5 344.5,243C 359.831,249.472 363.998,260.305 357,275.5C 352.976,280.592 347.809,283.759 341.5,285C 284.167,285.667 226.833,285.667 169.5,285C 158.108,282.609 152.108,275.609 151.5,264C 152.113,253.232 157.447,246.065 167.5,242.5 Z"/></g>
<g><path style="opacity:0.967" fill="#000000" d="M 167.5,355.5 C 226.501,355.333 285.501,355.5 344.5,356C 359.88,362.47 364.047,373.303 357,388.5C 352.515,394.159 346.681,397.326 339.5,398C 283.5,398.667 227.5,398.667 171.5,398C 159.056,396.555 152.389,389.555 151.5,377C 152.113,366.232 157.447,359.065 167.5,355.5 Z"/></g>
</svg>
