<?xml version="1.0" standalone="no"?>
<!DOCTYPE svg PUBLIC "-//W3C//DTD SVG 20010904//EN"
 "http://www.w3.org/TR/2001/REC-SVG-20010904/DTD/svg10.dtd">
<svg version="1.0" xmlns="http://www.w3.org/2000/svg"
 width="512.000000pt" height="512.000000pt" viewBox="0 0 512.000000 512.000000"
 preserveAspectRatio="xMidYMid meet">
<metadata>
Created by potrace 1.16, written by Peter Selinger 2001-2019
</metadata>
<g transform="translate(0.000000,512.000000) scale(0.100000,-0.100000)"
fill="#000000" stroke="none">
<path d="M2255 5108 c-461 -52 -936 -253 -1309 -553 -120 -96 -343 -326 -433
-446 -210 -280 -361 -598 -443 -931 -57 -233 -65 -308 -65 -618 0 -310 8 -385
65 -618 67 -271 197 -569 346 -792 375 -561 938 -950 1584 -1094 207 -46 358
-59 620 -53 311 7 534 45 795 137 184 65 476 210 517 257 54 62 68 166 31 238
-38 73 -93 105 -182 105 -51 0 -70 -6 -133 -40 -270 -149 -534 -239 -805 -275
-135 -18 -409 -20 -528 -5 -272 35 -494 102 -730 223 -611 311 -1022 870
-1152 1567 -25 136 -25 564 0 700 131 699 540 1255 1155 1569 216 110 442 181
686 216 144 21 425 21 576 0 525 -74 1018 -345 1352 -745 250 -299 412 -645
483 -1035 22 -119 31 -461 16 -591 -37 -314 -139 -606 -311 -893 -67 -112 -70
-120 -70 -181 0 -123 77 -200 201 -200 96 0 137 30 215 156 180 291 292 588
355 941 30 168 38 535 15 723 -57 466 -244 916 -533 1283 -73 93 -327 347
-420 420 -364 287 -815 475 -1273 532 -137 17 -489 19 -625 3z"/>
<path d="M2453 3634 c-24 -14 -54 -44 -68 -68 l-25 -43 0 -381 0 -382 -382 0
-381 0 -43 -25 c-63 -37 -94 -95 -94 -175 0 -80 31 -138 94 -175 l43 -25 381
0 382 0 0 -382 0 -381 25 -43 c37 -63 95 -94 175 -94 80 0 138 31 175 94 l25
43 0 381 0 382 382 0 381 0 43 25 c63 37 94 95 94 175 0 80 -31 138 -94 175
l-43 25 -381 0 -382 0 0 382 0 381 -25 43 c-37 63 -95 94 -176 94 -51 0 -73
-5 -106 -26z"/>
</g>
</svg>
