<?xml version="1.0" standalone="no"?>
<!DOCTYPE svg PUBLIC "-//W3C//DTD SVG 20010904//EN"
 "http://www.w3.org/TR/2001/REC-SVG-20010904/DTD/svg10.dtd">
<svg version="1.0" xmlns="http://www.w3.org/2000/svg"
 width="512.000000pt" height="512.000000pt" viewBox="0 0 512.000000 512.000000"
 preserveAspectRatio="xMidYMid meet">
<metadata>
Created by potrace 1.16, written by Peter Selinger 2001-2019
</metadata>
<g transform="translate(0.000000,512.000000) scale(0.100000,-0.100000)"
fill="#000000" stroke="none">
<path d="M648 4781 c-145 -47 -269 -174 -312 -320 -14 -49 -16 -217 -16 -1582
0 -1471 1 -1529 19 -1588 46 -147 172 -272 320 -315 48 -14 174 -16 1085 -16
1011 0 1032 0 1064 20 95 58 99 216 5 277 -26 17 -85 18 -1038 23 -996 5
-1010 5 -1045 26 -48 28 -78 75 -85 137 -3 29 -5 696 -3 1482 3 1409 3 1430
23 1464 26 44 62 70 111 81 52 12 2876 12 2928 0 49 -11 85 -37 111 -81 20
-33 20 -57 25 -1044 5 -953 6 -1012 23 -1038 29 -45 75 -67 137 -67 65 0 110
24 140 72 20 32 20 53 20 1065 0 984 -1 1034 -19 1092 -46 147 -172 272 -320
315 -49 14 -217 16 -1585 15 -1457 0 -1534 -1 -1588 -18z"/>
<path d="M1633 4146 c-101 -33 -190 -113 -241 -216 -25 -50 -27 -65 -27 -170
0 -107 2 -119 29 -175 38 -77 114 -153 191 -191 56 -27 68 -29 175 -29 107 0
119 2 175 29 77 38 153 114 191 191 27 56 29 68 29 175 0 107 -2 119 -29 175
-38 77 -114 153 -191 190 -52 26 -72 30 -160 32 -64 2 -115 -2 -142 -11z"/>
<path d="M2666 3355 c-31 -11 -137 -111 -473 -447 l-433 -433 -197 197 c-167
166 -205 198 -240 207 -79 21 -113 4 -246 -127 l-117 -116 0 -518 0 -518 1280
0 1280 0 0 518 0 517 -357 357 c-302 300 -364 358 -398 367 -49 13 -51 13 -99
-4z"/>
<path d="M3912 1900 c-18 -11 -41 -34 -52 -52 -19 -31 -20 -51 -20 -300 l0
-268 -267 0 c-250 0 -270 -1 -301 -20 -48 -30 -72 -75 -72 -140 0 -65 24 -110
72 -140 31 -19 51 -20 301 -20 l267 0 0 -267 c0 -250 1 -270 20 -301 30 -48
75 -72 140 -72 65 0 110 24 140 72 19 31 20 51 20 301 l0 267 268 0 c249 0
269 1 300 20 48 30 72 75 72 140 0 65 -24 110 -72 140 -31 19 -51 20 -300 20
l-268 0 0 268 c0 249 -1 269 -20 300 -11 18 -34 41 -52 52 -45 27 -131 27
-176 0z"/>
</g>
</svg>
