<?xml version="1.0" standalone="no"?>
<!DOCTYPE svg PUBLIC "-//W3C//DTD SVG 20010904//EN"
 "http://www.w3.org/TR/2001/REC-SVG-20010904/DTD/svg10.dtd">
<svg version="1.0" xmlns="http://www.w3.org/2000/svg"
 width="512.000000pt" height="512.000000pt" viewBox="0 0 512.000000 512.000000"
 preserveAspectRatio="xMidYMid meet">
<metadata>
Created by potrace 1.16, written by Peter Selinger 2001-2019
</metadata>
<g transform="translate(0.000000,512.000000) scale(0.100000,-0.100000)"
fill="#000000" stroke="none">
<path d="M2355 4794 c-359 -52 -681 -211 -929 -460 -216 -215 -356 -468 -434
-784 l-25 -105 -7 -715 c-6 -707 -8 -740 -41 -801 -14 -28 -245 -361 -300
-434 -57 -76 -74 -127 -73 -220 0 -68 5 -89 29 -138 34 -68 87 -120 159 -153
l51 -24 492 0 491 0 22 -72 c83 -272 296 -476 575 -549 111 -29 279 -29 390 0
278 73 493 278 575 549 l22 72 491 0 492 0 51 24 c72 34 129 88 161 154 22 47
27 71 27 137 1 93 -16 144 -73 220 -55 73 -286 406 -300 434 -33 61 -35 94
-41 801 l-7 715 -25 105 c-78 316 -218 569 -434 784 -216 216 -473 358 -784
433 -91 22 -132 25 -315 28 -115 2 -223 1 -240 -1z m425 -341 c101 -17 260
-68 344 -110 307 -154 548 -437 650 -761 58 -184 59 -199 65 -957 6 -641 8
-704 25 -750 30 -83 76 -161 229 -380 l147 -210 -840 -3 c-462 -1 -1218 -1
-1680 0 l-840 3 151 215 c151 217 191 284 225 375 17 46 19 104 25 750 5 596
8 713 23 790 89 476 416 851 871 998 196 63 391 76 605 40z m215 -3515 c-21
-71 -119 -181 -205 -230 -134 -78 -326 -78 -460 0 -86 49 -184 159 -205 230
l-6 22 441 0 441 0 -6 -22z"/>
</g>
</svg>
