<?xml version="1.0" standalone="no"?>
<!DOCTYPE svg PUBLIC "-//W3C//DTD SVG 20010904//EN"
 "http://www.w3.org/TR/2001/REC-SVG-20010904/DTD/svg10.dtd">
<svg version="1.0" xmlns="http://www.w3.org/2000/svg"
 width="512.000000pt" height="512.000000pt" viewBox="0 0 512.000000 512.000000"
 preserveAspectRatio="xMidYMid meet">
<metadata>
Created by potrace 1.16, written by Peter Selinger 2001-2019
</metadata>
<g transform="translate(0.000000,512.000000) scale(0.100000,-0.100000)"
fill="#000000" stroke="none">
<path d="M3610 5101 c-397 -87 -701 -378 -813 -779 -18 -67 -21 -103 -21 -272
0 -183 2 -201 27 -285 129 -430 477 -724 917 -776 480 -55 947 229 1116 681
199 528 -33 1110 -538 1350 -153 73 -240 92 -433 96 -139 3 -186 0 -255 -15z"/>
<path d="M2185 4690 c-333 -38 -633 -176 -867 -398 -231 -220 -369 -465 -444
-787 -13 -56 -17 -164 -24 -555 -9 -529 -14 -587 -72 -770 -72 -229 -181 -403
-375 -600 -173 -175 -188 -203 -188 -355 0 -107 1 -112 36 -175 42 -77 111
-137 196 -171 l58 -24 1815 -3 c1290 -2 1828 1 1859 8 116 29 228 118 274 217
18 39 22 66 22 148 0 93 -2 105 -33 168 -25 51 -52 84 -113 139 -248 227 -409
516 -464 832 -8 49 -15 110 -15 136 0 26 -6 52 -12 57 -7 6 -58 13 -113 16
-119 6 -227 28 -350 68 -587 196 -993 728 -1022 1339 -10 220 24 423 103 619
18 46 32 87 29 89 -8 9 -230 11 -300 2z"/>
<path d="M1566 588 c75 -259 267 -462 522 -551 76 -26 104 -31 222 -35 113 -3
149 -1 222 17 261 62 476 254 567 507 17 47 31 92 31 100 0 12 -107 14 -789
14 l-790 0 15 -52z"/>
</g>
</svg>
