<?xml version="1.0" standalone="no"?>
<!DOCTYPE svg PUBLIC "-//W3C//DTD SVG 20010904//EN"
 "http://www.w3.org/TR/2001/REC-SVG-20010904/DTD/svg10.dtd">
<svg version="1.0" xmlns="http://www.w3.org/2000/svg"
 width="361.000000pt" height="336.000000pt" viewBox="0 0 361.000000 336.000000"
 preserveAspectRatio="xMidYMid meet">
<metadata>
Created by potrace 1.16, written by Peter Selinger 2001-2019
</metadata>
<g transform="translate(0.000000,336.000000) scale(0.100000,-0.100000)"
fill="#000000" stroke="none">
<path d="M1210 3100 c-19 -19 -20 -33 -20 -350 0 -317 1 -331 20 -350 25 -25
52 -26 73 -2 13 14 17 39 17 105 0 47 4 88 9 92 15 8 82 -55 97 -92 29 -69 11
-149 -44 -195 -95 -80 -218 -53 -269 59 -29 63 -26 106 13 165 13 21 24 46 24
57 0 46 -62 67 -96 34 -9 -10 -29 -42 -43 -73 -99 -213 106 -452 332 -386 155
45 239 202 193 361 -22 72 -98 154 -166 177 -39 13 -45 19 -48 46 l-3 32 468
0 c257 0 473 4 479 8 23 15 35 51 24 72 -6 11 -12 21 -13 22 -1 1 -216 5 -477
8 l-475 5 -5 103 c-4 76 -9 105 -20 112 -24 15 -48 12 -70 -10z"/>
<path d="M2356 3104 c-14 -13 -16 -59 -16 -353 0 -315 1 -339 18 -354 23 -21
42 -21 68 -3 16 12 20 30 24 111 l5 96 34 -23 c126 -86 79 -290 -73 -315 -67
-11 -155 39 -182 104 -22 52 -17 104 17 167 28 54 29 59 14 82 -10 16 -25 24
-45 24 -61 0 -118 -126 -107 -235 10 -100 65 -178 155 -222 146 -72 317 -7
385 146 61 137 -16 318 -155 369 -44 15 -48 19 -48 49 l0 33 245 0 245 0 0
-57 c1 -32 7 -184 14 -338 8 -154 12 -283 9 -287 -2 -5 -517 -8 -1143 -8 -626
0 -1141 3 -1143 8 -3 4 -1 79 3 167 5 88 12 240 15 338 l7 177 198 0 c178 0
198 2 213 18 21 23 22 56 1 76 -23 24 -485 24 -505 0 -15 -18 -22 -156 -70
-1389 -30 -779 -31 -833 -16 -886 19 -63 54 -112 114 -158 82 -63 34 -61 1183
-61 1209 0 1115 -7 1216 94 51 51 66 73 80 122 18 64 17 104 -36 1424 -11 261
-22 540 -25 620 -7 171 -12 219 -27 237 -8 10 -74 13 -294 13 l-284 0 0 95 c0
82 -3 98 -20 115 -24 24 -53 26 -74 4z m618 -1186 c3 -35 16 -330 27 -656 17
-467 20 -601 10 -632 -15 -52 -56 -99 -106 -121 -38 -18 -93 -19 -1085 -19
-992 0 -1047 1 -1085 19 -50 22 -91 69 -106 121 -10 31 -7 165 10 632 11 326
24 621 27 656 l6 62 1148 0 1148 0 6 -62z"/>
<path d="M1730 1853 c-86 -88 -145 -179 -170 -260 -36 -117 -20 -225 35 -239
47 -12 60 14 60 114 0 80 3 92 33 149 19 34 56 85 83 115 l49 53 49 -53 c94
-102 141 -230 111 -302 -12 -28 -64 -70 -89 -70 -7 0 -11 19 -11 50 0 81 -30
121 -78 105 -32 -10 -42 -51 -42 -170 l0 -115 -163 0 c-189 0 -241 -11 -304
-65 -67 -57 -97 -130 -101 -246 -4 -88 -2 -99 17 -118 25 -25 54 -27 75 -5 12
11 16 36 16 97 1 117 37 188 113 216 18 7 163 11 407 11 244 0 389 -4 407 -11
76 -28 112 -99 113 -216 0 -61 4 -86 16 -97 21 -22 50 -20 75 5 19 19 21 30
17 118 -4 116 -34 189 -101 246 -62 53 -115 65 -299 65 -87 0 -158 4 -158 8 0
4 20 14 44 21 57 16 124 74 147 125 39 85 13 223 -63 337 -61 91 -168 199
-198 199 -17 0 -44 -21 -90 -67z"/>
<path d="M1097 702 c-21 -23 -22 -56 -1 -76 14 -14 93 -16 724 -16 631 0 710
2 724 16 21 21 20 57 -2 77 -17 16 -82 17 -724 17 -670 0 -706 -1 -721 -18z"/>
</g>
</svg>
