<?xml version="1.0" standalone="no"?>
<!DOCTYPE svg PUBLIC "-//W3C//DTD SVG 20010904//EN"
 "http://www.w3.org/TR/2001/REC-SVG-20010904/DTD/svg10.dtd">
<svg version="1.0" xmlns="http://www.w3.org/2000/svg"
 width="512.000000pt" height="512.000000pt" viewBox="0 0 512.000000 512.000000"
 preserveAspectRatio="xMidYMid meet">
<metadata>
Created by potrace 1.16, written by Peter Selinger 2001-2019
</metadata>
<g transform="translate(0.000000,512.000000) scale(0.100000,-0.100000)"
fill="#000000" stroke="none">
<path d="M664 5105 c-235 -51 -445 -222 -548 -447 -77 -166 -70 37 -73 -2155
-4 -2179 -8 -2038 63 -2183 50 -100 151 -201 254 -253 113 -56 183 -70 320
-65 130 6 209 30 304 93 31 21 254 241 526 520 259 267 473 485 475 485 2 0
216 -218 475 -485 288 -295 494 -499 528 -522 95 -62 170 -85 302 -90 87 -4
131 -1 180 12 150 39 272 123 355 245 63 92 95 188 102 300 4 75 2 90 -19 129
-13 25 -40 59 -61 75 -36 29 -44 31 -122 31 -78 0 -86 -2 -122 -31 -48 -38
-83 -106 -83 -159 0 -53 -35 -121 -83 -159 -32 -26 -48 -31 -105 -34 -56 -3
-73 1 -103 20 -20 13 -280 273 -578 579 -317 327 -555 563 -575 573 -44 21
-138 21 -182 0 -20 -10 -260 -249 -575 -573 -298 -306 -558 -566 -578 -579
-30 -19 -47 -23 -102 -20 -81 4 -138 38 -169 102 -20 42 -20 52 -20 1948 0
1883 0 1907 20 1971 46 147 172 254 327 277 41 6 509 10 1188 10 679 0 1147
-4 1188 -10 71 -10 151 -45 202 -88 82 -68 145 -198 145 -301 0 -60 33 -125
83 -165 36 -29 44 -31 122 -31 78 0 86 2 122 31 21 16 49 50 61 75 22 40 23
53 18 139 -21 358 -279 662 -624 735 -96 21 -2545 20 -2638 0z"/>
<path d="M3495 3815 c-445 -81 -804 -354 -996 -759 -172 -362 -169 -817 7
-1168 185 -370 500 -624 901 -726 101 -25 122 -27 318 -27 196 0 217 2 318 28
523 132 909 537 1014 1064 24 122 24 384 0 506 -111 558 -549 988 -1101 1082
-108 18 -361 19 -461 0z m391 -406 c324 -50 622 -304 731 -624 51 -152 65
-306 38 -456 -35 -201 -113 -355 -254 -503 -368 -384 -984 -384 -1352 0 -105
110 -171 216 -216 349 -121 355 -27 729 248 991 83 78 140 116 252 169 183 85
345 107 553 74z"/>
<path d="M3635 3065 c-92 -50 -114 -101 -115 -262 l0 -121 -139 -4 c-138 -3
-140 -3 -178 -34 -109 -87 -109 -241 0 -328 38 -31 40 -31 178 -34 l139 -4 0
-122 c0 -107 3 -127 23 -166 12 -24 39 -58 60 -74 36 -29 44 -31 122 -31 78 0
86 2 122 31 21 16 48 50 61 74 19 39 22 59 22 166 l0 122 139 4 c138 3 140 3
178 34 109 87 109 241 0 328 -38 31 -40 31 -178 34 l-139 4 0 122 c0 107 -3
127 -22 166 -13 24 -40 58 -61 74 -33 27 -48 31 -110 34 -52 2 -80 -2 -102
-13z"/>
</g>
</svg>
