<?xml version="1.0" standalone="no"?>
<!DOCTYPE svg PUBLIC "-//W3C//DTD SVG 20010904//EN"
 "http://www.w3.org/TR/2001/REC-SVG-20010904/DTD/svg10.dtd">
<svg version="1.0" xmlns="http://www.w3.org/2000/svg"
 width="512.000000pt" height="512.000000pt" viewBox="0 0 512.000000 512.000000"
 preserveAspectRatio="xMidYMid meet">
<metadata>
Created by potrace 1.16, written by Peter Selinger 2001-2019
</metadata>
<g transform="translate(0.000000,512.000000) scale(0.100000,-0.100000)"
fill="#000000" stroke="none">
<path d="M4175 4891 c-22 -10 -52 -31 -67 -47 -54 -58 -58 -83 -58 -339 l0
-235 -237 0 c-262 0 -288 -5 -345 -66 -88 -94 -72 -257 34 -330 l41 -29 254
-3 253 -3 0 -238 c0 -234 0 -238 25 -288 38 -75 89 -107 179 -111 91 -4 146
22 194 92 l32 48 0 249 0 249 243 0 c235 0 245 1 288 23 27 14 57 42 77 73 32
47 34 53 30 125 -4 95 -34 145 -111 184 -50 25 -54 25 -288 25 l-238 0 -3 253
-3 254 -29 41 c-56 82 -180 115 -271 73z"/>
<path d="M1845 4255 c-141 -31 -222 -82 -401 -257 -72 -70 -144 -133 -160
-139 -19 -8 -128 -15 -304 -19 -262 -6 -278 -8 -342 -32 -97 -36 -171 -84
-242 -154 -72 -73 -117 -145 -154 -246 l-27 -73 -3 -1170 c-3 -1309 -6 -1245
68 -1393 74 -147 211 -264 373 -319 l82 -28 1575 -3 c1767 -3 1662 -7 1820 70
113 55 228 168 283 278 69 141 67 103 67 1022 0 801 -1 830 -19 867 -75 147
-279 159 -376 23 l-30 -44 -5 -811 c-4 -594 -8 -819 -17 -838 -20 -46 -73 -97
-116 -114 -38 -14 -195 -15 -1589 -13 l-1546 3 -43 30 c-26 18 -53 50 -68 80
l-26 49 0 1096 c0 602 3 1111 8 1131 4 20 23 55 43 78 65 75 66 75 374 81 264
6 278 7 348 32 115 41 174 83 328 231 79 75 156 143 171 149 20 9 159 14 484
18 l456 5 41 29 c135 93 117 308 -33 377 -37 17 -73 19 -500 18 -341 0 -476
-4 -520 -14z"/>
<path d="M2120 3181 c-417 -92 -735 -413 -822 -831 -29 -139 -21 -377 16 -505
178 -612 822 -935 1416 -711 518 194 800 764 645 1301 -84 290 -292 534 -567
665 -153 73 -240 92 -433 96 -139 3 -186 0 -255 -15z m348 -427 c240 -49 431
-231 492 -470 37 -144 20 -295 -47 -433 -52 -106 -178 -232 -283 -283 -251
-123 -532 -76 -731 123 -92 91 -148 197 -175 328 -57 285 108 588 379 698 129
53 236 63 365 37z"/>
</g>
</svg>
