<?xml version="1.0" encoding="UTF-8"?>
<!DOCTYPE svg PUBLIC "-//W3C//DTD SVG 1.1//EN" "http://www.w3.org/Graphics/SVG/1.1/DTD/svg11.dtd">
<svg xmlns="http://www.w3.org/2000/svg" version="1.1" width="500px" height="500px" style="shape-rendering:geometricPrecision; text-rendering:geometricPrecision; image-rendering:optimizeQuality; fill-rule:evenodd; clip-rule:evenodd" xmlns:xlink="http://www.w3.org/1999/xlink">
<g><path style="opacity:0.475" fill="#808080" d="M 300.5,5.5 C 283.485,5.30991 266.485,5.64325 249.5,6.5C 259.116,4.9554 268.95,4.28873 279,4.5C 286.341,4.50033 293.508,4.83366 300.5,5.5 Z"/></g>
<g><path style="opacity:0.999" fill="#010101" d="M 300.5,5.5 C 310.529,5.78623 320.195,7.4529 329.5,10.5C 331.905,11.7682 334.572,12.4349 337.5,12.5C 339.515,13.9238 341.848,14.5905 344.5,14.5C 347.785,14.9281 350.785,15.9281 353.5,17.5C 354.78,18.9313 356.447,19.5979 358.5,19.5C 359.78,20.9313 361.447,21.5979 363.5,21.5C 364.492,21.3284 365.158,21.6618 365.5,22.5C 366.78,23.9313 368.447,24.5979 370.5,24.5C 392.9,34.6965 412.9,48.3632 430.5,65.5C 430.427,67.0269 431.094,68.0269 432.5,68.5C 441.262,76.5931 448.929,85.5931 455.5,95.5C 455.427,97.0269 456.094,98.0269 457.5,98.5C 458.906,98.9731 459.573,99.9731 459.5,101.5C 459.427,103.027 460.094,104.027 461.5,104.5C 461.427,106.027 462.094,107.027 463.5,107.5C 464.338,107.842 464.672,108.508 464.5,109.5C 464.427,111.027 465.094,112.027 466.5,112.5C 468.341,114.849 469.674,117.515 470.5,120.5C 470.427,122.027 471.094,123.027 472.5,123.5C 478.385,134.144 482.719,145.477 485.5,157.5C 485.41,160.152 486.076,162.485 487.5,164.5C 496.272,198.559 496.772,232.892 489,267.5C 487.167,275.498 484.667,283.165 481.5,290.5C 480.069,291.78 479.402,293.447 479.5,295.5C 479.598,297.553 478.931,299.22 477.5,300.5C 476.069,301.78 475.402,303.447 475.5,305.5C 468.865,322.113 459.699,337.113 448,350.5C 447.03,352.274 446.196,354.107 445.5,356C 447.32,386.126 448.153,416.293 448,446.5C 443.806,457.852 435.639,463.018 423.5,462C 397.282,452.1 371.282,441.933 345.5,431.5C 343.824,429.166 341.491,428.166 338.5,428.5C 336.213,428.276 334.047,427.609 332,426.5C 308.162,432.436 283.995,434.603 259.5,433C 242.058,447.887 222.058,457.721 199.5,462.5C 197.143,462.337 194.81,462.503 192.5,463C 191.944,463.383 191.611,463.883 191.5,464.5C 169.486,468.673 147.486,468.34 125.5,463.5C 117.483,467.176 109.483,470.842 101.5,474.5C 98.0878,475.042 95.0878,476.375 92.5,478.5C 83.4843,483.675 74.151,488.341 64.5,492.5C 61.8478,492.41 59.5145,493.076 57.5,494.5C 44.5347,495.414 36.7014,489.414 34,476.5C 35.2842,453.185 36.2842,429.852 37,406.5C 8.03644,367.854 -1.46356,324.854 8.5,277.5C 9.92381,275.485 10.5905,273.152 10.5,270.5C 13.8683,257.77 18.8683,245.77 25.5,234.5C 26.9063,234.027 27.573,233.027 27.5,231.5C 33.6068,220.052 41.6068,210.052 51.5,201.5C 55.4356,199.234 58.7689,196.234 61.5,192.5C 63.7525,192.084 65.2525,190.751 66,188.5C 66.4974,185.854 66.6641,183.187 66.5,180.5C 66.9593,174.191 68.2926,168.191 70.5,162.5C 72.2766,159.495 73.2766,156.162 73.5,152.5C 77.9172,137.56 84.2505,123.56 92.5,110.5C 93.9063,110.027 94.573,109.027 94.5,107.5C 102.575,93.3704 112.575,80.7038 124.5,69.5C 126.167,68.5 127.5,67.1667 128.5,65.5C 129.833,63.5 131.5,61.8333 133.5,60.5C 135.749,59.9202 137.415,58.5869 138.5,56.5C 151.27,44.6075 165.604,34.9408 181.5,27.5C 187.175,26.4942 192.175,24.1609 196.5,20.5C 200.708,20.323 204.374,18.9897 207.5,16.5C 208.209,15.596 209.209,15.2627 210.5,15.5C 214.286,15.68 217.619,14.68 220.5,12.5C 223.228,12.8294 225.562,12.1628 227.5,10.5C 227.833,10.5 228.167,10.5 228.5,10.5C 231.781,10.5797 234.781,9.91301 237.5,8.5C 241.267,7.20532 245.267,6.53866 249.5,6.5C 266.485,5.64325 283.485,5.30991 300.5,5.5 Z M 357.5,149.5 C 363.997,151.99 368.997,156.324 372.5,162.5C 372.5,163.167 372.5,163.833 372.5,164.5C 373.833,167.167 373.833,169.833 372.5,172.5C 372.5,173.167 372.5,173.833 372.5,174.5C 372.167,175.167 371.833,175.833 371.5,176.5C 371.5,176.833 371.5,177.167 371.5,177.5C 369.883,180.784 367.55,183.451 364.5,185.5C 363.005,185.989 361.671,186.655 360.5,187.5C 353.533,188.221 346.533,188.721 339.5,189C 307.502,189.5 275.502,189.667 243.5,189.5C 230.982,188.756 218.316,188.089 205.5,187.5C 199.682,184.352 195.682,179.685 193.5,173.5C 193.5,170.5 193.5,167.5 193.5,164.5C 195.162,159.846 197.829,155.846 201.5,152.5C 204.018,151.736 206.351,150.736 208.5,149.5C 258.226,148.171 307.893,148.171 357.5,149.5 Z M 207.5,256.5 C 257.834,256.333 308.168,256.5 358.5,257C 371.818,262.783 375.818,272.283 370.5,285.5C 370.5,285.833 370.5,286.167 370.5,286.5C 369.167,288.5 367.5,290.167 365.5,291.5C 365.167,291.5 364.833,291.5 364.5,291.5C 363.5,291.833 362.833,292.5 362.5,293.5C 361.391,293.557 360.391,293.89 359.5,294.5C 357.901,294.232 356.568,294.566 355.5,295.5C 307.572,296.495 259.572,296.828 211.5,296.5C 211.5,296.167 211.5,295.833 211.5,295.5C 204.689,294.56 199.355,291.226 195.5,285.5C 195.672,284.508 195.338,283.842 194.5,283.5C 194.167,283.5 193.833,283.5 193.5,283.5C 194.075,280.222 193.741,276.889 192.5,273.5C 193.788,271.261 194.788,268.928 195.5,266.5C 198.211,262.788 201.544,259.788 205.5,257.5C 206.492,257.672 207.158,257.338 207.5,256.5 Z"/></g>
<g><path style="opacity:0.42" fill="#7a7a7a" d="M 237.5,8.5 C 234.781,9.91301 231.781,10.5797 228.5,10.5C 231.219,9.08699 234.219,8.42032 237.5,8.5 Z"/></g>
<g><path style="opacity:0.078" fill="#a0a0a0" d="M 329.5,10.5 C 332.495,10.2938 335.162,10.9605 337.5,12.5C 334.572,12.4349 331.905,11.7682 329.5,10.5 Z"/></g>
<g><path style="opacity:0.569" fill="#747474" d="M 227.5,10.5 C 225.562,12.1628 223.228,12.8294 220.5,12.5C 222.599,11.3882 224.933,10.7215 227.5,10.5 Z"/></g>
<g><path style="opacity:0.027" fill="#a3a3a3" d="M 337.5,12.5 C 340.152,12.4095 342.485,13.0762 344.5,14.5C 341.848,14.5905 339.515,13.9238 337.5,12.5 Z"/></g>
<g><path style="opacity:0.678" fill="#606060" d="M 220.5,12.5 C 217.619,14.68 214.286,15.68 210.5,15.5C 213.55,13.8993 216.884,12.8993 220.5,12.5 Z"/></g>
<g><path style="opacity:0.757" fill="#626262" d="M 207.5,16.5 C 204.374,18.9897 200.708,20.323 196.5,20.5C 199.95,18.7922 203.617,17.4588 207.5,16.5 Z"/></g>
<g><path style="opacity:0.165" fill="#8c8c8c" d="M 353.5,17.5 C 355.553,17.4021 357.22,18.0687 358.5,19.5C 356.447,19.5979 354.78,18.9313 353.5,17.5 Z"/></g>
<g><path style="opacity:0.173" fill="#858585" d="M 358.5,19.5 C 360.553,19.4021 362.22,20.0687 363.5,21.5C 361.447,21.5979 359.78,20.9313 358.5,19.5 Z"/></g>
<g><path style="opacity:0.165" fill="#868686" d="M 365.5,22.5 C 367.553,22.4021 369.22,23.0687 370.5,24.5C 368.447,24.5979 366.78,23.9313 365.5,22.5 Z"/></g>
<g><path style="opacity:0.835" fill="#505050" d="M 196.5,20.5 C 192.175,24.1609 187.175,26.4942 181.5,27.5C 186.07,24.3836 191.07,22.0502 196.5,20.5 Z"/></g>
<g><path style="opacity:0.573" fill="#5e5e5e" d="M 138.5,56.5 C 137.415,58.5869 135.749,59.9202 133.5,60.5C 134.585,58.4131 136.251,57.0798 138.5,56.5 Z"/></g>
<g><path style="opacity:0.341" fill="#7d7d7d" d="M 128.5,65.5 C 127.5,67.1667 126.167,68.5 124.5,69.5C 124.833,67.1667 126.167,65.8333 128.5,65.5 Z"/></g>
<g><path style="opacity:0.271" fill="#858585" d="M 430.5,65.5 C 431.906,65.9731 432.573,66.9731 432.5,68.5C 431.094,68.0269 430.427,67.0269 430.5,65.5 Z"/></g>
<g><path style="opacity:0.18" fill="#797979" d="M 455.5,95.5 C 456.906,95.9731 457.573,96.9731 457.5,98.5C 456.094,98.0269 455.427,97.0269 455.5,95.5 Z"/></g>
<g><path style="opacity:0.192" fill="#767676" d="M 459.5,101.5 C 460.906,101.973 461.573,102.973 461.5,104.5C 460.094,104.027 459.427,103.027 459.5,101.5 Z"/></g>
<g><path style="opacity:0.18" fill="#7f7f7f" d="M 461.5,104.5 C 462.906,104.973 463.573,105.973 463.5,107.5C 462.094,107.027 461.427,106.027 461.5,104.5 Z"/></g>
<g><path style="opacity:0.161" fill="#838383" d="M 94.5,107.5 C 94.573,109.027 93.9063,110.027 92.5,110.5C 92.427,108.973 93.0937,107.973 94.5,107.5 Z"/></g>
<g><path style="opacity:0.157" fill="#838383" d="M 464.5,109.5 C 465.906,109.973 466.573,110.973 466.5,112.5C 465.094,112.027 464.427,111.027 464.5,109.5 Z"/></g>
<g><path style="opacity:0.133" fill="#858585" d="M 470.5,120.5 C 471.906,120.973 472.573,121.973 472.5,123.5C 471.094,123.027 470.427,122.027 470.5,120.5 Z"/></g>
<g><path style="opacity:0.427" fill="#919191" d="M 208.5,149.5 C 206.351,150.736 204.018,151.736 201.5,152.5C 202.757,149.039 205.09,148.039 208.5,149.5 Z"/></g>
<g><path style="opacity:0.38" fill="#9b9b9b" d="M 372.5,162.5 C 368.997,156.324 363.997,151.99 357.5,149.5C 363.842,149.447 368.675,152.447 372,158.5C 373.298,159.946 373.465,161.279 372.5,162.5 Z"/></g>
<g><path style="opacity:0.576" fill="#5e5e5e" d="M 73.5,152.5 C 73.2766,156.162 72.2766,159.495 70.5,162.5C 70.7234,158.838 71.7234,155.505 73.5,152.5 Z"/></g>
<g><path style="opacity:0.463" fill="#8b8b8b" d="M 201.5,152.5 C 197.829,155.846 195.162,159.846 193.5,164.5C 192.896,159.039 195.062,154.706 200,151.5C 200.383,152.056 200.883,152.389 201.5,152.5 Z"/></g>
<g><path style="opacity:0.459" fill="#616161" d="M 485.5,157.5 C 486.924,159.515 487.59,161.848 487.5,164.5C 486.076,162.485 485.41,160.152 485.5,157.5 Z"/></g>
<g><path style="opacity:0.322" fill="#adadad" d="M 372.5,164.5 C 373.765,165.514 374.431,167.014 374.5,169C 374.333,170.5 374.167,172 374,173.5C 373.617,172.944 373.117,172.611 372.5,172.5C 373.833,169.833 373.833,167.167 372.5,164.5 Z"/></g>
<g><path style="opacity:0.267" fill="#acacac" d="M 372.5,174.5 C 373.757,175.623 373.424,176.289 371.5,176.5C 371.833,175.833 372.167,175.167 372.5,174.5 Z"/></g>
<g><path style="opacity:0.471" fill="#7f7f7f" d="M 193.5,173.5 C 195.682,179.685 199.682,184.352 205.5,187.5C 201.707,187.683 198.54,186.017 196,182.5C 193.322,179.864 192.489,176.864 193.5,173.5 Z"/></g>
<g><path style="opacity:0.137" fill="#969696" d="M 371.5,177.5 C 372.043,177.56 372.376,177.893 372.5,178.5C 370.902,181.601 368.735,184.268 366,186.5C 365.617,185.944 365.117,185.611 364.5,185.5C 367.55,183.451 369.883,180.784 371.5,177.5 Z"/></g>
<g><path style="opacity:0.129" fill="#9e9e9e" d="M 364.5,185.5 C 364.206,188.481 362.872,189.148 360.5,187.5C 361.671,186.655 363.005,185.989 364.5,185.5 Z"/></g>
<g><path style="opacity:0.694" fill="#454545" d="M 66.5,180.5 C 66.6641,183.187 66.4974,185.854 66,188.5C 65.2525,190.751 63.7525,192.084 61.5,192.5C 64.3508,188.936 66.0175,184.936 66.5,180.5 Z"/></g>
<g><path style="opacity:0.029" fill="#d2d2d2" d="M 205.5,187.5 C 218.316,188.089 230.982,188.756 243.5,189.5C 231.988,189.172 220.654,189.505 209.5,190.5C 208.26,189.341 206.926,188.341 205.5,187.5 Z"/></g>
<g><path style="opacity:0.378" fill="#515151" d="M 360.5,187.5 C 360.423,188.75 359.756,189.583 358.5,190C 308.834,190.5 259.168,190.667 209.5,190.5C 220.654,189.505 231.988,189.172 243.5,189.5C 275.502,189.667 307.502,189.5 339.5,189C 346.533,188.721 353.533,188.221 360.5,187.5 Z"/></g>
<g><path style="opacity:0.714" fill="#393939" d="M 61.5,192.5 C 58.7689,196.234 55.4356,199.234 51.5,201.5C 54.2311,197.766 57.5644,194.766 61.5,192.5 Z"/></g>
<g><path style="opacity:0.157" fill="#777777" d="M 27.5,231.5 C 27.573,233.027 26.9063,234.027 25.5,234.5C 25.427,232.973 26.0937,231.973 27.5,231.5 Z"/></g>
<g><path style="opacity:0.132" fill="#646464" d="M 207.5,256.5 C 257.998,255.335 308.665,255.168 359.5,256C 372.688,261.213 377.188,270.713 373,284.5C 372.329,285.252 371.496,285.586 370.5,285.5C 375.818,272.283 371.818,262.783 358.5,257C 308.168,256.5 257.834,256.333 207.5,256.5 Z"/></g>
<g><path style="opacity:0.243" fill="#979797" d="M 205.5,257.5 C 201.544,259.788 198.211,262.788 195.5,266.5C 195.389,265.883 195.056,265.383 194.5,265C 197.421,261.408 200.921,258.575 205,256.5C 205.399,256.728 205.565,257.062 205.5,257.5 Z"/></g>
<g><path style="opacity:0.408" fill="#737373" d="M 195.5,266.5 C 194.788,268.928 193.788,271.261 192.5,273.5C 193.741,276.889 194.075,280.222 193.5,283.5C 191.021,278.402 190.854,273.068 193,267.5C 193.671,266.748 194.504,266.414 195.5,266.5 Z"/></g>
<g><path style="opacity:0.251" fill="#656565" d="M 10.5,270.5 C 10.5905,273.152 9.92381,275.485 8.5,277.5C 8.40953,274.848 9.07619,272.515 10.5,270.5 Z"/></g>
<g><path style="opacity:0.047" fill="#cacaca" d="M 194.5,283.5 C 195.338,283.842 195.672,284.508 195.5,285.5C 193.302,285.591 192.969,284.925 194.5,283.5 Z"/></g>
<g><path style="opacity:0.188" fill="#ababab" d="M 195.5,285.5 C 199.355,291.226 204.689,294.56 211.5,295.5C 204.103,296.469 198.436,293.635 194.5,287C 195.056,286.617 195.389,286.117 195.5,285.5 Z"/></g>
<g><path style="opacity:0.835" fill="#656565" d="M 370.5,286.5 C 370.938,286.435 371.272,286.601 371.5,287C 370.648,289.362 369.148,291.195 367,292.5C 366.617,291.944 366.117,291.611 365.5,291.5C 367.5,290.167 369.167,288.5 370.5,286.5 Z"/></g>
<g><path style="opacity:0.361" fill="#a8a8a8" d="M 364.5,291.5 C 365.5,293.833 364.833,294.5 362.5,293.5C 362.833,292.5 363.5,291.833 364.5,291.5 Z"/></g>
<g><path style="opacity:0.141" fill="#858585" d="M 481.5,290.5 C 481.598,292.553 480.931,294.22 479.5,295.5C 479.402,293.447 480.069,291.78 481.5,290.5 Z"/></g>
<g><path style="opacity:0.027" fill="#e9e9e9" d="M 355.5,295.5 C 356.568,294.566 357.901,294.232 359.5,294.5C 359.631,295.239 359.464,295.906 359,296.5C 357.989,295.663 356.822,295.33 355.5,295.5 Z"/></g>
<g><path style="opacity:0.082" fill="#d1d1d1" d="M 355.5,295.5 C 331.843,296.833 307.843,297.5 283.5,297.5C 259.331,297.5 235.331,297.167 211.5,296.5C 259.572,296.828 307.572,296.495 355.5,295.5 Z"/></g>
<g><path style="opacity:0.137" fill="#909090" d="M 477.5,300.5 C 477.598,302.553 476.931,304.22 475.5,305.5C 475.402,303.447 476.069,301.78 477.5,300.5 Z"/></g>
<g><path style="opacity:0.682" fill="#505050" d="M 338.5,428.5 C 341.491,428.166 343.824,429.166 345.5,431.5C 342.843,431.065 340.509,430.065 338.5,428.5 Z"/></g>
<g><path style="opacity:0.788" fill="#5b5b5b" d="M 199.5,462.5 C 197.095,463.768 194.428,464.435 191.5,464.5C 191.611,463.883 191.944,463.383 192.5,463C 194.81,462.503 197.143,462.337 199.5,462.5 Z"/></g>
<g><path style="opacity:0.145" fill="#9b9b9b" d="M 101.5,474.5 C 98.9122,476.625 95.9122,477.958 92.5,478.5C 95.0878,476.375 98.0878,475.042 101.5,474.5 Z"/></g>
<g><path style="opacity:0.035" fill="#d2d2d2" d="M 64.5,492.5 C 62.4855,493.924 60.1522,494.59 57.5,494.5C 59.5145,493.076 61.8478,492.41 64.5,492.5 Z"/></g>
</svg>
