<?xml version="1.0" encoding="UTF-8"?>
<!DOCTYPE svg PUBLIC "-//W3C//DTD SVG 1.1//EN" "http://www.w3.org/Graphics/SVG/1.1/DTD/svg11.dtd">
<svg xmlns="http://www.w3.org/2000/svg" version="1.1" width="512px" height="512px" style="shape-rendering:geometricPrecision; text-rendering:geometricPrecision; image-rendering:optimizeQuality; fill-rule:evenodd; clip-rule:evenodd" xmlns:xlink="http://www.w3.org/1999/xlink">
<g><path style="opacity:1" fill="#fefefe" d="M -0.5,-0.5 C 170.167,-0.5 340.833,-0.5 511.5,-0.5C 511.5,170.167 511.5,340.833 511.5,511.5C 340.833,511.5 170.167,511.5 -0.5,511.5C -0.5,340.833 -0.5,170.167 -0.5,-0.5 Z"/></g>
<g><path style="opacity:1" fill="#000000" d="M 270.5,4.5 C 356.932,2.46323 424.432,36.7966 473,107.5C 515.135,179.142 517.468,252.142 480,326.5C 473.324,338.525 465.657,349.858 457,360.5C 457.321,388.671 458.155,416.837 459.5,445C 460.243,464.592 450.91,473.592 431.5,472C 401.833,460.333 372.167,448.667 342.5,437C 331.472,438.136 320.472,439.803 309.5,442C 294.833,442.333 280.167,442.667 265.5,443C 236.201,465.824 202.868,477.658 165.5,478.5C 152.083,477.821 138.75,476.655 125.5,475C 103.516,486.16 81.1828,496.493 58.5,506C 46.9218,506.755 39.4218,501.589 36,490.5C 36.8744,465.508 37.5411,440.508 38,415.5C 2.48033,367.058 -4.51967,314.724 17,258.5C 28.0471,233.05 44.3804,211.717 66,194.5C 83.608,101.119 137.775,40.2856 228.5,12C 242.479,8.60306 256.479,6.10306 270.5,4.5 Z"/></g>
<g><path style="opacity:1" fill="#fafafa" d="M 367.5,153.5 C 369.5,154.167 371.5,154.833 373.5,155.5C 373.5,156.167 373.833,156.5 374.5,156.5C 375.833,158.5 377.5,160.167 379.5,161.5C 381.915,162.982 382.582,164.982 381.5,167.5C 383.457,170.568 383.957,173.901 383,177.5C 382.346,176.304 381.846,176.304 381.5,177.5C 383.022,179.156 382.689,180.323 380.5,181C 380.957,181.414 381.291,181.914 381.5,182.5C 380.66,183.735 379.66,184.735 378.5,185.5C 376.66,187.168 374.66,188.668 372.5,190C 371.262,190.69 371.262,191.19 372.5,191.5C 371.687,192.653 370.687,192.653 369.5,191.5C 369.167,192.167 368.833,192.833 368.5,193.5C 367.833,193.167 367.167,192.833 366.5,192.5C 365.304,192.846 365.304,193.346 366.5,194C 315.5,194.667 264.5,194.667 213.5,194C 213.833,193.667 214.167,193.333 214.5,193C 213.216,192.316 212.049,192.483 211,193.5C 210.667,192.833 210.333,192.167 210,191.5C 209.023,192.774 208.189,192.774 207.5,191.5C 207.938,191.565 208.272,191.399 208.5,191C 206.004,189.334 203.671,187.5 201.5,185.5C 201.5,184.833 201.167,184.5 200.5,184.5C 199.833,182.5 199.167,180.5 198.5,178.5C 195.863,174.907 195.863,171.241 198.5,167.5C 198.167,166.833 197.833,166.167 197.5,165.5C 197.846,164.304 198.346,164.304 199,165.5C 200.205,163.804 200.705,162.137 200.5,160.5C 202.819,159.909 204.819,158.242 206.5,155.5C 207.669,155.728 209.003,155.228 210.5,154C 209.304,153.346 209.304,152.846 210.5,152.5C 211.167,152.833 211.833,153.167 212.5,153.5C 238.187,152.176 264.02,151.509 290,151.5C 316.048,151.509 341.881,152.176 367.5,153.5 Z"/></g>
<g><path style="opacity:1" fill="#8e8e8e" d="M 367.5,153.5 C 369.915,152.352 371.915,153.018 373.5,155.5C 371.5,154.833 369.5,154.167 367.5,153.5 Z"/></g>
<g><path style="opacity:1" fill="#727272" d="M 379.5,161.5 C 377.5,160.167 375.833,158.5 374.5,156.5C 374.435,156.062 374.601,155.728 375,155.5C 377.127,157.114 378.627,159.114 379.5,161.5 Z"/></g>
<g><path style="opacity:1" fill="#575757" d="M 206.5,155.5 C 204.819,158.242 202.819,159.909 200.5,160.5C 201.911,158.086 203.911,156.419 206.5,155.5 Z"/></g>
<g><path style="opacity:1" fill="#8b8b8b" d="M 198.5,178.5 C 199.167,180.5 199.833,182.5 200.5,184.5C 198.018,182.915 197.352,180.915 198.5,178.5 Z"/></g>
<g><path style="opacity:1" fill="#717171" d="M 201.5,185.5 C 203.671,187.5 206.004,189.334 208.5,191C 208.272,191.399 207.938,191.565 207.5,191.5C 204.17,190.18 202.17,188.18 201.5,185.5 Z"/></g>
<g><path style="opacity:1" fill="#959595" d="M 378.5,185.5 C 377.83,188.18 375.83,190.18 372.5,191.5C 371.262,191.19 371.262,190.69 372.5,190C 374.66,188.668 376.66,187.168 378.5,185.5 Z"/></g>
<g><path style="opacity:1" fill="#fdfdfd" d="M 370.5,263.5 C 374.464,266.345 377.964,270.345 381,275.5C 381.399,275.272 381.565,274.938 381.5,274.5C 382.273,276.797 382.939,279.464 383.5,282.5C 383.333,284.167 383.167,285.833 383,287.5C 382.346,286.304 381.846,286.304 381.5,287.5C 381.833,288.167 382.167,288.833 382.5,289.5C 381.833,289.833 381.167,290.167 380.5,290.5C 381.902,291.842 381.569,292.676 379.5,293C 380.345,294.558 379.679,295.558 377.5,296C 378.458,297.147 378.125,298.147 376.5,299C 373.333,301.344 370.167,302.844 367,303.5C 315.233,304.822 263.399,304.822 211.5,303.5C 209.089,302.639 207.089,301.306 205.5,299.5C 203.804,297.475 202.137,295.475 200.5,293.5C 199.398,292.255 198.398,290.922 197.5,289.5C 198.326,288.549 198.492,287.549 198,286.5C 197.667,286.833 197.333,287.167 197,287.5C 196.333,284.167 196.333,280.833 197,277.5C 197.333,277.833 197.667,278.167 198,278.5C 197.669,276.981 197.836,275.648 198.5,274.5C 198.435,274.938 198.601,275.272 199,275.5C 199.883,272.898 201.383,270.731 203.5,269C 203.272,268.601 202.938,268.435 202.5,268.5C 206.303,266.523 209.803,264.189 213,261.5C 264.137,262.832 315.304,262.832 366.5,261.5C 367.192,262.025 367.692,262.692 368,263.5C 368.977,262.226 369.811,262.226 370.5,263.5 Z"/></g>
<g><path style="opacity:1" fill="#5e5e5e" d="M 370.5,263.5 C 375.833,265.5 379.5,269.167 381.5,274.5C 381.565,274.938 381.399,275.272 381,275.5C 377.964,270.345 374.464,266.345 370.5,263.5 Z"/></g>
<g><path style="opacity:1" fill="#575757" d="M 202.5,268.5 C 202.938,268.435 203.272,268.601 203.5,269C 201.383,270.731 199.883,272.898 199,275.5C 198.601,275.272 198.435,274.938 198.5,274.5C 198.845,271.802 200.178,269.802 202.5,268.5 Z"/></g>
<g><path style="opacity:1" fill="#888888" d="M 200.5,293.5 C 202.137,295.475 203.804,297.475 205.5,299.5C 202.068,298.451 200.402,296.451 200.5,293.5 Z"/></g>
</svg>
