<?xml version="1.0" standalone="no"?>
<!DOCTYPE svg PUBLIC "-//W3C//DTD SVG 20010904//EN"
 "http://www.w3.org/TR/2001/REC-SVG-20010904/DTD/svg10.dtd">
<svg version="1.0" xmlns="http://www.w3.org/2000/svg"
 width="512.000000pt" height="512.000000pt" viewBox="0 0 512.000000 512.000000"
 preserveAspectRatio="xMidYMid meet">
<metadata>
Created by potrace 1.16, written by Peter Selinger 2001-2019
</metadata>
<g transform="translate(0.000000,512.000000) scale(0.100000,-0.100000)"
fill="#000000" stroke="none">
<path d="M1685 5104 c-255 -39 -498 -124 -711 -250 -534 -313 -889 -854 -964
-1467 -8 -61 -10 -164 -7 -275 6 -204 17 -261 107 -582 78 -276 90 -337 90
-475 0 -191 -36 -332 -134 -522 -62 -120 -67 -148 -34 -213 19 -37 35 -52 93
-82 317 -170 733 -148 1027 52 l60 41 84 -30 c93 -34 239 -72 354 -93 49 -8
155 -13 310 -13 217 1 245 3 365 28 535 114 988 416 1284 857 476 710 429
1646 -117 2313 -89 108 -275 283 -380 357 -280 198 -556 310 -874 355 -129 18
-431 18 -553 -1z m589 -324 c661 -131 1169 -634 1318 -1306 18 -84 22 -131 22
-314 1 -190 -2 -228 -23 -324 -143 -668 -659 -1171 -1343 -1308 -93 -18 -145
-22 -293 -22 -248 0 -419 34 -634 125 -142 61 -181 56 -291 -35 -114 -95 -243
-145 -397 -153 -88 -5 -208 7 -234 23 -4 2 9 42 28 89 81 202 111 464 79 683
-10 63 -49 225 -91 371 -40 143 -81 308 -91 368 -31 197 -4 468 67 687 42 127
146 333 226 446 87 122 271 306 393 393 217 154 509 265 790 301 90 11 368 -3
474 -24z"/>
<path d="M991 3376 c-135 -49 -195 -217 -125 -347 120 -220 454 -136 456 116
1 145 -102 247 -248 244 -27 0 -64 -6 -83 -13z"/>
<path d="M1865 3372 c-92 -43 -140 -121 -140 -227 1 -101 43 -172 130 -218 57
-30 165 -30 221 0 169 89 179 329 20 428 -63 39 -168 46 -231 17z"/>
<path d="M2745 3366 c-60 -28 -87 -56 -114 -116 -25 -55 -27 -145 -5 -198 19
-46 68 -98 116 -123 115 -59 258 -16 324 98 24 39 28 59 28 117 1 81 -20 129
-76 183 -70 67 -180 83 -273 39z"/>
<path d="M4470 3332 c-22 -12 -43 -35 -59 -65 -37 -74 -26 -115 64 -234 134
-180 225 -367 279 -575 43 -164 51 -234 51 -433 -1 -234 -19 -336 -104 -586
-86 -249 -96 -307 -95 -524 0 -158 4 -194 27 -292 14 -62 41 -151 60 -198 l34
-85 -36 -10 c-20 -6 -74 -13 -121 -17 -164 -11 -346 47 -475 153 -72 59 -120
84 -158 84 -15 0 -77 -20 -138 -45 -318 -132 -645 -163 -980 -95 -257 53 -493
162 -701 326 -84 66 -122 81 -184 71 -98 -16 -153 -128 -108 -223 27 -57 217
-198 395 -293 171 -91 386 -164 599 -203 158 -29 506 -31 655 -4 134 24 272
61 360 95 l72 28 39 -29 c62 -47 231 -125 324 -150 73 -20 109 -23 260 -23
153 0 185 3 254 23 229 66 326 138 326 240 0 16 -24 76 -54 133 -98 188 -136
335 -136 530 0 144 16 226 76 396 94 264 124 436 124 703 0 337 -63 607 -210
900 -66 132 -165 283 -234 357 -51 55 -54 57 -112 60 -44 3 -68 0 -94 -15z"/>
</g>
</svg>
