<?xml version="1.0" encoding="UTF-8"?>
<!DOCTYPE svg PUBLIC "-//W3C//DTD SVG 1.1//EN" "http://www.w3.org/Graphics/SVG/1.1/DTD/svg11.dtd">
<svg xmlns="http://www.w3.org/2000/svg" version="1.1" width="512px" height="512px" style="shape-rendering:geometricPrecision; text-rendering:geometricPrecision; image-rendering:optimizeQuality; fill-rule:evenodd; clip-rule:evenodd" xmlns:xlink="http://www.w3.org/1999/xlink">
<g><path style="opacity:0.974" fill="#000000" d="M 267.5,4.5 C 356.75,0.706393 425.917,35.7064 475,109.5C 511.753,173.845 516.42,240.511 489,309.5C 480.595,328.662 469.929,346.329 457,362.5C 457.571,389.49 458.404,416.49 459.5,443.5C 461.248,465.588 451.248,475.088 429.5,472C 399.57,460.358 369.737,448.525 340,436.5C 316.218,442.961 292.051,444.961 267.5,442.5C 226.451,474.635 180.284,485.301 129,474.5C 108.439,484.197 87.9391,494.03 67.5,504C 57.5374,508.243 48.3708,507.077 40,500.5C 37.5224,497.211 35.8558,493.544 35,489.5C 35.9585,465.164 36.9585,440.831 38,416.5C 1.31194,366.328 -5.35473,312.328 18,254.5C 29.167,230.336 45.167,210.003 66,193.5C 77.722,122.83 114.222,69.3298 175.5,33C 204.381,17.3147 235.048,7.81469 267.5,4.5 Z M 265.5,48.5 C 339.739,44.3698 397.239,73.0365 438,134.5C 466.551,185.376 470.218,238.042 449,292.5C 441.159,310.202 430.825,326.202 418,340.5C 414.476,345.59 412.642,351.257 412.5,357.5C 413.784,378.152 414.284,398.818 414,419.5C 391.061,409.743 367.894,400.576 344.5,392C 329.599,394.578 314.599,396.911 299.5,399C 232.935,401.795 179.435,376.962 139,324.5C 97.9015,261.461 95.9015,197.127 133,131.5C 164.474,83.6744 208.64,56.0078 265.5,48.5 Z M 65.5,256.5 C 82.4091,338.152 129.076,395.652 205.5,429C 181.054,437.982 156.387,438.648 131.5,431C 128.167,430.333 124.833,430.333 121.5,431C 108.047,436.893 94.7135,443.06 81.5,449.5C 81.1667,448.167 80.8333,446.833 80.5,445.5C 81.3239,435.013 81.9906,424.513 82.5,414C 82.5062,409.764 82.0062,405.598 81,401.5C 42.0836,356.798 36.917,308.465 65.5,256.5 Z"/></g>
<g><path style="opacity:0.966" fill="#000000" d="M 213.5,151.5 C 264.501,151.333 315.501,151.5 366.5,152C 378.909,155.976 384.409,164.476 383,177.5C 380.833,186.333 375.333,191.833 366.5,194C 315.5,194.667 264.5,194.667 213.5,194C 197.14,187.784 192.64,176.617 200,160.5C 203.871,156.331 208.371,153.331 213.5,151.5 Z"/></g>
<g><path style="opacity:0.967" fill="#000000" d="M 212.5,261.5 C 264.168,261.333 315.834,261.5 367.5,262C 379.687,266.204 384.854,274.704 383,287.5C 380.381,297.563 373.881,303.063 363.5,304C 314.5,304.667 265.5,304.667 216.5,304C 203.82,302.485 197.153,295.318 196.5,282.5C 197.338,272.004 202.672,265.004 212.5,261.5 Z"/></g>
</svg>
