<?xml version="1.0" standalone="no"?>
<!DOCTYPE svg PUBLIC "-//W3C//DTD SVG 20010904//EN"
 "http://www.w3.org/TR/2001/REC-SVG-20010904/DTD/svg10.dtd">
<svg version="1.0" xmlns="http://www.w3.org/2000/svg"
 width="512.000000pt" height="512.000000pt" viewBox="0 0 512.000000 512.000000"
 preserveAspectRatio="xMidYMid meet">
<metadata>
Created by potrace 1.16, written by Peter Selinger 2001-2019
</metadata>
<g transform="translate(0.000000,512.000000) scale(0.100000,-0.100000)"
fill="#000000" stroke="none">
<path d="M2277 4895 c-500 -61 -981 -289 -1341 -636 -138 -133 -225 -235 -330
-392 -193 -286 -324 -630 -378 -992 -20 -139 -17 -523 5 -660 70 -424 233
-800 484 -1118 73 -93 287 -307 380 -380 317 -250 698 -415 1118 -484 155 -25
535 -25 690 0 507 83 934 294 1288 636 401 388 652 907 708 1466 14 146 7 439
-16 580 -139 877 -750 1601 -1583 1875 -158 52 -347 93 -504 110 -129 13 -387
11 -521 -5z m548 -441 c711 -96 1320 -601 1549 -1286 65 -194 87 -327 93 -553
4 -156 2 -225 -11 -315 -88 -610 -451 -1131 -996 -1428 -175 -95 -422 -176
-634 -207 -142 -21 -390 -21 -532 0 -545 79 -1021 379 -1327 837 -156 234
-260 506 -302 789 -20 138 -20 400 0 538 118 806 722 1445 1521 1606 219 45
407 50 639 19z"/>
<path d="M2498 4051 c-53 -17 -98 -53 -126 -99 l-27 -47 0 -705 c0 -668 1
-707 19 -740 30 -57 694 -716 741 -736 21 -9 65 -16 96 -16 120 0 209 87 212
206 2 102 -2 107 -329 436 l-303 305 -3 625 -3 625 -28 47 c-35 60 -97 98
-169 103 -29 3 -65 0 -80 -4z"/>
</g>
</svg>
