<?xml version="1.0" standalone="no"?>
<!DOCTYPE svg PUBLIC "-//W3C//DTD SVG 20010904//EN"
 "http://www.w3.org/TR/2001/REC-SVG-20010904/DTD/svg10.dtd">
<svg version="1.0" xmlns="http://www.w3.org/2000/svg"
 width="512.000000pt" height="512.000000pt" viewBox="0 0 512.000000 512.000000"
 preserveAspectRatio="xMidYMid meet">
<metadata>
Created by potrace 1.16, written by Peter Selinger 2001-2019
</metadata>
<g transform="translate(0.000000,512.000000) scale(0.100000,-0.100000)"
fill="#000000" stroke="none">
<path d="M235 5107 c-64 -21 -97 -42 -142 -88 -71 -71 -88 -117 -88 -234 0
-85 4 -108 24 -150 19 -40 223 -250 1037 -1065 l1014 -1015 -1010 -1010
c-1131 -1131 -1062 -1053 -1068 -1207 -4 -77 -1 -93 23 -147 31 -69 102 -142
168 -171 32 -15 65 -20 137 -20 166 0 72 -82 1218 1063 l1012 1012 1013 -1012
c1145 -1145 1051 -1063 1217 -1063 72 0 105 5 137 20 66 29 137 102 168 171
24 54 27 70 23 147 -6 154 63 76 -1068 1207 l-1010 1010 1014 1015 c814 815
1018 1025 1037 1065 20 42 24 65 24 150 0 83 -4 108 -22 145 -31 63 -98 128
-163 159 -47 22 -68 26 -145 26 -74 0 -99 -5 -140 -24 -40 -19 -249 -222
-1067 -1040 l-1018 -1016 -1017 1016 c-835 833 -1027 1020 -1068 1039 -61 28
-180 36 -240 17z"/>
</g>
</svg>
