<?xml version="1.0" standalone="no"?>
<!DOCTYPE svg PUBLIC "-//W3C//DTD SVG 20010904//EN"
 "http://www.w3.org/TR/2001/REC-SVG-20010904/DTD/svg10.dtd">
<svg version="1.0" xmlns="http://www.w3.org/2000/svg"
 width="356.000000pt" height="340.000000pt" viewBox="0 0 356.000000 340.000000"
 preserveAspectRatio="xMidYMid meet">
<metadata>
Created by potrace 1.16, written by Peter Selinger 2001-2019
</metadata>
<g transform="translate(0.000000,340.000000) scale(0.100000,-0.100000)"
fill="#000000" stroke="none">
<path d="M2971 3049 c-43 -8 -124 -50 -137 -70 -4 -7 71 -89 177 -195 176
-177 184 -183 202 -166 32 29 59 93 64 152 10 110 -44 208 -140 253 -63 31
-108 37 -166 26z"/>
<path d="M865 2880 c-99 -15 -165 -48 -236 -119 -66 -67 -101 -126 -119 -203
-13 -58 -13 -1788 0 -1846 16 -67 48 -128 98 -183 53 -59 93 -86 177 -120 l60
-24 854 -3 c508 -2 881 1 922 7 151 21 264 102 331 238 l43 86 3 699 c1 384
-1 698 -5 698 -5 0 -63 -55 -131 -123 l-122 -122 0 -540 c0 -504 -2 -543 -19
-581 -22 -48 -60 -80 -112 -94 -25 -7 -328 -10 -881 -8 l-843 3 -42 24 c-29
16 -50 39 -63 66 -20 40 -20 62 -20 900 0 838 0 860 20 900 13 27 34 49 60 64
l40 22 657 0 656 -1 129 127 c70 70 128 131 128 135 0 10 -1518 8 -1585 -2z"/>
<path d="M2139 2283 l-577 -578 -55 -219 c-59 -231 -60 -256 -14 -256 12 -1
115 23 229 52 l208 53 582 582 583 583 -180 180 c-99 99 -184 180 -190 180 -6
0 -269 -260 -586 -577z"/>
</g>
</svg>
