<?xml version="1.0" standalone="no"?>
<!DOCTYPE svg PUBLIC "-//W3C//DTD SVG 20010904//EN"
 "http://www.w3.org/TR/2001/REC-SVG-20010904/DTD/svg10.dtd">
<svg version="1.0" xmlns="http://www.w3.org/2000/svg"
 width="512.000000pt" height="512.000000pt" viewBox="0 0 512.000000 512.000000"
 preserveAspectRatio="xMidYMid meet">
<metadata>
Created by potrace 1.16, written by Peter Selinger 2001-2019
</metadata>
<g transform="translate(0.000000,512.000000) scale(0.100000,-0.100000)"
fill="#000000" stroke="none">
<path d="M2385 5102 c-224 -67 -392 -239 -449 -459 -21 -80 -21 -246 0 -327
57 -220 248 -410 465 -461 82 -19 236 -19 317 0 222 52 408 237 466 462 21 80
21 246 0 327 -22 84 -85 202 -144 269 -64 71 -171 142 -263 175 -96 35 -298
42 -392 14z"/>
<path d="M2385 3182 c-224 -67 -392 -239 -449 -459 -21 -80 -21 -246 0 -327
57 -220 248 -410 465 -461 82 -19 236 -19 317 0 222 52 408 237 466 462 21 80
21 246 0 327 -22 84 -85 202 -144 269 -64 71 -171 142 -263 175 -96 35 -298
42 -392 14z"/>
<path d="M2385 1262 c-224 -67 -392 -239 -449 -459 -21 -80 -21 -246 0 -327
57 -220 248 -410 465 -461 82 -19 236 -19 317 0 222 52 408 237 466 462 21 80
21 246 0 327 -22 84 -85 202 -144 269 -64 71 -171 142 -263 175 -96 35 -298
42 -392 14z"/>
</g>
</svg>
