<?xml version="1.0" standalone="no"?>
<!DOCTYPE svg PUBLIC "-//W3C//DTD SVG 20010904//EN"
 "http://www.w3.org/TR/2001/REC-SVG-20010904/DTD/svg10.dtd">
<svg version="1.0" xmlns="http://www.w3.org/2000/svg"
 width="512.000000pt" height="512.000000pt" viewBox="0 0 512.000000 512.000000"
 preserveAspectRatio="xMidYMid meet">
<metadata>
Created by potrace 1.16, written by Peter Selinger 2001-2019
</metadata>
<g transform="translate(0.000000,512.000000) scale(0.100000,-0.100000)"
fill="#000000" stroke="none">
<path d="M2301 5105 c-548 -86 -1021 -431 -1265 -922 -123 -247 -176 -479
-176 -765 1 -295 59 -535 191 -788 244 -465 673 -782 1192 -882 l117 -23 0
-277 0 -278 -214 0 c-133 0 -226 -4 -247 -11 -87 -29 -140 -103 -140 -193 0
-90 38 -151 116 -187 35 -16 67 -19 263 -19 l222 0 0 -307 c0 -292 1 -309 21
-351 13 -26 38 -54 62 -70 35 -23 51 -27 117 -27 66 0 82 4 117 27 24 16 49
44 62 70 20 42 21 59 21 351 l0 307 223 0 c245 0 273 6 329 66 76 82 64 232
-24 297 -57 42 -89 47 -314 47 l-214 0 0 278 0 277 117 23 c721 139 1256 696
1369 1427 18 120 18 370 -1 497 -112 745 -688 1321 -1433 1433 -124 18 -391
18 -511 0z m549 -424 c377 -96 674 -323 850 -654 56 -105 90 -194 122 -322 20
-78 23 -115 23 -285 0 -210 -11 -279 -71 -445 -106 -296 -353 -570 -642 -714
-292 -146 -664 -171 -979 -66 -431 144 -740 484 -855 940 -20 78 -23 115 -23
285 0 170 3 207 23 285 97 383 322 677 655 855 130 70 257 111 437 144 14 2
104 3 200 1 138 -2 193 -8 260 -24z"/>
</g>
</svg>
