<?xml version="1.0" standalone="no"?>
<!DOCTYPE svg PUBLIC "-//W3C//DTD SVG 20010904//EN"
 "http://www.w3.org/TR/2001/REC-SVG-20010904/DTD/svg10.dtd">
<svg version="1.0" xmlns="http://www.w3.org/2000/svg"
 width="512.000000pt" height="512.000000pt" viewBox="0 0 512.000000 512.000000"
 preserveAspectRatio="xMidYMid meet">
<metadata>
Created by potrace 1.16, written by Peter Selinger 2001-2019
</metadata>
<g transform="translate(0.000000,512.000000) scale(0.100000,-0.100000)"
fill="#000000" stroke="none">
<path d="M3138 5105 c-238 -58 -444 -250 -524 -488 l-26 -77 -1235 0 c-1376 0
-1278 5 -1329 -69 -18 -27 -24 -49 -24 -89 0 -64 18 -102 67 -139 l36 -28
1245 -5 1244 -5 17 -55 c71 -229 263 -418 501 -492 64 -20 96 -23 220 -23 136
0 150 2 233 32 124 44 190 86 287 183 96 96 150 181 183 287 l22 72 482 3
c471 3 482 3 510 24 97 72 100 216 5 280 -25 18 -61 19 -511 24 l-483 5 -23
65 c-84 247 -284 435 -526 494 -81 20 -290 20 -371 1z m264 -316 c129 -28 240
-115 299 -235 42 -85 52 -209 24 -295 -83 -259 -382 -377 -611 -243 -53 31
-136 119 -164 173 -122 239 18 532 285 597 65 16 102 17 167 3z"/>
<path d="M1650 3296 c-149 -32 -273 -99 -380 -205 -89 -89 -142 -172 -181
-285 l-28 -81 -484 -5 c-444 -5 -485 -6 -510 -23 -91 -59 -91 -215 0 -274 25
-17 66 -18 511 -23 l484 -5 17 -55 c61 -197 199 -358 386 -450 119 -59 189
-75 335 -75 145 0 222 20 352 87 169 87 318 273 367 456 l12 42 1242 0 c1222
0 1243 0 1275 20 48 30 72 75 72 140 0 65 -24 110 -72 140 -32 20 -53 20
-1275 20 l-1242 0 -12 43 c-15 58 -72 178 -105 224 -104 143 -249 247 -412
294 -88 26 -264 33 -352 15z m259 -335 c83 -26 141 -62 194 -121 148 -164 148
-396 0 -560 -53 -59 -111 -95 -194 -121 -192 -60 -400 38 -493 231 -29 60 -31
73 -31 170 0 97 2 110 31 170 93 194 300 291 493 231z"/>
<path d="M3165 1476 c-267 -63 -478 -255 -556 -506 l-17 -55 -1245 -5 c-1244
-5 -1246 -5 -1274 -26 -104 -77 -98 -236 10 -288 32 -15 145 -16 1270 -16
l1235 0 26 -78 c80 -239 287 -430 529 -487 85 -20 282 -20 366 1 244 59 460
265 531 504 l16 55 485 5 c450 5 486 6 511 24 95 64 92 208 -5 280 -28 21 -39
21 -510 24 l-482 3 -22 72 c-33 107 -87 191 -183 287 -99 98 -165 140 -287
183 -76 26 -105 31 -213 33 -83 3 -145 -1 -185 -10z m327 -353 c113 -53 195
-146 233 -262 13 -39 16 -76 13 -141 -3 -74 -9 -98 -38 -156 -61 -124 -174
-210 -313 -235 -124 -23 -261 23 -357 120 -160 161 -165 409 -13 572 95 102
188 141 323 136 71 -2 97 -8 152 -34z"/>
</g>
</svg>
