<?xml version="1.0" standalone="no"?>
<!DOCTYPE svg PUBLIC "-//W3C//DTD SVG 20010904//EN"
 "http://www.w3.org/TR/2001/REC-SVG-20010904/DTD/svg10.dtd">
<svg version="1.0" xmlns="http://www.w3.org/2000/svg"
 width="512.000000pt" height="512.000000pt" viewBox="0 0 512.000000 512.000000"
 preserveAspectRatio="xMidYMid meet">
<metadata>
Created by potrace 1.16, written by Peter Selinger 2001-2019
</metadata>
<g transform="translate(0.000000,512.000000) scale(0.100000,-0.100000)"
fill="#000000" stroke="none">
<path d="M1023 4770 c-108 -22 -194 -107 -217 -215 -6 -29 -66 -533 -66 -555
0 -7 517 -10 1683 -10 1853 0 1731 4 1867 -62 91 -44 205 -159 254 -255 69
-138 66 -65 66 -1441 l0 -1243 32 17 c58 29 97 64 123 109 25 42 33 103 191
1462 112 967 164 1442 162 1493 -3 47 -11 89 -22 113 -29 58 -99 123 -153 141
-38 12 -3839 459 -3870 455 -4 -1 -27 -5 -50 -9z"/>
<path d="M177 3714 c-65 -20 -128 -84 -156 -158 l-21 -57 2 -1020 3 -1019 435
317 c482 351 540 390 620 421 180 69 375 47 536 -60 38 -26 245 -200 459 -388
452 -395 467 -405 605 -405 79 0 92 3 161 37 40 21 400 228 799 461 l725 423
3 569 c1 347 -2 591 -8 623 -20 110 -89 200 -188 245 l-47 22 -1940 2 c-1694
1 -1946 0 -1988 -13z m2563 -449 c202 -54 367 -224 415 -428 30 -129 16 -244
-47 -375 -143 -301 -519 -413 -806 -240 -147 89 -250 248 -272 421 -35 277
150 548 423 622 69 18 218 18 287 0z"/>
<path d="M2503 3002 c-74 -27 -119 -60 -157 -117 -84 -125 -71 -277 31 -386
110 -117 300 -125 428 -16 97 81 125 249 63 373 -63 127 -231 194 -365 146z"/>
<path d="M1200 1973 c-56 -9 -153 -75 -665 -452 l-535 -394 0 -296 0 -297 27
-55 c34 -66 94 -113 163 -128 72 -15 3822 -15 3906 0 77 14 148 53 188 104 64
81 61 35 64 799 3 668 2 698 -15 692 -10 -4 -325 -185 -701 -402 -375 -217
-702 -404 -726 -414 -82 -37 -174 -52 -276 -47 -112 6 -199 31 -289 84 -36 22
-236 189 -460 387 -218 192 -413 359 -434 372 -65 42 -163 60 -247 47z"/>
</g>
</svg>
