<?xml version="1.0" standalone="no"?>
<!DOCTYPE svg PUBLIC "-//W3C//DTD SVG 20010904//EN"
 "http://www.w3.org/TR/2001/REC-SVG-20010904/DTD/svg10.dtd">
<svg version="1.0" xmlns="http://www.w3.org/2000/svg"
 width="512.000000pt" height="512.000000pt" viewBox="0 0 512.000000 512.000000"
 preserveAspectRatio="xMidYMid meet">
<metadata>
Created by potrace 1.16, written by Peter Selinger 2001-2019
</metadata>
<g transform="translate(0.000000,512.000000) scale(0.100000,-0.100000)"
fill="#000000" stroke="none">
<path d="M1512 4620 c-18 -11 -41 -34 -52 -52 -20 -33 -20 -55 -20 -2060 l0
-2028 1325 0 c1316 0 1326 0 1388 21 79 26 143 67 199 127 56 61 81 103 107
179 21 62 21 64 21 1895 0 1811 0 1833 -20 1866 -11 18 -34 41 -52 52 -33 20
-54 20 -1448 20 -1394 0 -1415 0 -1448 -20z m2238 -966 c51 -30 80 -78 80
-134 0 -56 -29 -104 -80 -134 -34 -21 -46 -21 -790 -21 -744 0 -756 0 -790 21
-126 73 -99 250 43 284 17 5 363 8 767 7 722 -2 736 -2 770 -23z m0 -640 c51
-30 80 -78 80 -134 0 -56 -29 -104 -80 -134 -34 -21 -46 -21 -790 -21 -744 0
-756 0 -790 21 -126 73 -99 250 43 284 17 5 363 8 767 7 722 -2 736 -2 770
-23z m0 -640 c51 -30 80 -78 80 -134 0 -56 -29 -104 -80 -134 -34 -21 -46 -21
-790 -21 -744 0 -756 0 -790 21 -126 73 -99 250 43 284 17 5 363 8 767 7 722
-2 736 -2 770 -23z m0 -640 c51 -30 80 -78 80 -134 0 -56 -29 -104 -80 -134
-34 -21 -46 -21 -790 -21 -744 0 -756 0 -790 21 -126 73 -99 250 43 284 17 5
363 8 767 7 722 -2 736 -2 770 -23z"/>
<path d="M775 3981 c-22 -10 -54 -34 -72 -52 -68 -72 -63 41 -63 -1549 l0
-1441 25 -76 c66 -194 221 -332 428 -377 l27 -6 0 1760 0 1760 -152 0 c-128 0
-160 -4 -193 -19z"/>
</g>
</svg>
