<?xml version="1.0" encoding="UTF-8"?>
<!DOCTYPE svg PUBLIC "-//W3C//DTD SVG 1.1//EN" "http://www.w3.org/Graphics/SVG/1.1/DTD/svg11.dtd">
<svg xmlns="http://www.w3.org/2000/svg" version="1.1" width="512px" height="512px" style="shape-rendering:geometricPrecision; text-rendering:geometricPrecision; image-rendering:optimizeQuality; fill-rule:evenodd; clip-rule:evenodd" xmlns:xlink="http://www.w3.org/1999/xlink">
<g><path style="opacity:0.979" fill="#000000" d="M 251.5,4.5 C 259.376,3.95931 266.376,6.12597 272.5,11C 342.887,62.3873 413.554,113.387 484.5,164C 496.764,174.026 504.264,186.86 507,202.5C 507.667,298.167 507.667,393.833 507,489.5C 504.649,496.519 500.149,501.686 493.5,505C 434.558,506.655 375.558,506.988 316.5,506C 306.79,503.621 301.29,497.455 300,487.5C 299.976,448.787 299.309,410.12 298,371.5C 288.112,345.3 269.278,334.8 241.5,340C 224.482,345.527 213.982,357.027 210,374.5C 209.667,411.833 209.333,449.167 209,486.5C 207.587,496.512 202.087,503.012 192.5,506C 135.167,506.667 77.8333,506.667 20.5,506C 13.8193,503.987 8.98601,499.82 6,493.5C 4.34048,396.556 4.00714,299.556 5,202.5C 7.73556,186.86 15.2356,174.026 27.5,164C 99.3433,112.578 171.01,60.9117 242.5,9C 245.437,7.19914 248.437,5.69914 251.5,4.5 Z M 254.5,52.5 C 323.894,101.625 392.728,151.625 461,202.5C 462.75,205.246 463.75,208.246 464,211.5C 464.5,295.833 464.667,380.166 464.5,464.5C 424.167,464.5 383.833,464.5 343.5,464.5C 343.667,434.498 343.5,404.498 343,374.5C 338.938,344.188 323.771,321.355 297.5,306C 261.824,289.147 228.49,292.813 197.5,317C 180.4,332.365 170.567,351.532 168,374.5C 167.5,404.165 167.333,433.831 167.5,463.5C 127.167,463.5 86.8333,463.5 46.5,463.5C 46.3333,379.166 46.5,294.833 47,210.5C 48.0576,203.102 51.8909,197.602 58.5,194C 124.294,147.357 189.627,100.191 254.5,52.5 Z"/></g>
</svg>
