<?xml version="1.0" encoding="UTF-8"?>
<!DOCTYPE svg PUBLIC "-//W3C//DTD SVG 1.1//EN" "http://www.w3.org/Graphics/SVG/1.1/DTD/svg11.dtd">
<svg xmlns="http://www.w3.org/2000/svg" version="1.1" width="512px" height="512px" style="shape-rendering:geometricPrecision; text-rendering:geometricPrecision; image-rendering:optimizeQuality; fill-rule:evenodd; clip-rule:evenodd" xmlns:xlink="http://www.w3.org/1999/xlink">
<g><path style="opacity:1" fill="#fefefe" d="M -0.5,-0.5 C 170.167,-0.5 340.833,-0.5 511.5,-0.5C 511.5,170.167 511.5,340.833 511.5,511.5C 340.833,511.5 170.167,511.5 -0.5,511.5C -0.5,340.833 -0.5,170.167 -0.5,-0.5 Z"/></g>
<g><path style="opacity:1" fill="#000000" d="M 249.5,5.5 C 256.255,4.66813 262.589,5.8348 268.5,9C 337.833,59 407.167,109 476.5,159C 492.988,169.49 503.155,184.324 507,203.5C 507.667,298.5 507.667,393.5 507,488.5C 504.664,496.682 499.497,502.182 491.5,505C 433.545,506.651 375.545,506.984 317.5,506C 308.64,503.807 303.14,498.307 301,489.5C 300.667,451.833 300.333,414.167 300,376.5C 292,347.074 272.833,334.574 242.5,339C 225.667,343.833 214.833,354.667 210,371.5C 208.69,410.787 208.024,450.12 208,489.5C 205.833,498.333 200.333,503.833 191.5,506C 134.833,506.667 78.1667,506.667 21.5,506C 14.0908,503.592 8.92413,498.758 6,491.5C 4.34291,395.877 4.00958,300.21 5,204.5C 8.10572,186.734 16.9391,172.568 31.5,162C 104.348,109.97 177.014,57.8035 249.5,5.5 Z"/></g>
</svg>
