<?xml version="1.0" encoding="UTF-8"?>
<!DOCTYPE svg PUBLIC "-//W3C//DTD SVG 1.1//EN" "http://www.w3.org/Graphics/SVG/1.1/DTD/svg11.dtd">
<svg xmlns="http://www.w3.org/2000/svg" version="1.1" width="500px" height="500px" style="shape-rendering:geometricPrecision; text-rendering:geometricPrecision; image-rendering:optimizeQuality; fill-rule:evenodd; clip-rule:evenodd" xmlns:xlink="http://www.w3.org/1999/xlink">
<g><path style="opacity:0.999" fill="#010101" d="M 274.5,17.5 C 275.035,19.4456 276.368,20.4456 278.5,20.5C 285.802,25.1442 292.802,30.1442 299.5,35.5C 300.035,37.4456 301.368,38.4456 303.5,38.5C 304.71,38.9321 305.71,39.5987 306.5,40.5C 307.035,42.4456 308.368,43.4456 310.5,43.5C 312.23,44.0256 313.564,45.0256 314.5,46.5C 314.973,47.9063 315.973,48.573 317.5,48.5C 318.035,50.4456 319.368,51.4456 321.5,51.5C 322.71,51.9321 323.71,52.5987 324.5,53.5C 325.035,55.4456 326.368,56.4456 328.5,56.5C 329.035,58.4456 330.368,59.4456 332.5,59.5C 332.973,60.9063 333.973,61.573 335.5,61.5C 336.035,63.4456 337.368,64.4456 339.5,64.5C 348.371,69.7675 356.705,75.7675 364.5,82.5C 364.973,83.9063 365.973,84.573 367.5,84.5C 369.23,85.0256 370.564,86.0256 371.5,87.5C 371.973,88.9063 372.973,89.573 374.5,89.5C 375.167,89.5 375.5,89.8333 375.5,90.5C 375.973,91.9063 376.973,92.573 378.5,92.5C 379.035,94.4456 380.368,95.4456 382.5,95.5C 382.973,96.9063 383.973,97.573 385.5,97.5C 386.035,99.4456 387.368,100.446 389.5,100.5C 393.221,102.354 396.554,104.687 399.5,107.5C 400.035,109.446 401.368,110.446 403.5,110.5C 404.035,112.446 405.368,113.446 407.5,113.5C 408.71,113.932 409.71,114.599 410.5,115.5C 411.035,117.446 412.368,118.446 414.5,118.5C 417.135,119.811 419.469,121.478 421.5,123.5C 421.973,124.906 422.973,125.573 424.5,125.5C 427.473,127.147 430.14,129.147 432.5,131.5C 432.973,132.906 433.973,133.573 435.5,133.5C 436.035,135.446 437.368,136.446 439.5,136.5C 440.035,138.446 441.368,139.446 443.5,139.5C 444.035,141.446 445.368,142.446 447.5,142.5C 449.777,143.449 451.777,144.782 453.5,146.5C 454.035,148.446 455.368,149.446 457.5,149.5C 464.563,154.025 471.229,159.025 477.5,164.5C 477.738,166.404 478.738,167.738 480.5,168.5C 486.805,174.101 490.805,181.101 492.5,189.5C 492.41,192.152 493.076,194.485 494.5,196.5C 495.172,287.778 495.838,379.111 496.5,470.5C 495.831,482.023 490.164,489.856 479.5,494C 422.5,494.667 365.5,494.667 308.5,494C 299.357,491.188 294.19,485.022 293,475.5C 292.667,439.167 292.333,402.833 292,366.5C 289.559,355.903 284.393,346.903 276.5,339.5C 276.027,338.094 275.027,337.427 273.5,337.5C 273.027,336.094 272.027,335.427 270.5,335.5C 267.828,334.499 265.162,333.499 262.5,332.5C 260.562,330.837 258.228,330.171 255.5,330.5C 251.167,330.5 246.833,330.5 242.5,330.5C 239.171,330.215 236.171,330.882 233.5,332.5C 219.68,338.32 210.346,348.32 205.5,362.5C 204.71,363.609 204.21,364.942 204,366.5C 203.5,403.165 203.333,439.832 203.5,476.5C 202.369,485.629 197.369,491.295 188.5,493.5C 131.144,493.817 73.8105,493.484 16.5,492.5C 14.7697,491.974 13.4363,490.974 12.5,489.5C 12.0269,488.094 11.0269,487.427 9.5,487.5C 7.23843,485.315 5.73843,482.648 5,479.5C 4.1694,385.097 4.33607,290.763 5.5,196.5C 7.03954,194.162 7.70621,191.495 7.5,188.5C 9.38913,181.044 13.0558,174.711 18.5,169.5C 21.1667,167.5 23.5,165.167 25.5,162.5C 28.9289,158.738 32.9289,155.738 37.5,153.5C 39.4044,153.262 40.7377,152.262 41.5,150.5C 43.4044,150.262 44.7377,149.262 45.5,147.5C 47.0269,147.573 48.0269,146.906 48.5,145.5C 50.4044,145.262 51.7377,144.262 52.5,142.5C 54.4044,142.262 55.7377,141.262 56.5,139.5C 58.0269,139.573 59.0269,138.906 59.5,137.5C 61.4044,137.262 62.7377,136.262 63.5,134.5C 65.4044,134.262 66.7377,133.262 67.5,131.5C 69.0269,131.573 70.0269,130.906 70.5,129.5C 72.4044,129.262 73.7377,128.262 74.5,126.5C 76.4044,126.262 77.7377,125.262 78.5,123.5C 78.8417,122.662 79.5084,122.328 80.5,122.5C 82.4044,122.262 83.7377,121.262 84.5,119.5C 86.5496,117.453 88.883,115.786 91.5,114.5C 93.4044,114.262 94.7377,113.262 95.5,111.5C 97.4044,111.262 98.7377,110.262 99.5,108.5C 101.027,108.573 102.027,107.906 102.5,106.5C 104.404,106.262 105.738,105.262 106.5,103.5C 108.404,103.262 109.738,102.262 110.5,100.5C 112.027,100.573 113.027,99.9063 113.5,98.5C 115.404,98.2624 116.738,97.2624 117.5,95.5C 119.027,95.573 120.027,94.9063 120.5,93.5C 122.404,93.2624 123.738,92.2624 124.5,90.5C 126.404,90.2624 127.738,89.2624 128.5,87.5C 130.404,87.2624 131.738,86.2624 132.5,84.5C 134.027,84.573 135.027,83.9063 135.5,82.5C 137.027,82.573 138.027,81.9063 138.5,80.5C 140.404,80.2624 141.738,79.2624 142.5,77.5C 144.027,77.573 145.027,76.9063 145.5,75.5C 147.404,75.2624 148.738,74.2624 149.5,72.5C 151.027,72.573 152.027,71.9063 152.5,70.5C 154.404,70.2624 155.738,69.2624 156.5,67.5C 158.404,67.2624 159.738,66.2624 160.5,64.5C 162.027,64.573 163.027,63.9063 163.5,62.5C 165.027,62.573 166.027,61.9063 166.5,60.5C 168.404,60.2624 169.738,59.2624 170.5,57.5C 172.404,57.2624 173.738,56.2624 174.5,54.5C 176.404,54.2624 177.738,53.2624 178.5,51.5C 180.027,51.573 181.027,50.9063 181.5,49.5C 183.404,49.2624 184.738,48.2624 185.5,46.5C 187.027,46.573 188.027,45.9063 188.5,44.5C 190.404,44.2624 191.738,43.2624 192.5,41.5C 194.027,41.573 195.027,40.9063 195.5,39.5C 197.404,39.2624 198.738,38.2624 199.5,36.5C 203.806,32.6786 208.473,29.3453 213.5,26.5C 215.404,26.2624 216.738,25.2624 217.5,23.5C 219.404,23.2624 220.738,22.2624 221.5,20.5C 223.027,20.573 224.027,19.9063 224.5,18.5C 226.027,18.573 227.027,17.9063 227.5,16.5C 229.404,16.2624 230.738,15.2624 231.5,13.5C 240.917,3.50796 251.584,2.00796 263.5,9C 267.067,12.0795 270.733,14.9129 274.5,17.5 Z"/></g>
<g><path style="opacity:0.22" fill="#757575" d="M 231.5,13.5 C 230.738,15.2624 229.404,16.2624 227.5,16.5C 228.262,14.7376 229.596,13.7376 231.5,13.5 Z"/></g>
<g><path style="opacity:0.333" fill="#727272" d="M 227.5,16.5 C 227.027,17.9063 226.027,18.573 224.5,18.5C 224.973,17.0937 225.973,16.427 227.5,16.5 Z"/></g>
<g><path style="opacity:0.231" fill="#8a8a8a" d="M 224.5,18.5 C 224.027,19.9063 223.027,20.573 221.5,20.5C 221.973,19.0937 222.973,18.427 224.5,18.5 Z"/></g>
<g><path style="opacity:0.208" fill="#767676" d="M 274.5,17.5 C 276.23,18.0256 277.564,19.0256 278.5,20.5C 276.368,20.4456 275.035,19.4456 274.5,17.5 Z"/></g>
<g><path style="opacity:0.196" fill="#909090" d="M 221.5,20.5 C 220.738,22.2624 219.404,23.2624 217.5,23.5C 218.262,21.7376 219.596,20.7376 221.5,20.5 Z"/></g>
<g><path style="opacity:0.298" fill="#7c7c7c" d="M 217.5,23.5 C 216.738,25.2624 215.404,26.2624 213.5,26.5C 214.262,24.7376 215.596,23.7376 217.5,23.5 Z"/></g>
<g><path style="opacity:0.694" fill="#6f6f6f" d="M 299.5,35.5 C 301.23,36.0256 302.564,37.0256 303.5,38.5C 301.368,38.4456 300.035,37.4456 299.5,35.5 Z"/></g>
<g><path style="opacity:0.376" fill="#757575" d="M 199.5,36.5 C 198.738,38.2624 197.404,39.2624 195.5,39.5C 196.262,37.7376 197.596,36.7376 199.5,36.5 Z"/></g>
<g><path style="opacity:0.455" fill="#737373" d="M 195.5,39.5 C 195.027,40.9063 194.027,41.573 192.5,41.5C 192.973,40.0937 193.973,39.427 195.5,39.5 Z"/></g>
<g><path style="opacity:0.686" fill="#7a7a7a" d="M 306.5,40.5 C 308.23,41.0256 309.564,42.0256 310.5,43.5C 308.368,43.4456 307.035,42.4456 306.5,40.5 Z"/></g>
<g><path style="opacity:0.286" fill="#868686" d="M 192.5,41.5 C 191.738,43.2624 190.404,44.2624 188.5,44.5C 189.262,42.7376 190.596,41.7376 192.5,41.5 Z"/></g>
<g><path style="opacity:0.357" fill="#858585" d="M 188.5,44.5 C 188.027,45.9063 187.027,46.573 185.5,46.5C 185.973,45.0937 186.973,44.427 188.5,44.5 Z"/></g>
<g><path style="opacity:0.004" fill="#bfbfbf" d="M 314.5,46.5 C 316.027,46.427 317.027,47.0937 317.5,48.5C 315.973,48.573 314.973,47.9063 314.5,46.5 Z"/></g>
<g><path style="opacity:0.184" fill="#959595" d="M 185.5,46.5 C 184.738,48.2624 183.404,49.2624 181.5,49.5C 182.262,47.7376 183.596,46.7376 185.5,46.5 Z"/></g>
<g><path style="opacity:0.235" fill="#919191" d="M 181.5,49.5 C 181.027,50.9063 180.027,51.573 178.5,51.5C 178.973,50.0937 179.973,49.427 181.5,49.5 Z"/></g>
<g><path style="opacity:0.231" fill="#7e7e7e" d="M 317.5,48.5 C 319.23,49.0256 320.564,50.0256 321.5,51.5C 319.368,51.4456 318.035,50.4456 317.5,48.5 Z"/></g>
<g><path style="opacity:0.176" fill="#9d9d9d" d="M 178.5,51.5 C 177.738,53.2624 176.404,54.2624 174.5,54.5C 175.262,52.7376 176.596,51.7376 178.5,51.5 Z"/></g>
<g><path style="opacity:0.18" fill="#8c8c8c" d="M 174.5,54.5 C 173.738,56.2624 172.404,57.2624 170.5,57.5C 171.262,55.7376 172.596,54.7376 174.5,54.5 Z"/></g>
<g><path style="opacity:0.208" fill="#848484" d="M 324.5,53.5 C 326.23,54.0256 327.564,55.0256 328.5,56.5C 326.368,56.4456 325.035,55.4456 324.5,53.5 Z"/></g>
<g><path style="opacity:0.251" fill="#777777" d="M 170.5,57.5 C 169.738,59.2624 168.404,60.2624 166.5,60.5C 167.262,58.7376 168.596,57.7376 170.5,57.5 Z"/></g>
<g><path style="opacity:0.341" fill="#707070" d="M 328.5,56.5 C 330.23,57.0256 331.564,58.0256 332.5,59.5C 330.368,59.4456 329.035,58.4456 328.5,56.5 Z"/></g>
<g><path style="opacity:0.059" fill="#b1b1b1" d="M 332.5,59.5 C 334.027,59.427 335.027,60.0937 335.5,61.5C 333.973,61.573 332.973,60.9063 332.5,59.5 Z"/></g>
<g><path style="opacity:0.427" fill="#727272" d="M 166.5,60.5 C 166.027,61.9063 165.027,62.573 163.5,62.5C 163.973,61.0937 164.973,60.427 166.5,60.5 Z"/></g>
<g><path style="opacity:0.357" fill="#878787" d="M 163.5,62.5 C 163.027,63.9063 162.027,64.573 160.5,64.5C 160.973,63.0937 161.973,62.427 163.5,62.5 Z"/></g>
<g><path style="opacity:0.31" fill="#757575" d="M 335.5,61.5 C 337.23,62.0256 338.564,63.0256 339.5,64.5C 337.368,64.4456 336.035,63.4456 335.5,61.5 Z"/></g>
<g><path style="opacity:0.251" fill="#8f8f8f" d="M 160.5,64.5 C 159.738,66.2624 158.404,67.2624 156.5,67.5C 157.262,65.7376 158.596,64.7376 160.5,64.5 Z"/></g>
<g><path style="opacity:0.369" fill="#7a7a7a" d="M 156.5,67.5 C 155.738,69.2624 154.404,70.2624 152.5,70.5C 153.262,68.7376 154.596,67.7376 156.5,67.5 Z"/></g>
<g><path style="opacity:0.482" fill="#767676" d="M 152.5,70.5 C 152.027,71.9063 151.027,72.573 149.5,72.5C 149.973,71.0937 150.973,70.427 152.5,70.5 Z"/></g>
<g><path style="opacity:0.333" fill="#838383" d="M 149.5,72.5 C 148.738,74.2624 147.404,75.2624 145.5,75.5C 146.262,73.7376 147.596,72.7376 149.5,72.5 Z"/></g>
<g><path style="opacity:0.416" fill="#808080" d="M 145.5,75.5 C 145.027,76.9063 144.027,77.573 142.5,77.5C 142.973,76.0937 143.973,75.427 145.5,75.5 Z"/></g>
<g><path style="opacity:0.239" fill="#8f8f8f" d="M 142.5,77.5 C 141.738,79.2624 140.404,80.2624 138.5,80.5C 139.262,78.7376 140.596,77.7376 142.5,77.5 Z"/></g>
<g><path style="opacity:0.365" fill="#919191" d="M 138.5,80.5 C 138.027,81.9063 137.027,82.573 135.5,82.5C 135.973,81.0937 136.973,80.427 138.5,80.5 Z"/></g>
<g><path style="opacity:0.02" fill="#c7c7c7" d="M 364.5,82.5 C 366.027,82.427 367.027,83.0937 367.5,84.5C 365.973,84.573 364.973,83.9063 364.5,82.5 Z"/></g>
<g><path style="opacity:0.235" fill="#aeaeae" d="M 135.5,82.5 C 135.027,83.9063 134.027,84.573 132.5,84.5C 132.973,83.0937 133.973,82.427 135.5,82.5 Z"/></g>
<g><path style="opacity:0.188" fill="#bcbcbc" d="M 132.5,84.5 C 131.738,86.2624 130.404,87.2624 128.5,87.5C 129.262,85.7376 130.596,84.7376 132.5,84.5 Z"/></g>
<g><path style="opacity:0.008" fill="#cccccc" d="M 371.5,87.5 C 373.027,87.427 374.027,88.0937 374.5,89.5C 372.973,89.573 371.973,88.9063 371.5,87.5 Z"/></g>
<g><path style="opacity:0.192" fill="#a9a9a9" d="M 128.5,87.5 C 127.738,89.2624 126.404,90.2624 124.5,90.5C 125.262,88.7376 126.596,87.7376 128.5,87.5 Z"/></g>
<g><path style="opacity:0.02" fill="#c0c0c0" d="M 375.5,90.5 C 377.027,90.427 378.027,91.0937 378.5,92.5C 376.973,92.573 375.973,91.9063 375.5,90.5 Z"/></g>
<g><path style="opacity:0.216" fill="#949494" d="M 124.5,90.5 C 123.738,92.2624 122.404,93.2624 120.5,93.5C 121.262,91.7376 122.596,90.7376 124.5,90.5 Z"/></g>
<g><path style="opacity:0.753" fill="#737373" d="M 378.5,92.5 C 380.23,93.0256 381.564,94.0256 382.5,95.5C 380.368,95.4456 379.035,94.4456 378.5,92.5 Z"/></g>
<g><path style="opacity:0.282" fill="#959595" d="M 120.5,93.5 C 120.027,94.9063 119.027,95.573 117.5,95.5C 117.973,94.0937 118.973,93.427 120.5,93.5 Z"/></g>
<g><path style="opacity:0.004" fill="#bdbdbd" d="M 382.5,95.5 C 384.027,95.427 385.027,96.0937 385.5,97.5C 383.973,97.573 382.973,96.9063 382.5,95.5 Z"/></g>
<g><path style="opacity:0.196" fill="#9a9a9a" d="M 117.5,95.5 C 116.738,97.2624 115.404,98.2624 113.5,98.5C 114.262,96.7376 115.596,95.7376 117.5,95.5 Z"/></g>
<g><path style="opacity:0.255" fill="#949494" d="M 113.5,98.5 C 113.027,99.9063 112.027,100.573 110.5,100.5C 110.973,99.0937 111.973,98.427 113.5,98.5 Z"/></g>
<g><path style="opacity:0.247" fill="#808080" d="M 385.5,97.5 C 387.23,98.0256 388.564,99.0256 389.5,100.5C 387.368,100.446 386.035,99.4456 385.5,97.5 Z"/></g>
<g><path style="opacity:0.208" fill="#9e9e9e" d="M 110.5,100.5 C 109.738,102.262 108.404,103.262 106.5,103.5C 107.262,101.738 108.596,100.738 110.5,100.5 Z"/></g>
<g><path style="opacity:0.329" fill="#8a8a8a" d="M 106.5,103.5 C 105.738,105.262 104.404,106.262 102.5,106.5C 103.262,104.738 104.596,103.738 106.5,103.5 Z"/></g>
<g><path style="opacity:0.447" fill="#848484" d="M 102.5,106.5 C 102.027,107.906 101.027,108.573 99.5,108.5C 99.9731,107.094 100.973,106.427 102.5,106.5 Z"/></g>
<g><path style="opacity:0.541" fill="#868686" d="M 399.5,107.5 C 401.23,108.026 402.564,109.026 403.5,110.5C 401.368,110.446 400.035,109.446 399.5,107.5 Z"/></g>
<g><path style="opacity:0.294" fill="#909090" d="M 99.5,108.5 C 98.7377,110.262 97.4044,111.262 95.5,111.5C 96.2623,109.738 97.5956,108.738 99.5,108.5 Z"/></g>
<g><path style="opacity:0.639" fill="#777777" d="M 403.5,110.5 C 405.23,111.026 406.564,112.026 407.5,113.5C 405.368,113.446 404.035,112.446 403.5,110.5 Z"/></g>
<g><path style="opacity:0.416" fill="#7c7c7c" d="M 95.5,111.5 C 94.7377,113.262 93.4044,114.262 91.5,114.5C 92.2623,112.738 93.5956,111.738 95.5,111.5 Z"/></g>
<g><path style="opacity:0.698" fill="#7b7b7b" d="M 410.5,115.5 C 412.23,116.026 413.564,117.026 414.5,118.5C 412.368,118.446 411.035,117.446 410.5,115.5 Z"/></g>
<g><path style="opacity:0.502" fill="#707070" d="M 84.5,119.5 C 83.7377,121.262 82.4044,122.262 80.5,122.5C 81.2623,120.738 82.5956,119.738 84.5,119.5 Z"/></g>
<g><path style="opacity:0.004" fill="#d2d2d2" d="M 421.5,123.5 C 423.027,123.427 424.027,124.094 424.5,125.5C 422.973,125.573 421.973,124.906 421.5,123.5 Z"/></g>
<g><path style="opacity:0.227" fill="#aeaeae" d="M 78.5,123.5 C 77.7377,125.262 76.4044,126.262 74.5,126.5C 75.2623,124.738 76.5956,123.738 78.5,123.5 Z"/></g>
<g><path style="opacity:0.243" fill="#9a9a9a" d="M 74.5,126.5 C 73.7377,128.262 72.4044,129.262 70.5,129.5C 71.2623,127.738 72.5956,126.738 74.5,126.5 Z"/></g>
<g><path style="opacity:0.314" fill="#999999" d="M 70.5,129.5 C 70.0269,130.906 69.0269,131.573 67.5,131.5C 67.9731,130.094 68.9731,129.427 70.5,129.5 Z"/></g>
<g><path style="opacity:0.016" fill="#c8c8c8" d="M 432.5,131.5 C 434.027,131.427 435.027,132.094 435.5,133.5C 433.973,133.573 432.973,132.906 432.5,131.5 Z"/></g>
<g><path style="opacity:0.208" fill="#a6a6a6" d="M 67.5,131.5 C 66.7377,133.262 65.4044,134.262 63.5,134.5C 64.2623,132.738 65.5956,131.738 67.5,131.5 Z"/></g>
<g><path style="opacity:0.227" fill="#939393" d="M 63.5,134.5 C 62.7377,136.262 61.4044,137.262 59.5,137.5C 60.2623,135.738 61.5956,134.738 63.5,134.5 Z"/></g>
<g><path style="opacity:0.231" fill="#8c8c8c" d="M 435.5,133.5 C 437.23,134.026 438.564,135.026 439.5,136.5C 437.368,136.446 436.035,135.446 435.5,133.5 Z"/></g>
<g><path style="opacity:0.263" fill="#909090" d="M 59.5,137.5 C 59.0269,138.906 58.0269,139.573 56.5,139.5C 56.9731,138.094 57.9731,137.427 59.5,137.5 Z"/></g>
<g><path style="opacity:0.259" fill="#7e7e7e" d="M 439.5,136.5 C 441.23,137.026 442.564,138.026 443.5,139.5C 441.368,139.446 440.035,138.446 439.5,136.5 Z"/></g>
<g><path style="opacity:0.188" fill="#9b9b9b" d="M 56.5,139.5 C 55.7377,141.262 54.4044,142.262 52.5,142.5C 53.2623,140.738 54.5956,139.738 56.5,139.5 Z"/></g>
<g><path style="opacity:0.361" fill="#6e6e6e" d="M 443.5,139.5 C 445.23,140.026 446.564,141.026 447.5,142.5C 445.368,142.446 444.035,141.446 443.5,139.5 Z"/></g>
<g><path style="opacity:0.282" fill="#878787" d="M 52.5,142.5 C 51.7377,144.262 50.4044,145.262 48.5,145.5C 49.2623,143.738 50.5956,142.738 52.5,142.5 Z"/></g>
<g><path style="opacity:0.471" fill="#818181" d="M 48.5,145.5 C 48.0269,146.906 47.0269,147.573 45.5,147.5C 45.9731,146.094 46.9731,145.427 48.5,145.5 Z"/></g>
<g><path style="opacity:0.588" fill="#818181" d="M 453.5,146.5 C 455.23,147.026 456.564,148.026 457.5,149.5C 455.368,149.446 454.035,148.446 453.5,146.5 Z"/></g>
<g><path style="opacity:0.325" fill="#8a8a8a" d="M 45.5,147.5 C 44.7377,149.262 43.4044,150.262 41.5,150.5C 42.2623,148.738 43.5956,147.738 45.5,147.5 Z"/></g>
<g><path style="opacity:0.443" fill="#757575" d="M 41.5,150.5 C 40.7377,152.262 39.4044,153.262 37.5,153.5C 38.2623,151.738 39.5956,150.738 41.5,150.5 Z"/></g>
<g><path style="opacity:0.318" fill="#767676" d="M 477.5,164.5 C 479.262,165.262 480.262,166.596 480.5,168.5C 478.738,167.738 477.738,166.404 477.5,164.5 Z"/></g>
<g><path style="opacity:0.267" fill="#7a7a7a" d="M 25.5,162.5 C 23.5,165.167 21.1667,167.5 18.5,169.5C 19.8333,166.167 22.1667,163.833 25.5,162.5 Z"/></g>
<g><path style="opacity:0.188" fill="#717171" d="M 7.5,188.5 C 7.70621,191.495 7.03954,194.162 5.5,196.5C 5.56513,193.572 6.2318,190.905 7.5,188.5 Z"/></g>
<g><path style="opacity:0.176" fill="#656565" d="M 492.5,189.5 C 493.924,191.515 494.59,193.848 494.5,196.5C 493.076,194.485 492.41,192.152 492.5,189.5 Z"/></g>
<g><path style="opacity:0.286" fill="#a8a8a8" d="M 255.5,330.5 C 258.228,330.171 260.562,330.837 262.5,332.5C 259.933,332.279 257.599,331.612 255.5,330.5 Z"/></g>
<g><path style="opacity:0.004" fill="#d9d9d9" d="M 242.5,330.5 C 239.727,331.657 236.727,332.324 233.5,332.5C 236.171,330.882 239.171,330.215 242.5,330.5 Z"/></g>
<g><path style="opacity:0.165" fill="#949494" d="M 270.5,335.5 C 272.027,335.427 273.027,336.094 273.5,337.5C 271.973,337.573 270.973,336.906 270.5,335.5 Z"/></g>
<g><path style="opacity:0.282" fill="#848484" d="M 273.5,337.5 C 275.027,337.427 276.027,338.094 276.5,339.5C 274.973,339.573 273.973,338.906 273.5,337.5 Z"/></g>
<g><path style="opacity:0.077" fill="#d7d7d7" d="M 205.5,362.5 C 204.864,400.651 204.197,438.651 203.5,476.5C 203.333,439.832 203.5,403.165 204,366.5C 204.21,364.942 204.71,363.609 205.5,362.5 Z"/></g>
<g><path style="opacity:0.153" fill="#909090" d="M 9.5,487.5 C 11.0269,487.427 12.0269,488.094 12.5,489.5C 10.9731,489.573 9.97306,488.906 9.5,487.5 Z"/></g>
<g><path style="opacity:0.154" fill="#494949" d="M 16.5,492.5 C 73.8105,493.484 131.144,493.817 188.5,493.5C 132.335,494.665 76.0015,494.832 19.5,494C 18.2625,493.768 17.2625,493.268 16.5,492.5 Z"/></g>
</svg>
