<?xml version="1.0" standalone="no"?>
<!DOCTYPE svg PUBLIC "-//W3C//DTD SVG 20010904//EN"
 "http://www.w3.org/TR/2001/REC-SVG-20010904/DTD/svg10.dtd">
<svg version="1.0" xmlns="http://www.w3.org/2000/svg"
 width="512.000000pt" height="512.000000pt" viewBox="0 0 512.000000 512.000000"
 preserveAspectRatio="xMidYMid meet">
<metadata>
Created by potrace 1.16, written by Peter Selinger 2001-2019
</metadata>
<g transform="translate(0.000000,512.000000) scale(0.100000,-0.100000)"
fill="#000000" stroke="none">
<path d="M3685 4578 c-45 -53 -32 -85 77 -195 l93 -93 -242 -242 -243 -243
-173 173 c-161 159 -176 172 -210 172 -54 0 -92 -36 -92 -89 0 -36 7 -47 58
-99 l57 -57 -980 -980 c-976 -976 -980 -980 -980 -1020 0 -36 6 -47 55 -95
l55 -54 -129 -131 c-129 -130 -150 -161 -136 -207 4 -13 48 -65 98 -116 l92
-92 -288 -288 c-275 -275 -287 -289 -287 -325 0 -52 35 -87 87 -87 36 0 50 12
325 287 l288 288 92 -92 c93 -92 126 -111 170 -98 13 4 82 65 153 136 l131
129 54 -55 c48 -49 59 -55 95 -55 40 0 44 4 1020 980 l980 980 57 -57 c52 -51
63 -58 99 -58 53 0 89 38 89 92 0 34 -13 49 -172 210 l-173 173 243 243 242
242 93 -93 c110 -109 142 -122 195 -77 27 22 32 34 32 68 0 42 -2 44 -408 449
-405 406 -407 408 -449 408 -34 0 -46 -5 -68 -32z m-147 -1685 l-243 -243
-570 -15 c-313 -8 -610 -15 -660 -15 l-90 0 580 580 580 580 322 -322 323
-323 -242 -242z"/>
</g>
</svg>
