<?xml version="1.0" standalone="no"?>
<!DOCTYPE svg PUBLIC "-//W3C//DTD SVG 20010904//EN"
 "http://www.w3.org/TR/2001/REC-SVG-20010904/DTD/svg10.dtd">
<svg version="1.0" xmlns="http://www.w3.org/2000/svg"
 width="512.000000pt" height="512.000000pt" viewBox="0 0 512.000000 512.000000"
 preserveAspectRatio="xMidYMid meet">
<metadata>
Created by potrace 1.16, written by Peter Selinger 2001-2019
</metadata>
<g transform="translate(0.000000,512.000000) scale(0.100000,-0.100000)"
fill="#000000" stroke="none">
<path d="M2277 4780 c-320 -58 -606 -207 -841 -438 -314 -308 -476 -697 -476
-1139 0 -322 79 -635 259 -1032 222 -488 656 -1141 1128 -1699 58 -67 117
-129 133 -137 37 -19 123 -19 160 0 79 41 534 625 795 1020 282 427 446 736
575 1080 172 459 198 886 75 1260 -153 471 -521 851 -980 1015 -186 66 -279
82 -510 86 -177 3 -227 0 -318 -16z m499 -325 c50 -8 127 -27 170 -41 460
-150 787 -529 870 -1008 24 -134 14 -374 -20 -520 -115 -490 -456 -1136 -926
-1756 -131 -171 -296 -370 -309 -370 -14 0 -202 227 -336 404 -456 608 -788
1242 -901 1722 -34 146 -44 386 -20 520 46 268 168 504 357 693 217 218 500
348 799 369 119 9 200 5 316 -13z"/>
<path d="M2405 3826 c-128 -31 -273 -126 -351 -229 -55 -73 -107 -181 -123
-255 -15 -74 -13 -225 4 -300 52 -218 241 -409 465 -467 83 -21 238 -21 321 0
170 44 327 168 406 320 55 106 75 188 75 305 0 117 -20 199 -75 304 -79 153
-243 282 -408 321 -76 18 -243 18 -314 1z m293 -346 c157 -79 219 -260 143
-415 -114 -231 -433 -239 -556 -14 -33 61 -45 167 -26 236 17 61 70 134 125
171 61 41 94 50 182 51 60 1 80 -4 132 -29z"/>
</g>
</svg>
