<?xml version="1.0" standalone="no"?>
<!DOCTYPE svg PUBLIC "-//W3C//DTD SVG 20010904//EN"
 "http://www.w3.org/TR/2001/REC-SVG-20010904/DTD/svg10.dtd">
<svg version="1.0" xmlns="http://www.w3.org/2000/svg"
 width="512.000000pt" height="512.000000pt" viewBox="0 0 512.000000 512.000000"
 preserveAspectRatio="xMidYMid meet">
<metadata>
Created by potrace 1.16, written by Peter Selinger 2001-2019
</metadata>
<g transform="translate(0.000000,512.000000) scale(0.100000,-0.100000)"
fill="#000000" stroke="none">
<path d="M3200 4941 c-113 -35 -180 -128 -180 -251 0 -105 47 -186 135 -233
39 -21 53 -22 468 -27 l427 -5 -462 -462 -463 -462 -100 65 c-544 353 -1239
399 -1822 119 -469 -224 -821 -642 -967 -1146 -107 -372 -89 -823 49 -1179
262 -680 882 -1136 1604 -1179 690 -41 1315 273 1686 848 65 101 157 296 195
416 173 546 94 1137 -216 1597 l-63 93 462 463 462 462 5 -432 c5 -420 6 -434
27 -473 47 -88 128 -134 234 -135 115 0 220 75 249 178 6 24 10 306 10 803 l0
765 -25 51 c-15 28 -41 63 -60 78 -75 56 -52 55 -874 54 -416 0 -767 -4 -781
-8z m-942 -1607 c176 -30 383 -116 530 -220 93 -66 249 -221 317 -314 249
-346 316 -795 179 -1206 -62 -187 -203 -406 -346 -539 -246 -229 -531 -348
-863 -362 -289 -12 -558 65 -805 230 -96 64 -283 251 -347 347 -267 398 -306
888 -107 1319 57 124 160 267 269 376 309 309 738 444 1173 369z"/>
</g>
</svg>
