<?xml version="1.0" standalone="no"?>
<!DOCTYPE svg PUBLIC "-//W3C//DTD SVG 20010904//EN"
 "http://www.w3.org/TR/2001/REC-SVG-20010904/DTD/svg10.dtd">
<svg version="1.0" xmlns="http://www.w3.org/2000/svg"
 width="512.000000pt" height="512.000000pt" viewBox="0 0 512.000000 512.000000"
 preserveAspectRatio="xMidYMid meet">
<metadata>
Created by potrace 1.16, written by Peter Selinger 2001-2019
</metadata>
<g transform="translate(0.000000,512.000000) scale(0.100000,-0.100000)"
fill="#000000" stroke="none">
<path d="M2240 5105 c-1001 -124 -1842 -833 -2134 -1798 -82 -271 -111 -499
-103 -821 10 -404 86 -716 264 -1073 l65 -131 -167 -519 c-155 -481 -167 -522
-163 -579 7 -109 73 -175 182 -182 57 -4 98 8 579 163 l519 167 131 -65 c247
-123 469 -194 757 -243 130 -22 503 -30 656 -14 1023 104 1890 818 2188 1804
74 243 106 468 106 746 0 209 -10 324 -46 505 -168 852 -761 1560 -1580 1885
-182 73 -450 138 -656 160 -131 14 -469 11 -598 -5z m675 -419 c458 -85 843
-285 1164 -607 274 -273 466 -604 561 -963 57 -218 65 -279 65 -556 0 -277 -8
-338 -65 -556 -95 -359 -287 -690 -561 -963 -321 -322 -708 -523 -1164 -607
-119 -21 -448 -30 -584 -15 -139 15 -277 44 -408 85 -146 47 -224 80 -410 176
-157 82 -158 82 -218 77 -37 -4 -199 -51 -415 -121 -195 -63 -355 -114 -357
-113 -1 2 50 162 113 357 70 216 117 378 121 415 5 57 3 64 -42 150 -120 226
-159 315 -211 478 -41 131 -70 269 -85 408 -15 136 -6 465 15 584 84 456 285
843 607 1164 171 172 349 301 559 406 235 118 429 176 735 219 76 11 494 -2
580 -18z"/>
<path d="M1455 2791 c-92 -41 -145 -126 -145 -231 0 -148 102 -250 250 -250
148 0 250 102 250 250 0 148 -102 250 -250 250 -42 0 -79 -7 -105 -19z"/>
<path d="M2455 2791 c-92 -41 -145 -126 -145 -231 0 -148 102 -250 250 -250
148 0 250 102 250 250 0 148 -102 250 -250 250 -42 0 -79 -7 -105 -19z"/>
<path d="M3455 2791 c-92 -41 -145 -126 -145 -231 0 -148 102 -250 250 -250
148 0 250 102 250 250 0 148 -102 250 -250 250 -42 0 -79 -7 -105 -19z"/>
</g>
</svg>
