<?xml version="1.0" standalone="no"?>
<!DOCTYPE svg PUBLIC "-//W3C//DTD SVG 20010904//EN"
 "http://www.w3.org/TR/2001/REC-SVG-20010904/DTD/svg10.dtd">
<svg version="1.0" xmlns="http://www.w3.org/2000/svg"
 width="1000.000000pt" height="1000.000000pt" viewBox="0 0 1000.000000 1000.000000"
 preserveAspectRatio="xMidYMid meet">
<metadata>
Created by potrace 1.16, written by Peter Selinger 2001-2019
</metadata>
<g transform="translate(0.000000,1000.000000) scale(0.100000,-0.100000)"
fill="#000000" stroke="none">
<path d="M4437 7696 c-20 -8 -44 -20 -53 -27 -48 -40 -59 -134 -21 -190 36
-55 76 -69 197 -69 120 0 168 -16 213 -69 51 -61 52 -77 28 -478 -12 -202 -24
-392 -27 -420 l-5 -53 215 0 c119 0 216 3 216 7 0 3 -11 191 -25 417 -14 225
-23 424 -19 441 10 47 43 94 87 123 37 25 51 27 168 32 108 4 132 8 155 26 50
37 68 70 68 124 0 54 -18 87 -68 124 -27 21 -40 21 -559 23 -428 2 -539 0
-570 -11z"/>
<path d="M3983 6299 c-30 -15 -48 -33 -62 -63 -27 -54 -26 -91 2 -140 35 -61
73 -76 194 -76 l103 0 0 -1168 c0 -1017 2 -1175 15 -1227 47 -180 205 -323
393 -356 l62 -11 0 -85 c0 -92 13 -134 56 -174 20 -19 24 -32 24 -83 0 -73 14
-103 60 -134 33 -22 42 -23 167 -20 130 3 132 3 162 32 35 34 51 79 51 147 0
35 5 51 24 68 35 33 45 65 48 160 l3 85 75 18 c108 26 177 63 246 133 113 112
144 202 144 417 0 80 3 153 6 162 4 10 18 16 35 16 114 0 311 77 421 165 160
126 268 355 268 565 0 253 -138 499 -354 629 -76 46 -209 90 -298 99 l-73 7 0
275 0 275 112 5 c125 6 153 18 185 81 39 74 12 159 -62 197 l-44 22 -961 0
c-952 0 -960 0 -1002 -21z m1607 -566 l0 -288 -73 -22 c-104 -32 -191 -87
-282 -178 -91 -91 -144 -174 -182 -290 -25 -72 -27 -94 -27 -225 0 -132 2
-152 27 -225 50 -144 136 -266 249 -353 65 -49 177 -106 242 -123 l48 -12 -4
-171 c-3 -160 -5 -174 -29 -227 -49 -104 -135 -168 -254 -190 -38 -7 -168 -9
-359 -7 -257 4 -308 7 -349 22 -65 25 -150 104 -184 174 -26 54 -28 66 -32
215 l-3 157 291 0 292 0 -3 63 -3 62 -287 3 -288 2 0 275 0 275 200 0 200 0 0
60 0 60 -200 0 -200 0 0 275 0 275 290 0 291 0 -3 61 -3 62 -285 1 -285 1 -3
278 -2 277 605 0 605 0 0 -287z m593 -771 l67 -67 -298 -298 -297 -297 -205
205 -205 205 70 70 70 70 135 -135 135 -135 225 225 c124 124 227 225 230 225
3 0 36 -30 73 -68z"/>
<path d="M4900 2209 l0 -501 33 24 c17 14 56 42 85 63 l52 39 0 438 0 438 -85
0 -85 0 0 -501z"/>
</g>
</svg>
