<?xml version="1.0" standalone="no"?>
<!DOCTYPE svg PUBLIC "-//W3C//DTD SVG 20010904//EN"
 "http://www.w3.org/TR/2001/REC-SVG-20010904/DTD/svg10.dtd">
<svg version="1.0" xmlns="http://www.w3.org/2000/svg"
 width="512.000000pt" height="512.000000pt" viewBox="0 0 512.000000 512.000000"
 preserveAspectRatio="xMidYMid meet">
<metadata>
Created by potrace 1.16, written by Peter Selinger 2001-2019
</metadata>
<g transform="translate(0.000000,512.000000) scale(0.100000,-0.100000)"
fill="#000000" stroke="none">
<path d="M3236 4817 c-22 -12 -49 -35 -60 -50 -21 -28 -21 -35 -24 -766 l-2
-737 23 -35 c12 -18 38 -44 56 -56 l35 -23 735 2 736 3 33 23 c18 13 41 41 52
62 19 38 20 62 20 753 l0 714 -23 43 c-16 30 -37 51 -67 67 l-43 23 -716 0
-716 0 -39 -23z m1126 -679 l-142 -143 142 -142 143 -143 -115 -115 -115 -115
-140 140 -140 140 -142 -142 -143 -143 -115 115 -115 115 142 142 143 143
-143 143 -142 142 115 115 115 115 140 -140 140 -140 142 143 143 142 115
-115 115 -115 -143 -142z"/>
<path d="M815 4655 c-236 -52 -419 -216 -502 -450 l-28 -80 -3 -1185 -2 -1185
407 406 c237 235 427 417 454 433 89 51 156 69 264 69 111 1 187 -19 271 -72
25 -15 264 -247 533 -514 268 -268 491 -487 496 -487 5 0 142 132 304 293 234
231 309 299 356 324 156 81 315 85 460 10 28 -14 223 -144 435 -289 212 -145
391 -267 398 -271 9 -7 12 112 12 577 l0 586 -708 0 c-603 0 -716 2 -767 15
-169 45 -305 174 -361 345 -17 51 -19 112 -22 773 l-3 717 -967 -1 c-762 0
-980 -3 -1027 -14z"/>
<path d="M1330 2329 c-14 -5 -256 -240 -537 -522 l-513 -512 0 -205 c0 -246
11 -308 76 -440 66 -132 162 -228 294 -294 165 -81 42 -76 1818 -76 1771 0
1663 -4 1822 72 120 57 239 177 298 298 64 131 72 175 72 405 l0 201 -491 338
c-421 291 -497 339 -534 344 -101 11 -95 15 -408 -296 l-287 -287 180 -180
180 -180 -115 -115 -115 -115 -92 91 c-51 50 -403 397 -782 772 -379 375 -703
688 -721 696 -37 18 -107 20 -145 5z"/>
</g>
</svg>
