<?xml version="1.0" standalone="no"?>
<!DOCTYPE svg PUBLIC "-//W3C//DTD SVG 20010904//EN"
 "http://www.w3.org/TR/2001/REC-SVG-20010904/DTD/svg10.dtd">
<svg version="1.0" xmlns="http://www.w3.org/2000/svg"
 width="512.000000pt" height="512.000000pt" viewBox="0 0 512.000000 512.000000"
 preserveAspectRatio="xMidYMid meet">
<metadata>
Created by potrace 1.16, written by Peter Selinger 2001-2019
</metadata>
<g transform="translate(0.000000,512.000000) scale(0.100000,-0.100000)"
fill="#000000" stroke="none">
<path d="M4095 4650 c-18 -6 -119 -99 -265 -245 l-235 -235 -1605 -2 -1605 -3
-59 -23 c-153 -58 -268 -177 -310 -321 -14 -49 -16 -188 -16 -1247 0 -1165 0
-1193 20 -1257 26 -85 90 -179 154 -227 61 -46 147 -88 199 -96 l39 -7 -135
-136 c-74 -75 -140 -146 -146 -158 -17 -33 -13 -104 8 -143 36 -69 113 -101
192 -80 40 11 205 172 1997 1963 1073 1074 1959 1966 1967 1983 35 74 11 167
-55 216 -30 22 -104 31 -145 18z m-2095 -2075 l-1265 -1265 -139 0 c-163 0
-209 15 -248 78 l-23 37 0 1145 c0 1047 1 1148 17 1175 21 39 56 70 93 83 20
7 481 11 1430 11 l1400 1 -1265 -1265z"/>
<path d="M1086 3555 c-196 -50 -359 -214 -411 -415 -20 -78 -16 -236 9 -315
35 -112 132 -236 239 -306 163 -106 388 -117 569 -27 85 42 204 161 246 246
90 181 79 406 -27 569 -70 107 -193 204 -306 239 -71 23 -245 27 -319 9z m239
-334 c23 -10 59 -39 81 -64 66 -74 81 -163 43 -247 -27 -60 -64 -98 -124 -126
-87 -42 -175 -28 -252 40 -100 88 -112 222 -28 332 57 75 191 106 280 65z"/>
<path d="M3895 3746 c-39 -17 -70 -52 -90 -100 -14 -34 -16 -150 -15 -1119 l0
-1082 -22 -45 c-17 -33 -35 -51 -68 -67 l-44 -23 -1046 0 -1045 0 -52 -30
c-62 -36 -83 -71 -83 -139 0 -62 32 -103 105 -137 l50 -24 1041 0 c704 0 1059
3 1100 11 122 22 239 99 308 204 64 95 78 150 83 323 3 83 8 152 10 152 3 0
116 -36 252 -81 135 -44 273 -85 306 -89 149 -23 301 42 373 158 65 106 63 67
60 933 l-3 784 -27 57 c-35 76 -107 151 -177 185 -51 26 -66 28 -166 28 l-110
-1 -256 -85 -256 -86 -5 82 c-9 135 -59 205 -147 205 -25 -1 -59 -7 -76 -14z
m886 -443 c12 -13 14 -138 14 -717 0 -386 -3 -713 -7 -727 -4 -15 -16 -30 -25
-34 -11 -4 -138 33 -331 96 l-312 103 2 550 3 549 290 98 c160 54 304 98 321
98 18 1 38 -6 45 -16z"/>
</g>
</svg>
