<?xml version="1.0" standalone="no"?>
<!DOCTYPE svg PUBLIC "-//W3C//DTD SVG 20010904//EN"
 "http://www.w3.org/TR/2001/REC-SVG-20010904/DTD/svg10.dtd">
<svg version="1.0" xmlns="http://www.w3.org/2000/svg"
 width="512.000000pt" height="512.000000pt" viewBox="0 0 512.000000 512.000000"
 preserveAspectRatio="xMidYMid meet">
<metadata>
Created by potrace 1.16, written by Peter Selinger 2001-2019
</metadata>
<g transform="translate(0.000000,512.000000) scale(0.100000,-0.100000)"
fill="#000000" stroke="none">
<path d="M2410 5101 c-126 -40 -224 -115 -287 -220 -35 -58 -73 -164 -73 -204
0 -41 -7 -50 -50 -67 -19 -7 -87 -39 -150 -72 -409 -209 -710 -609 -801 -1067
-10 -53 -23 -179 -29 -281 -14 -263 -43 -415 -119 -628 -77 -215 -182 -426
-322 -647 -55 -88 -97 -148 -281 -402 -108 -149 -125 -312 -48 -468 33 -68
102 -144 164 -180 118 -69 599 -162 1056 -205 370 -35 597 -44 1090 -44 493 0
720 9 1090 44 457 43 938 136 1056 205 62 36 131 112 164 180 77 156 60 319
-48 468 -26 36 -86 119 -133 184 -254 352 -449 738 -528 1050 -35 137 -51 254
-61 443 -6 102 -19 228 -29 281 -74 371 -290 713 -596 942 -83 62 -350 207
-381 207 -7 0 -16 16 -19 38 -34 220 -166 380 -364 442 -82 26 -223 26 -301 1z"/>
<path d="M1910 425 c0 -4 14 -35 32 -69 48 -91 193 -231 288 -278 115 -57 206
-78 330 -78 209 1 353 61 500 209 73 74 150 185 150 216 0 4 -64 5 -142 1
-185 -9 -831 -9 -1015 0 -79 4 -143 3 -143 -1z"/>
</g>
</svg>
