<?xml version="1.0" standalone="no"?>
<!DOCTYPE svg PUBLIC "-//W3C//DTD SVG 20010904//EN"
 "http://www.w3.org/TR/2001/REC-SVG-20010904/DTD/svg10.dtd">
<svg version="1.0" xmlns="http://www.w3.org/2000/svg"
 width="356.000000pt" height="312.000000pt" viewBox="0 0 356.000000 312.000000"
 preserveAspectRatio="xMidYMid meet">
<metadata>
Created by potrace 1.16, written by Peter Selinger 2001-2019
</metadata>
<g transform="translate(0.000000,312.000000) scale(0.100000,-0.100000)"
fill="#000000" stroke="none">
<path d="M1569 3040 c-597 -94 -1073 -527 -1218 -1105 -35 -141 -44 -237 -38
-408 6 -175 31 -313 83 -452 155 -410 470 -725 877 -876 158 -59 274 -80 472
-86 234 -6 220 -17 220 159 0 73 -4 156 -8 183 l-8 51 63 11 c87 14 148 44
201 98 52 51 87 128 70 153 -5 9 -34 31 -63 48 -51 30 -53 33 -74 105 -33 113
-74 162 -191 226 l-70 39 -1 59 c-3 108 3 99 -61 92 -38 -4 -85 -20 -139 -46
-143 -71 -221 -181 -283 -396 -69 -237 -84 -282 -112 -331 -15 -28 -38 -59
-49 -69 -24 -22 -24 -33 -10 155 20 280 67 451 162 597 28 43 59 96 69 118 40
86 13 228 -59 306 -19 22 -103 85 -186 140 -213 143 -280 211 -324 330 -11 31
-24 87 -27 126 -9 92 -8 93 173 93 111 0 153 4 203 20 73 22 162 73 231 131
88 74 233 101 418 80 107 -12 257 -49 310 -76 186 -95 460 -415 460 -538 0
-29 -8 -42 -49 -79 -106 -96 -389 -263 -433 -256 -33 5 -85 79 -99 143 -14 64
-6 120 35 230 42 113 32 244 -24 315 l-20 25 8 -35 c4 -19 7 -73 7 -120 -1
-72 -6 -101 -38 -191 -26 -74 -37 -123 -37 -162 0 -142 72 -307 134 -307 12 0
68 23 125 50 57 28 107 50 111 50 4 0 20 -51 35 -112 45 -180 122 -403 184
-533 57 -118 130 -225 231 -335 l50 -55 36 40 c86 97 195 286 249 435 53 148
76 273 82 447 6 171 -3 267 -38 408 -117 467 -452 846 -904 1020 -176 68 -278
87 -490 90 -104 2 -215 0 -246 -5z"/>
<path d="M1543 2318 c-76 -37 -20 -160 57 -128 57 24 60 103 4 129 -29 13 -32
13 -61 -1z"/>
</g>
</svg>
