<?xml version="1.0" standalone="no"?>
<!DOCTYPE svg PUBLIC "-//W3C//DTD SVG 20010904//EN"
 "http://www.w3.org/TR/2001/REC-SVG-20010904/DTD/svg10.dtd">
<svg version="1.0" xmlns="http://www.w3.org/2000/svg"
 width="512.000000pt" height="512.000000pt" viewBox="0 0 512.000000 512.000000"
 preserveAspectRatio="xMidYMid meet">
<metadata>
Created by potrace 1.16, written by Peter Selinger 2001-2019
</metadata>
<g transform="translate(0.000000,512.000000) scale(0.100000,-0.100000)"
fill="#000000" stroke="none">
<path d="M2315 5109 c-325 -31 -645 -125 -933 -275 -246 -127 -430 -262 -633
-464 -420 -418 -677 -952 -739 -1532 -13 -125 -13 -431 0 -556 81 -762 508
-1450 1162 -1876 461 -300 1054 -447 1603 -396 334 31 612 109 910 255 264
130 472 280 685 494 198 200 337 391 461 634 194 381 272 712 286 1207 6 236
0 314 -43 495 -160 670 -507 1184 -1062 1570 -46 31 -85 55 -88 52 -3 -3 30
-29 73 -58 43 -29 110 -78 149 -110 70 -57 237 -214 199 -188 -10 8 -32 28
-48 44 -19 20 -30 26 -34 18 -2 -7 -11 -13 -19 -13 -22 0 19 -73 73 -131 43
-46 49 -69 17 -69 -26 0 -14 -28 26 -60 22 -17 40 -36 40 -41 0 -22 -27 -3
-98 69 -79 80 -233 192 -264 192 -36 0 -14 -33 57 -87 17 -13 3 -7 -30 12 -69
40 -81 42 -88 15 -4 -16 -14 -20 -46 -20 -46 0 -47 -1 -25 -35 10 -15 12 -25
6 -25 -26 0 -34 -41 -17 -85 16 -42 15 -45 -4 -64 -12 -12 -28 -21 -37 -21 -8
0 -23 -4 -33 -9 -42 -23 -160 45 -161 92 0 10 -14 45 -30 78 l-31 60 89 -7
c84 -6 89 -6 94 14 9 33 -24 74 -93 115 -47 27 -57 37 -40 37 16 0 21 4 17 15
-4 11 1 15 18 15 21 0 23 4 22 44 -1 51 26 90 56 80 22 -7 118 16 118 28 0 4
-10 18 -22 30 -13 13 -22 26 -21 30 2 4 -10 16 -24 28 -15 12 -28 31 -28 42 0
15 -11 26 -32 35 -20 8 -33 9 -33 3 0 -5 5 -10 10 -10 6 0 10 -4 10 -10 0 -26
-54 -6 -121 45 -61 46 -109 69 -109 51 0 -14 83 -80 127 -101 57 -28 86 -54
110 -100 l16 -30 -24 20 c-13 11 -36 31 -52 44 -32 29 -54 35 -83 20 -37 -19
-102 28 -152 111 -11 19 -34 48 -51 64 -17 17 -31 33 -31 38 0 24 139 -13 198
-52 25 -16 61 -32 81 -35 20 -3 55 -15 79 -26 60 -27 42 -5 -21 28 -413 209
-928 306 -1392 262z m417 -79 c16 -16 37 -32 48 -35 11 -4 17 -12 13 -21 -3
-8 1 -22 8 -31 13 -15 11 -16 -23 -10 -44 7 -51 -7 -11 -20 27 -9 25 -11 -37
-32 -36 -12 -89 -30 -117 -38 -31 -10 -53 -22 -53 -30 0 -8 -9 -32 -20 -54
-18 -34 -24 -39 -43 -33 -71 22 -127 68 -143 117 -5 16 1 27 22 44 22 18 25
23 12 23 -10 0 -18 4 -18 9 0 4 12 6 28 3 24 -5 26 -4 13 11 -7 10 -20 17 -28
17 -9 0 -13 6 -9 15 12 31 -5 45 -53 45 -33 0 -42 3 -31 10 8 5 26 10 40 10
14 0 35 7 46 14 26 18 109 25 233 19 88 -5 97 -7 123 -33z m-898 -59 c3 -5
-23 -22 -59 -37 -36 -16 -65 -32 -65 -36 0 -19 88 -4 140 24 30 16 45 22 34
11 -12 -10 -25 -28 -29 -41 -6 -20 -4 -21 20 -12 14 6 36 15 48 21 22 12 22
12 3 -10 -11 -12 -37 -24 -59 -28 -34 -5 -38 -9 -34 -29 2 -14 -2 -25 -10 -28
-24 -10 -33 -7 -33 9 0 8 7 15 15 15 8 0 15 5 15 10 0 6 -11 10 -25 10 -14 0
-25 -4 -25 -8 0 -5 -19 -14 -42 -21 -81 -24 -194 -90 -222 -129 -24 -33 -24
-37 -9 -41 10 -2 28 -14 40 -27 12 -13 32 -24 43 -24 l21 0 -20 -29 c-53 -74
3 -102 61 -30 18 23 54 52 80 65 34 17 49 32 54 52 8 33 82 112 106 112 9 0
33 -7 52 -16 30 -15 33 -20 25 -41 -13 -35 14 -41 67 -15 l44 22 0 -21 c0 -34
31 -90 56 -101 13 -6 21 -15 18 -19 -3 -5 6 -14 20 -20 37 -17 22 -34 -62 -69
-70 -29 -84 -32 -146 -27 -79 7 -110 -3 -195 -61 -67 -46 -45 -55 36 -14 74
37 103 46 103 33 0 -6 -9 -11 -19 -11 -26 0 -37 -18 -17 -26 10 -4 16 -18 16
-39 0 -33 1 -34 38 -28 20 3 45 13 55 21 18 16 38 9 21 -8 -5 -5 -46 -22 -92
-38 l-84 -30 28 29 c15 16 25 31 23 34 -3 2 -52 -12 -108 -32 -93 -33 -105
-40 -117 -69 -11 -27 -20 -33 -59 -38 -25 -4 -43 -11 -40 -16 3 -5 -12 -18
-34 -30 -22 -11 -45 -29 -51 -41 -7 -11 -14 -18 -17 -15 -3 3 0 12 7 21 7 8 8
15 3 15 -18 0 -44 -43 -48 -78 -1 -21 -4 -39 -5 -42 -1 -3 -2 -8 -1 -12 0 -4
-11 -15 -27 -24 -86 -52 -166 -110 -179 -130 -14 -23 -44 -129 -58 -208 -10
-62 -29 -28 -35 67 l-5 82 -30 2 c-16 1 -58 5 -92 9 -44 4 -63 3 -63 -5 0 -6
5 -11 10 -11 6 0 10 -4 10 -10 0 -5 -9 -10 -19 -10 -11 0 -23 5 -26 10 -3 6
-23 10 -43 10 -52 -1 -123 -54 -141 -106 -7 -21 -24 -50 -37 -64 -36 -39 -44
-73 -44 -185 0 -117 -1 -116 83 -113 45 2 50 5 83 50 37 52 93 93 107 79 7 -7
-20 -69 -62 -141 -10 -17 -31 -82 -31 -96 0 -5 29 -9 64 -9 80 0 96 -12 78
-58 -7 -17 -16 -63 -19 -102 -4 -63 -3 -74 19 -105 17 -25 32 -35 50 -35 24 1
25 -1 16 -27 -6 -15 -12 -28 -15 -28 -12 0 -92 76 -102 97 -7 15 -17 23 -25
20 -8 -3 -17 1 -20 9 -10 26 -7 36 9 30 11 -4 15 2 15 20 0 23 -3 25 -25 20
-21 -5 -25 -2 -33 26 -9 35 -19 43 -77 58 -34 8 -44 17 -65 57 -25 48 -26 48
-72 46 -42 -2 -51 1 -96 42 -53 47 -92 125 -74 148 17 22 24 71 23 163 -1 61
5 119 19 177 11 47 20 98 19 114 -2 59 28 140 79 214 117 170 316 382 479 511
155 123 382 257 447 263 36 3 94 35 66 35 -8 1 8 10 35 20 59 24 61 24 46 7
-11 -14 -6 -27 10 -27 5 0 24 13 42 30 30 26 109 69 129 70 4 0 9 -4 12 -9z
m231 -11 c-4 -6 5 -10 19 -10 14 0 26 6 27 13 0 6 4 2 9 -10 5 -13 16 -23 25
-23 18 0 19 -12 4 -27 -9 -9 -3 -15 22 -26 l34 -14 -28 -13 c-21 -10 -30 -11
-39 -2 -7 7 -20 12 -30 12 -14 0 -16 -6 -11 -31 6 -31 6 -31 -27 -24 -28 6
-32 5 -27 -9 9 -24 -29 -21 -50 4 -10 11 -27 20 -38 20 -11 1 2 9 29 20 66 26
88 47 75 71 -11 21 -44 24 -82 10 -20 -8 -25 -7 -23 5 3 20 29 36 36 23 4 -6
20 -4 41 5 41 18 42 18 34 6z m2389 -724 c44 -1 261 -306 368 -516 189 -372
278 -741 278 -1149 0 -172 4 -149 -105 -586 -41 -160 -157 -434 -230 -540 -88
-130 -173 -240 -205 -267 -19 -16 -59 -38 -87 -47 -53 -18 -53 -18 -53 3 0 12
11 44 24 71 13 28 27 78 31 110 4 33 16 87 27 120 14 42 22 105 27 210 9 158
9 160 71 295 38 82 39 90 41 195 2 125 -8 170 -58 269 -33 65 -34 72 -23 107
8 23 11 67 8 113 -6 95 -24 120 -79 111 -35 -6 -38 -5 -61 37 -20 37 -28 43
-54 42 -17 -1 -64 -17 -105 -37 -64 -31 -81 -34 -127 -30 -36 4 -66 0 -97 -11
-50 -20 -64 -15 -126 38 -20 17 -53 44 -73 60 -21 15 -46 47 -56 70 -10 22
-36 59 -59 81 -23 21 -41 44 -41 51 0 7 -8 10 -20 7 -14 -4 -20 1 -24 18 -3
13 -8 38 -12 54 -4 17 -6 69 -5 118 2 67 -3 103 -19 151 -27 83 -28 123 -1
166 11 19 21 47 21 61 0 15 7 32 15 39 8 7 15 20 15 30 0 9 19 32 41 50 l41
33 -6 65 c-6 60 -5 67 18 91 13 14 26 40 28 56 3 33 16 36 76 17 28 -9 36 -8
61 14 38 32 97 52 174 60 60 6 63 5 94 -26 20 -19 33 -43 35 -63 3 -30 8 -33
65 -52 34 -11 72 -30 85 -42 14 -13 31 -23 39 -23 8 0 24 -7 35 -15 36 -27 45
-19 38 34 l-6 48 72 -35 c65 -31 74 -33 82 -18 5 9 16 16 23 16 8 0 15 2 15 5
0 10 -43 90 -77 144 -32 50 -36 53 -69 49 -31 -4 -41 2 -90 48 -52 50 -53 53
-43 84 9 23 15 29 28 24 9 -4 25 -7 35 -8z m-3110 -1233 c-3 -16 -11 -41 -17
-57 -9 -24 -8 -31 8 -42 26 -19 38 -7 30 32 -5 30 -3 35 19 45 14 7 26 19 28
27 2 11 11 7 35 -15 41 -38 136 -56 203 -38 19 5 37 -1 68 -21 23 -15 42 -34
42 -41 0 -8 13 -19 29 -24 17 -6 42 -26 56 -45 42 -55 70 -69 144 -69 54 0 75
-5 113 -28 42 -24 53 -39 93 -120 32 -66 54 -98 75 -110 16 -10 30 -25 30 -33
0 -11 8 -13 33 -9 50 9 109 -16 126 -54 11 -23 19 -30 30 -25 19 8 22 8 123
-4 69 -8 82 -13 125 -50 27 -22 67 -45 90 -51 38 -10 44 -16 54 -53 18 -70 6
-98 -88 -198 l-86 -91 -10 -112 c-5 -62 -14 -121 -20 -133 -74 -130 -90 -149
-134 -155 -53 -7 -161 -60 -196 -97 -19 -20 -30 -45 -36 -80 -9 -59 -44 -116
-108 -179 -26 -25 -43 -49 -40 -57 11 -28 -29 -49 -80 -44 -27 3 -56 9 -65 13
-30 12 -20 -13 22 -56 22 -23 40 -45 40 -49 0 -24 -46 -44 -106 -48 -71 -5
-68 -2 -53 -62 3 -12 -5 -14 -38 -12 -49 3 -55 -10 -23 -51 17 -21 18 -30 10
-53 -6 -15 -18 -33 -27 -39 -23 -17 -10 -44 27 -56 34 -12 37 -21 15 -39 -9
-7 -13 -20 -10 -28 3 -8 0 -21 -6 -28 -9 -11 -9 -18 0 -28 10 -11 8 -16 -6
-24 -17 -10 -17 -11 2 -32 l20 -22 -35 7 c-36 7 -100 49 -100 65 0 5 -8 11
-17 15 -30 10 -67 66 -65 95 2 20 -3 29 -18 33 -15 4 -20 14 -20 36 0 17 4 31
9 31 12 0 -5 84 -18 88 -6 2 -9 8 -5 13 3 5 0 9 -5 9 -6 0 -11 -6 -11 -12 -1
-7 -13 19 -28 57 -25 62 -27 81 -25 163 2 58 -1 101 -9 115 -17 33 -30 94 -33
169 -2 37 -6 72 -10 78 -4 6 -10 57 -14 114 -10 139 -31 176 -146 252 -102 67
-128 98 -193 234 -28 58 -74 133 -102 168 -55 69 -57 80 -24 160 12 29 11 35
-6 52 -18 18 -18 22 -4 70 8 29 36 78 61 110 43 56 45 62 47 132 3 87 -23 174
-57 188 -12 5 -16 9 -9 9 22 1 71 -28 83 -50 14 -26 23 -18 59 53 15 29 34 53
41 54 8 0 36 15 63 32 28 18 51 32 53 32 2 0 1 -12 -3 -27z m946 -2753 c0 -5
-11 -10 -24 -10 -45 0 -38 -19 33 -90 62 -62 77 -72 122 -80 93 -18 226 -12
344 16 257 59 394 83 442 77 27 -3 80 0 118 6 38 5 71 9 72 7 6 -6 -318 -94
-404 -110 -142 -27 -347 -39 -533 -32 -210 7 -420 37 -464 66 l-31 20 118 -6
c64 -4 117 -4 117 0 0 4 -15 13 -32 21 l-33 14 28 1 c31 0 35 16 10 36 -11 8
-13 13 -5 14 6 0 12 9 12 19 0 17 28 28 103 40 4 0 7 -3 7 -9z"/>
<path d="M1272 4405 c-55 -26 -63 -52 -13 -42 15 3 46 3 69 0 l43 -6 -52 -17
c-52 -18 -88 -51 -110 -103 -21 -50 1 -42 69 26 37 37 71 67 75 67 4 0 1 -13
-8 -30 -10 -19 -11 -30 -5 -30 6 0 8 -4 5 -10 -14 -22 23 -8 49 19 16 16 35
27 42 24 9 -3 14 2 14 17 0 15 -9 25 -30 33 -22 8 -30 18 -32 42 -3 25 -8 30
-33 33 -16 1 -54 -9 -83 -23z"/>
<path d="M4730 3745 c0 -10 25 -60 56 -113 58 -98 104 -193 154 -317 50 -123
61 -147 66 -142 12 12 -42 170 -96 284 -58 122 -153 287 -171 298 -5 4 -9 -1
-9 -10z"/>
</g>
</svg>
