<?xml version="1.0" standalone="no"?>
<!DOCTYPE svg PUBLIC "-//W3C//DTD SVG 20010904//EN"
 "http://www.w3.org/TR/2001/REC-SVG-20010904/DTD/svg10.dtd">
<svg version="1.0" xmlns="http://www.w3.org/2000/svg"
 width="512.000000pt" height="512.000000pt" viewBox="0 0 512.000000 512.000000"
 preserveAspectRatio="xMidYMid meet">
<metadata>
Created by potrace 1.16, written by Peter Selinger 2001-2019
</metadata>
<g transform="translate(0.000000,512.000000) scale(0.100000,-0.100000)"
fill="#000000" stroke="none">
<path d="M1255 5102 c-152 -53 -261 -168 -300 -317 -12 -46 -15 -118 -15 -323
l0 -263 26 -26 c21 -21 32 -24 62 -19 71 11 72 17 72 300 0 197 3 264 15 304
20 68 96 151 167 183 l53 24 1225 0 1225 0 53 -24 c71 -32 147 -115 167 -183
13 -45 15 -220 15 -1380 l0 -1329 25 -24 c32 -33 78 -33 110 0 l25 24 0 1338
c0 1460 2 1396 -56 1504 -40 72 -119 145 -203 187 l-75 37 -1270 2 c-1186 2
-1274 1 -1321 -15z"/>
<path d="M2130 4798 c-27 -30 -26 -79 3 -106 23 -22 29 -22 309 -22 l287 0 20
26 c28 35 27 75 -2 102 -23 22 -29 22 -310 22 -282 0 -287 0 -307 -22z"/>
<path d="M2880 4798 c-47 -50 -9 -128 62 -128 68 0 103 83 55 128 -31 30 -89
30 -117 0z"/>
<path d="M1430 4454 c-45 -20 -87 -59 -111 -106 -18 -36 -19 -73 -19 -1023 0
-950 1 -987 19 -1023 25 -48 66 -87 113 -106 33 -14 164 -16 1130 -16 1043 0
1095 1 1133 19 22 10 52 31 67 47 61 65 58 12 58 1079 0 1067 3 1014 -58 1079
-57 61 -82 66 -349 66 l-242 0 -20 -26 c-26 -34 -27 -64 -1 -97 l20 -26 225
-3 c218 -3 225 -4 247 -26 l23 -23 3 -519 3 -520 -198 0 -198 0 -18 80 c-46
205 -186 384 -368 474 -124 61 -189 76 -324 76 -135 0 -200 -15 -325 -77 -77
-38 -109 -61 -175 -127 -106 -107 -181 -248 -200 -381 l-7 -45 -204 0 -205 0
3 520 3 519 23 23 23 23 704 5 c689 5 704 5 719 25 22 29 20 77 -4 103 l-21
22 -717 0 c-618 -1 -722 -3 -752 -16z m1320 -783 c178 -67 319 -230 353 -408
l7 -33 -545 0 -544 0 6 33 c26 139 123 277 251 358 135 86 324 106 472 50z
m918 -941 c-3 -348 -3 -350 -26 -372 l-23 -23 -1059 0 -1059 0 -23 23 c-23 22
-23 24 -26 372 l-3 350 1111 0 1111 0 -3 -350z"/>
<path d="M2127 2912 c-23 -26 -22 -94 1 -115 17 -15 62 -17 439 -17 474 0 453
-4 453 77 0 76 17 73 -457 73 -394 0 -421 -1 -436 -18z"/>
<path d="M2270 2608 c-27 -30 -26 -79 3 -106 23 -21 30 -22 294 -22 l272 0 20
26 c28 35 27 75 -2 102 -23 21 -30 22 -295 22 -266 0 -272 0 -292 -22z"/>
<path d="M965 3935 l-25 -24 0 -1758 c0 -1920 -3 -1814 56 -1924 40 -72 119
-145 203 -187 l75 -37 1286 0 1286 0 75 37 c84 42 163 115 203 187 56 104 56
106 56 849 l0 683 -25 24 c-32 33 -78 33 -110 0 l-25 -24 0 -674 c0 -574 -2
-681 -15 -725 -20 -68 -96 -151 -167 -183 l-53 -24 -1225 0 -1225 0 -53 24
c-71 32 -147 115 -167 183 -13 45 -15 264 -15 1800 l0 1749 -25 24 c-15 16
-36 25 -55 25 -19 0 -40 -9 -55 -25z"/>
<path d="M1415 1965 c-74 -40 -114 -107 -115 -190 0 -99 76 -202 204 -279 83
-50 122 -49 204 5 158 103 228 229 191 340 -18 52 -56 97 -101 120 -35 18 -52
20 -112 15 -85 -7 -73 -7 -166 0 -58 4 -82 1 -105 -11z m129 -160 c25 -19 95
-19 120 0 46 35 96 3 77 -47 -11 -28 -117 -128 -135 -128 -38 0 -146 106 -146
144 0 44 45 60 84 31z"/>
<path d="M2139 1957 c-18 -12 -44 -38 -56 -56 -21 -32 -23 -45 -23 -181 0
-136 2 -150 23 -180 48 -71 58 -74 266 -80 l187 -5 39 -31 c56 -44 79 -54 120
-54 45 0 87 21 109 54 13 21 16 57 16 234 0 201 -1 210 -23 243 -12 18 -38 44
-56 56 -33 23 -40 23 -301 23 -261 0 -268 0 -301 -23z m515 -143 c13 -12 16
-39 16 -133 l0 -118 -47 23 c-43 22 -58 24 -214 24 -204 0 -199 -3 -199 110 0
114 -9 110 230 110 167 0 201 -2 214 -16z"/>
<path d="M2987 1772 c-23 -26 -22 -94 1 -115 17 -15 60 -17 409 -17 440 0 423
-3 423 77 0 75 14 73 -427 73 -365 0 -391 -1 -406 -18z"/>
<path d="M1317 1232 c-23 -26 -22 -94 1 -115 15 -14 42 -17 154 -17 155 0 168
6 168 77 0 67 -15 73 -172 73 -118 0 -137 -2 -151 -18z"/>
<path d="M1807 1232 c-23 -26 -22 -94 1 -115 17 -15 59 -17 404 -17 435 0 418
-3 418 77 0 75 13 73 -422 73 -360 0 -386 -1 -401 -18z"/>
<path d="M1317 932 c-23 -26 -22 -94 1 -115 17 -15 59 -17 404 -17 435 0 418
-3 418 77 0 75 13 73 -422 73 -360 0 -386 -1 -401 -18z"/>
<path d="M2307 932 c-23 -26 -22 -94 1 -115 17 -15 62 -17 435 -17 l416 0 20
26 c27 34 27 64 0 98 l-20 26 -418 0 c-392 0 -419 -1 -434 -18z"/>
<path d="M3360 930 c-12 -12 -20 -33 -20 -55 0 -22 8 -43 20 -55 19 -19 33
-20 219 -20 l200 0 20 26 c28 35 27 75 -2 102 -22 21 -32 22 -220 22 -184 0
-198 -1 -217 -20z"/>
<path d="M1317 632 c-23 -26 -22 -94 1 -115 16 -15 53 -17 319 -17 284 0 301
1 317 19 10 11 18 36 18 56 0 20 -8 45 -18 56 -16 18 -33 19 -319 19 -280 0
-303 -1 -318 -18z"/>
<path d="M2187 632 c-23 -26 -22 -94 1 -115 17 -15 66 -17 494 -17 536 0 508
-4 508 77 0 76 23 73 -512 73 -447 0 -476 -1 -491 -18z"/>
</g>
</svg>
