<?xml version="1.0" encoding="UTF-8"?>
<!DOCTYPE svg PUBLIC "-//W3C//DTD SVG 1.1//EN" "http://www.w3.org/Graphics/SVG/1.1/DTD/svg11.dtd">
<svg xmlns="http://www.w3.org/2000/svg" version="1.1" width="500px" height="500px" style="shape-rendering:geometricPrecision; text-rendering:geometricPrecision; image-rendering:optimizeQuality; fill-rule:evenodd; clip-rule:evenodd" xmlns:xlink="http://www.w3.org/1999/xlink">
<g><path style="opacity:0.998" fill="#020202" d="M 298.5,247.5 C 296.447,247.402 294.78,248.069 293.5,249.5C 268.121,258.691 242.454,259.691 216.5,252.5C 214.485,251.076 212.152,250.41 209.5,250.5C 207.901,250.768 206.568,250.434 205.5,249.5C 204.22,248.069 202.553,247.402 200.5,247.5C 199.22,246.069 197.553,245.402 195.5,245.5C 193.181,245.008 191.181,244.008 189.5,242.5C 189.027,241.094 188.027,240.427 186.5,240.5C 185.508,240.672 184.842,240.338 184.5,239.5C 184.027,238.094 183.027,237.427 181.5,237.5C 181.027,236.094 180.027,235.427 178.5,235.5C 174.268,233.6 170.601,230.933 167.5,227.5C 166.415,225.413 164.749,224.08 162.5,223.5C 136.349,199.6 123.016,169.767 122.5,134C 125.517,81.8536 150.517,44.6869 197.5,22.5C 201.358,22.2299 204.691,20.8966 207.5,18.5C 260.997,2.82613 307.163,14.8261 346,54.5C 377.309,92.688 384.309,135.021 367,181.5C 352.783,212.553 329.949,234.553 298.5,247.5 Z"/></g>
<g><path style="opacity:0.549" fill="#585858" d="M 207.5,18.5 C 204.691,20.8966 201.358,22.2299 197.5,22.5C 200.518,20.6001 203.851,19.2667 207.5,18.5 Z"/></g>
<g><path style="opacity:0.533" fill="#838383" d="M 162.5,223.5 C 164.749,224.08 166.415,225.413 167.5,227.5C 165.251,226.92 163.585,225.587 162.5,223.5 Z"/></g>
<g><path style="opacity:0.231" fill="#767676" d="M 178.5,235.5 C 180.027,235.427 181.027,236.094 181.5,237.5C 179.973,237.573 178.973,236.906 178.5,235.5 Z"/></g>
<g><path style="opacity:0.184" fill="#8e8e8e" d="M 181.5,237.5 C 183.027,237.427 184.027,238.094 184.5,239.5C 182.973,239.573 181.973,238.906 181.5,237.5 Z"/></g>
<g><path style="opacity:0.169" fill="#aaaaaa" d="M 186.5,240.5 C 188.027,240.427 189.027,241.094 189.5,242.5C 187.973,242.573 186.973,241.906 186.5,240.5 Z"/></g>
<g><path style="opacity:0.075" fill="#d1d1d1" d="M 195.5,245.5 C 197.553,245.402 199.22,246.069 200.5,247.5C 198.447,247.598 196.78,246.931 195.5,245.5 Z"/></g>
<g><path style="opacity:0.998" fill="#010101" d="M 181.5,252.5 C 181.427,254.027 182.094,255.027 183.5,255.5C 183.427,257.027 184.094,258.027 185.5,258.5C 185.427,260.027 186.094,261.027 187.5,261.5C 188.674,262.514 189.34,263.847 189.5,265.5C 189.427,267.027 190.094,268.027 191.5,268.5C 192.338,268.842 192.672,269.508 192.5,270.5C 192.427,272.027 193.094,273.027 194.5,273.5C 195.338,273.842 195.672,274.508 195.5,275.5C 195.427,277.027 196.094,278.027 197.5,278.5C 197.427,280.027 198.094,281.027 199.5,281.5C 200.338,281.842 200.672,282.508 200.5,283.5C 200.427,285.027 201.094,286.027 202.5,286.5C 203.338,286.842 203.672,287.508 203.5,288.5C 203.427,290.027 204.094,291.027 205.5,291.5C 206.89,292.899 207.89,294.566 208.5,296.5C 208.427,298.027 209.094,299.027 210.5,299.5C 212.083,301.663 213.416,303.996 214.5,306.5C 214.427,308.027 215.094,309.027 216.5,309.5C 217.338,309.842 217.672,310.508 217.5,311.5C 217.427,313.027 218.094,314.027 219.5,314.5C 220.338,314.842 220.672,315.508 220.5,316.5C 220.427,318.027 221.094,319.027 222.5,319.5C 223.338,319.842 223.672,320.508 223.5,321.5C 223.427,323.027 224.094,324.027 225.5,324.5C 226.338,324.842 226.672,325.508 226.5,326.5C 226.427,328.027 227.094,329.027 228.5,329.5C 229.338,329.842 229.672,330.508 229.5,331.5C 229.427,333.027 230.094,334.027 231.5,334.5C 232.338,334.842 232.672,335.508 232.5,336.5C 232.427,338.027 233.094,339.027 234.5,339.5C 235.338,339.842 235.672,340.508 235.5,341.5C 235.427,343.027 236.094,344.027 237.5,344.5C 238.338,344.842 238.672,345.508 238.5,346.5C 238.427,348.027 239.094,349.027 240.5,349.5C 241.338,349.842 241.672,350.508 241.5,351.5C 241.427,353.027 242.094,354.027 243.5,354.5C 245.39,356.59 247.057,358.923 248.5,361.5C 249.521,360.099 250.521,358.765 251.5,357.5C 252.906,357.027 253.573,356.027 253.5,354.5C 253.328,353.508 253.662,352.842 254.5,352.5C 255.906,352.027 256.573,351.027 256.5,349.5C 257.906,349.027 258.573,348.027 258.5,346.5C 258.328,345.508 258.662,344.842 259.5,344.5C 260.906,344.027 261.573,343.027 261.5,341.5C 261.328,340.508 261.662,339.842 262.5,339.5C 263.906,339.027 264.573,338.027 264.5,336.5C 264.328,335.508 264.662,334.842 265.5,334.5C 266.906,334.027 267.573,333.027 267.5,331.5C 267.328,330.508 267.662,329.842 268.5,329.5C 269.906,329.027 270.573,328.027 270.5,326.5C 270.328,325.508 270.662,324.842 271.5,324.5C 272.906,324.027 273.573,323.027 273.5,321.5C 273.328,320.508 273.662,319.842 274.5,319.5C 275.906,319.027 276.573,318.027 276.5,316.5C 276.328,315.508 276.662,314.842 277.5,314.5C 278.906,314.027 279.573,313.027 279.5,311.5C 279.328,310.508 279.662,309.842 280.5,309.5C 281.906,309.027 282.573,308.027 282.5,306.5C 282.328,305.508 282.662,304.842 283.5,304.5C 284.906,304.027 285.573,303.027 285.5,301.5C 285.328,300.508 285.662,299.842 286.5,299.5C 287.906,299.027 288.573,298.027 288.5,296.5C 288.328,295.508 288.662,294.842 289.5,294.5C 290.906,294.027 291.573,293.027 291.5,291.5C 291.328,290.508 291.662,289.842 292.5,289.5C 293.906,289.027 294.573,288.027 294.5,286.5C 294.328,285.508 294.662,284.842 295.5,284.5C 296.906,284.027 297.573,283.027 297.5,281.5C 298.906,281.027 299.573,280.027 299.5,278.5C 299.328,277.508 299.662,276.842 300.5,276.5C 301.906,276.027 302.573,275.027 302.5,273.5C 303.906,273.027 304.573,272.027 304.5,270.5C 304.328,269.508 304.662,268.842 305.5,268.5C 306.906,268.027 307.573,267.027 307.5,265.5C 307.328,264.508 307.662,263.842 308.5,263.5C 309.906,263.027 310.573,262.027 310.5,260.5C 310.328,259.508 310.662,258.842 311.5,258.5C 312.906,258.027 313.573,257.027 313.5,255.5C 315.5,254.167 317.167,252.5 318.5,250.5C 320.027,250.573 321.027,249.906 321.5,248.5C 325.606,246.555 329.939,246.055 334.5,247C 367.558,259.845 396.558,278.678 421.5,303.5C 421.738,305.404 422.738,306.738 424.5,307.5C 427.5,309.833 430.167,312.5 432.5,315.5C 432.427,317.027 433.094,318.027 434.5,318.5C 439.803,324.644 444.969,330.978 450,337.5C 451.777,340.059 453.277,342.726 454.5,345.5C 454.427,347.027 455.094,348.027 456.5,348.5C 479.657,386.113 491.491,427.113 492,471.5C 490.154,478.577 485.987,483.577 479.5,486.5C 325.145,486.827 170.812,486.494 16.5,485.5C 10.8435,482.903 7.01021,478.569 5,472.5C 5.16397,431.333 15.164,392.666 35,356.5C 38.9715,349.383 43.4715,342.716 48.5,336.5C 49.9063,336.027 50.573,335.027 50.5,333.5C 52.4821,330.19 54.8154,327.19 57.5,324.5C 58.9063,324.027 59.573,323.027 59.5,321.5C 59.8333,320.5 60.5,319.833 61.5,319.5C 63.2624,318.738 64.2624,317.404 64.5,315.5C 66.1667,313.167 68.1667,311.167 70.5,309.5C 74.5,306.167 78.1667,302.5 81.5,298.5C 82.8333,296.5 84.5,294.833 86.5,293.5C 88.7488,292.92 90.4154,291.587 91.5,289.5C 91.5,288.833 91.8333,288.5 92.5,288.5C 94.7488,287.92 96.4154,286.587 97.5,284.5C 98.2623,282.738 99.5956,281.738 101.5,281.5C 103.749,280.92 105.415,279.587 106.5,277.5C 110.148,274.34 114.148,271.673 118.5,269.5C 120.027,269.573 121.027,268.906 121.5,267.5C 121.842,266.662 122.508,266.328 123.5,266.5C 125.027,266.573 126.027,265.906 126.5,264.5C 137.765,257.368 149.765,251.535 162.5,247C 169.946,245.41 176.28,247.244 181.5,252.5 Z"/></g>
<g><path style="opacity:0.063" fill="#d4d4d4" d="M 200.5,247.5 C 202.553,247.402 204.22,248.069 205.5,249.5C 203.447,249.598 201.78,248.931 200.5,247.5 Z"/></g>
<g><path style="opacity:0.063" fill="#d0d0d0" d="M 298.5,247.5 C 297.22,248.931 295.553,249.598 293.5,249.5C 294.78,248.069 296.447,247.402 298.5,247.5 Z"/></g>
<g><path style="opacity:0.545" fill="#6d6d6d" d="M 321.5,248.5 C 321.027,249.906 320.027,250.573 318.5,250.5C 318.973,249.094 319.973,248.427 321.5,248.5 Z"/></g>
<g><path style="opacity:0.816" fill="#666666" d="M 209.5,250.5 C 212.152,250.41 214.485,251.076 216.5,252.5C 213.848,252.59 211.515,251.924 209.5,250.5 Z"/></g>
<g><path style="opacity:0.376" fill="#949494" d="M 181.5,252.5 C 182.906,252.973 183.573,253.973 183.5,255.5C 182.094,255.027 181.427,254.027 181.5,252.5 Z"/></g>
<g><path style="opacity:0.365" fill="#888888" d="M 318.5,250.5 C 317.167,252.5 315.5,254.167 313.5,255.5C 314.167,252.833 315.833,251.167 318.5,250.5 Z"/></g>
<g><path style="opacity:0.239" fill="#838383" d="M 183.5,255.5 C 184.906,255.973 185.573,256.973 185.5,258.5C 184.094,258.027 183.427,257.027 183.5,255.5 Z"/></g>
<g><path style="opacity:0.243" fill="#818181" d="M 313.5,255.5 C 313.573,257.027 312.906,258.027 311.5,258.5C 311.427,256.973 312.094,255.973 313.5,255.5 Z"/></g>
<g><path style="opacity:0.137" fill="#a0a0a0" d="M 185.5,258.5 C 186.906,258.973 187.573,259.973 187.5,261.5C 186.094,261.027 185.427,260.027 185.5,258.5 Z"/></g>
<g><path style="opacity:0.161" fill="#7f7f7f" d="M 310.5,260.5 C 310.573,262.027 309.906,263.027 308.5,263.5C 308.427,261.973 309.094,260.973 310.5,260.5 Z"/></g>
<g><path style="opacity:0.38" fill="#777777" d="M 126.5,264.5 C 126.027,265.906 125.027,266.573 123.5,266.5C 123.973,265.094 124.973,264.427 126.5,264.5 Z"/></g>
<g><path style="opacity:0.129" fill="#7f7f7f" d="M 189.5,265.5 C 190.906,265.973 191.573,266.973 191.5,268.5C 190.094,268.027 189.427,267.027 189.5,265.5 Z"/></g>
<g><path style="opacity:0.145" fill="#7c7c7c" d="M 307.5,265.5 C 307.573,267.027 306.906,268.027 305.5,268.5C 305.427,266.973 306.094,265.973 307.5,265.5 Z"/></g>
<g><path style="opacity:0.443" fill="#6e6e6e" d="M 121.5,267.5 C 121.027,268.906 120.027,269.573 118.5,269.5C 118.973,268.094 119.973,267.427 121.5,267.5 Z"/></g>
<g><path style="opacity:0.137" fill="#7d7d7d" d="M 192.5,270.5 C 193.906,270.973 194.573,271.973 194.5,273.5C 193.094,273.027 192.427,272.027 192.5,270.5 Z"/></g>
<g><path style="opacity:0.192" fill="#777777" d="M 304.5,270.5 C 304.573,272.027 303.906,273.027 302.5,273.5C 302.427,271.973 303.094,270.973 304.5,270.5 Z"/></g>
<g><path style="opacity:0.161" fill="#969696" d="M 302.5,273.5 C 302.573,275.027 301.906,276.027 300.5,276.5C 300.427,274.973 301.094,273.973 302.5,273.5 Z"/></g>
<g><path style="opacity:0.169" fill="#777777" d="M 195.5,275.5 C 196.906,275.973 197.573,276.973 197.5,278.5C 196.094,278.027 195.427,277.027 195.5,275.5 Z"/></g>
<g><path style="opacity:0.675" fill="#4f4f4f" d="M 106.5,277.5 C 105.415,279.587 103.749,280.92 101.5,281.5C 102.585,279.413 104.251,278.08 106.5,277.5 Z"/></g>
<g><path style="opacity:0.149" fill="#989898" d="M 197.5,278.5 C 198.906,278.973 199.573,279.973 199.5,281.5C 198.094,281.027 197.427,280.027 197.5,278.5 Z"/></g>
<g><path style="opacity:0.176" fill="#909090" d="M 299.5,278.5 C 299.573,280.027 298.906,281.027 297.5,281.5C 297.427,279.973 298.094,278.973 299.5,278.5 Z"/></g>
<g><path style="opacity:0.161" fill="#b0b0b0" d="M 297.5,281.5 C 297.573,283.027 296.906,284.027 295.5,284.5C 295.427,282.973 296.094,281.973 297.5,281.5 Z"/></g>
<g><path style="opacity:0.196" fill="#919191" d="M 200.5,283.5 C 201.906,283.973 202.573,284.973 202.5,286.5C 201.094,286.027 200.427,285.027 200.5,283.5 Z"/></g>
<g><path style="opacity:0.769" fill="#4e4e4e" d="M 97.5,284.5 C 96.4154,286.587 94.7488,287.92 92.5,288.5C 93.5846,286.413 95.2512,285.08 97.5,284.5 Z"/></g>
<g><path style="opacity:0.176" fill="#ababab" d="M 294.5,286.5 C 294.573,288.027 293.906,289.027 292.5,289.5C 292.427,287.973 293.094,286.973 294.5,286.5 Z"/></g>
<g><path style="opacity:0.212" fill="#8a8a8a" d="M 203.5,288.5 C 204.906,288.973 205.573,289.973 205.5,291.5C 204.094,291.027 203.427,290.027 203.5,288.5 Z"/></g>
<g><path style="opacity:0.671" fill="#545454" d="M 91.5,289.5 C 90.4154,291.587 88.7488,292.92 86.5,293.5C 87.5846,291.413 89.2512,290.08 91.5,289.5 Z"/></g>
<g><path style="opacity:0.184" fill="#a2a2a2" d="M 291.5,291.5 C 291.573,293.027 290.906,294.027 289.5,294.5C 289.427,292.973 290.094,291.973 291.5,291.5 Z"/></g>
<g><path style="opacity:0.149" fill="#a3a3a3" d="M 208.5,296.5 C 209.906,296.973 210.573,297.973 210.5,299.5C 209.094,299.027 208.427,298.027 208.5,296.5 Z"/></g>
<g><path style="opacity:0.188" fill="#999999" d="M 288.5,296.5 C 288.573,298.027 287.906,299.027 286.5,299.5C 286.427,297.973 287.094,296.973 288.5,296.5 Z"/></g>
<g><path style="opacity:0.173" fill="#8f8f8f" d="M 285.5,301.5 C 285.573,303.027 284.906,304.027 283.5,304.5C 283.427,302.973 284.094,301.973 285.5,301.5 Z"/></g>
<g><path style="opacity:0.322" fill="#7f7f7f" d="M 421.5,303.5 C 423.262,304.262 424.262,305.596 424.5,307.5C 422.738,306.738 421.738,305.404 421.5,303.5 Z"/></g>
<g><path style="opacity:0.29" fill="#747474" d="M 81.5,298.5 C 78.1667,302.5 74.5,306.167 70.5,309.5C 73.1667,304.833 76.8333,301.167 81.5,298.5 Z"/></g>
<g><path style="opacity:0.137" fill="#8f8f8f" d="M 214.5,306.5 C 215.906,306.973 216.573,307.973 216.5,309.5C 215.094,309.027 214.427,308.027 214.5,306.5 Z"/></g>
<g><path style="opacity:0.169" fill="#888888" d="M 282.5,306.5 C 282.573,308.027 281.906,309.027 280.5,309.5C 280.427,307.973 281.094,306.973 282.5,306.5 Z"/></g>
<g><path style="opacity:0.129" fill="#888888" d="M 217.5,311.5 C 218.906,311.973 219.573,312.973 219.5,314.5C 218.094,314.027 217.427,313.027 217.5,311.5 Z"/></g>
<g><path style="opacity:0.161" fill="#838383" d="M 279.5,311.5 C 279.573,313.027 278.906,314.027 277.5,314.5C 277.427,312.973 278.094,311.973 279.5,311.5 Z"/></g>
<g><path style="opacity:0.435" fill="#787878" d="M 64.5,315.5 C 64.2624,317.404 63.2624,318.738 61.5,319.5C 61.7376,317.596 62.7376,316.262 64.5,315.5 Z"/></g>
<g><path style="opacity:0.373" fill="#787878" d="M 432.5,315.5 C 433.906,315.973 434.573,316.973 434.5,318.5C 433.094,318.027 432.427,317.027 432.5,315.5 Z"/></g>
<g><path style="opacity:0.133" fill="#848484" d="M 220.5,316.5 C 221.906,316.973 222.573,317.973 222.5,319.5C 221.094,319.027 220.427,318.027 220.5,316.5 Z"/></g>
<g><path style="opacity:0.149" fill="#808080" d="M 276.5,316.5 C 276.573,318.027 275.906,319.027 274.5,319.5C 274.427,317.973 275.094,316.973 276.5,316.5 Z"/></g>
<g><path style="opacity:0.4" fill="#747474" d="M 59.5,321.5 C 59.573,323.027 58.9063,324.027 57.5,324.5C 57.427,322.973 58.0937,321.973 59.5,321.5 Z"/></g>
<g><path style="opacity:0.157" fill="#828282" d="M 223.5,321.5 C 224.906,321.973 225.573,322.973 225.5,324.5C 224.094,324.027 223.427,323.027 223.5,321.5 Z"/></g>
<g><path style="opacity:0.165" fill="#7f7f7f" d="M 273.5,321.5 C 273.573,323.027 272.906,324.027 271.5,324.5C 271.427,322.973 272.094,321.973 273.5,321.5 Z"/></g>
<g><path style="opacity:0.165" fill="#828282" d="M 226.5,326.5 C 227.906,326.973 228.573,327.973 228.5,329.5C 227.094,329.027 226.427,328.027 226.5,326.5 Z"/></g>
<g><path style="opacity:0.145" fill="#7f7f7f" d="M 270.5,326.5 C 270.573,328.027 269.906,329.027 268.5,329.5C 268.427,327.973 269.094,326.973 270.5,326.5 Z"/></g>
<g><path style="opacity:0.133" fill="#828282" d="M 229.5,331.5 C 230.906,331.973 231.573,332.973 231.5,334.5C 230.094,334.027 229.427,333.027 229.5,331.5 Z"/></g>
<g><path style="opacity:0.141" fill="#7f7f7f" d="M 267.5,331.5 C 267.573,333.027 266.906,334.027 265.5,334.5C 265.427,332.973 266.094,331.973 267.5,331.5 Z"/></g>
<g><path style="opacity:0.176" fill="#6e6e6e" d="M 50.5,333.5 C 50.573,335.027 49.9063,336.027 48.5,336.5C 48.427,334.973 49.0937,333.973 50.5,333.5 Z"/></g>
<g><path style="opacity:0.129" fill="#818181" d="M 232.5,336.5 C 233.906,336.973 234.573,337.973 234.5,339.5C 233.094,339.027 232.427,338.027 232.5,336.5 Z"/></g>
<g><path style="opacity:0.165" fill="#7e7e7e" d="M 264.5,336.5 C 264.573,338.027 263.906,339.027 262.5,339.5C 262.427,337.973 263.094,336.973 264.5,336.5 Z"/></g>
<g><path style="opacity:0.141" fill="#7d7d7d" d="M 235.5,341.5 C 236.906,341.973 237.573,342.973 237.5,344.5C 236.094,344.027 235.427,343.027 235.5,341.5 Z"/></g>
<g><path style="opacity:0.161" fill="#797979" d="M 261.5,341.5 C 261.573,343.027 260.906,344.027 259.5,344.5C 259.427,342.973 260.094,341.973 261.5,341.5 Z"/></g>
<g><path style="opacity:0.165" fill="#777777" d="M 454.5,345.5 C 455.906,345.973 456.573,346.973 456.5,348.5C 455.094,348.027 454.427,347.027 454.5,345.5 Z"/></g>
<g><path style="opacity:0.149" fill="#787878" d="M 238.5,346.5 C 239.906,346.973 240.573,347.973 240.5,349.5C 239.094,349.027 238.427,348.027 238.5,346.5 Z"/></g>
<g><path style="opacity:0.192" fill="#707070" d="M 258.5,346.5 C 258.573,348.027 257.906,349.027 256.5,349.5C 256.427,347.973 257.094,346.973 258.5,346.5 Z"/></g>
<g><path style="opacity:0.145" fill="#8f8f8f" d="M 256.5,349.5 C 256.573,351.027 255.906,352.027 254.5,352.5C 254.427,350.973 255.094,349.973 256.5,349.5 Z"/></g>
<g><path style="opacity:0.176" fill="#6f6f6f" d="M 241.5,351.5 C 242.906,351.973 243.573,352.973 243.5,354.5C 242.094,354.027 241.427,353.027 241.5,351.5 Z"/></g>
<g><path style="opacity:0.18" fill="#868686" d="M 253.5,354.5 C 253.573,356.027 252.906,357.027 251.5,357.5C 251.427,355.973 252.094,354.973 253.5,354.5 Z"/></g>
<g><path style="opacity:0.089" fill="#5c5c5c" d="M 16.5,485.5 C 170.812,486.494 325.145,486.827 479.5,486.5C 326.334,487.666 173.001,487.833 19.5,487C 18.2625,486.768 17.2625,486.268 16.5,485.5 Z"/></g>
</svg>
