<?xml version="1.0" encoding="UTF-8"?>
<!DOCTYPE svg PUBLIC "-//W3C//DTD SVG 1.1//EN" "http://www.w3.org/Graphics/SVG/1.1/DTD/svg11.dtd">
<svg xmlns="http://www.w3.org/2000/svg" version="1.1" width="512px" height="512px" style="shape-rendering:geometricPrecision; text-rendering:geometricPrecision; image-rendering:optimizeQuality; fill-rule:evenodd; clip-rule:evenodd" xmlns:xlink="http://www.w3.org/1999/xlink">
<g><path style="opacity:0.972" fill="#000000" d="M 244.5,11.5 C 298.421,9.20747 339.921,30.5408 369,75.5C 395.384,127.751 390.051,176.418 353,221.5C 314.843,259.001 269.676,271.167 217.5,258C 174.59,244.757 145.757,216.924 131,174.5C 116.315,113.061 135.149,64.8945 187.5,30C 205.359,19.8791 224.359,13.7124 244.5,11.5 Z M 244.5,54.5 C 287.362,51.6679 318.195,69.3346 337,107.5C 349.968,148.93 338.802,182.097 303.5,207C 267.502,226.615 232.836,224.615 199.5,201C 166.33,170.816 159.83,135.649 180,95.5C 195.482,72.3438 216.982,58.6771 244.5,54.5 Z"/></g>
<g><path style="opacity:0.971" fill="#000000" d="M 165.5,252.5 C 174.502,251.111 182.002,253.777 188,260.5C 209.665,297.167 231.831,333.5 254.5,369.5C 276.251,334.333 297.751,299 319,263.5C 326.419,252.585 336.253,249.752 348.5,255C 421.852,287.021 470.686,341.188 495,417.5C 501.365,438.721 504.365,460.387 504,482.5C 502.329,488.008 499.495,492.842 495.5,497C 493.608,497.973 491.608,498.64 489.5,499C 333.167,499.667 176.833,499.667 20.5,499C 8.77756,495.065 3.44423,486.898 4.5,474.5C 11.7048,384.866 53.3715,316.699 129.5,270C 141.469,263.847 153.469,258.014 165.5,252.5 Z M 161.5,301.5 C 163.624,302.031 165.124,303.365 166,305.5C 190,345.5 214,385.5 238,425.5C 249.667,437.5 261.333,437.5 273,425.5C 297.606,383.749 322.773,342.416 348.5,301.5C 411.131,334.821 448.798,386.488 461.5,456.5C 324.167,456.5 186.833,456.5 49.5,456.5C 58.4434,404.764 82.7767,361.931 122.5,328C 134.873,318.154 147.873,309.321 161.5,301.5 Z"/></g>
</svg>
