<?xml version="1.0" encoding="UTF-8"?>
<!DOCTYPE svg PUBLIC "-//W3C//DTD SVG 1.1//EN" "http://www.w3.org/Graphics/SVG/1.1/DTD/svg11.dtd">
<svg xmlns="http://www.w3.org/2000/svg" version="1.1" width="512px" height="512px" style="shape-rendering:geometricPrecision; text-rendering:geometricPrecision; image-rendering:optimizeQuality; fill-rule:evenodd; clip-rule:evenodd" xmlns:xlink="http://www.w3.org/1999/xlink">
<g><path style="opacity:1" fill="#fdfdfd" d="M -0.5,-0.5 C 170.167,-0.5 340.833,-0.5 511.5,-0.5C 511.5,170.167 511.5,340.833 511.5,511.5C 340.833,511.5 170.167,511.5 -0.5,511.5C -0.5,340.833 -0.5,170.167 -0.5,-0.5 Z"/></g>
<g><path style="opacity:1" fill="#000000" d="M 238.5,12.5 C 293.339,8.34281 336.173,28.6761 367,73.5C 385.406,104.228 389.74,136.895 380,171.5C 361.871,224.278 325.038,254.445 269.5,262C 213.354,265.679 170.521,243.846 141,196.5C 113.917,137.475 124.083,85.9747 171.5,42C 191.289,26.2426 213.622,16.4093 238.5,12.5 Z"/></g>
<g><path style="opacity:1" fill="#000000" d="M 167.5,252.5 C 175.692,252.345 182.526,255.345 188,261.5C 209.679,298.203 231.846,334.536 254.5,370.5C 276.251,335.333 297.751,300 319,264.5C 327.381,251.712 338.214,249.212 351.5,257C 431.063,293.242 480.563,354.076 500,439.5C 502.509,453.412 503.842,467.412 504,481.5C 502.315,487.041 499.482,491.874 495.5,496C 493.913,496.862 492.246,497.529 490.5,498C 333.167,498.667 175.833,498.667 18.5,498C 12.5815,495.083 8.41484,490.583 6,484.5C 5.9441,424.306 25.2774,371.306 64,325.5C 92.8753,293.114 127.375,268.781 167.5,252.5 Z"/></g>
</svg>
