<?xml version="1.0" standalone="no"?>
<!DOCTYPE svg PUBLIC "-//W3C//DTD SVG 20010904//EN"
 "http://www.w3.org/TR/2001/REC-SVG-20010904/DTD/svg10.dtd">
<svg version="1.0" xmlns="http://www.w3.org/2000/svg"
 width="512.000000pt" height="512.000000pt" viewBox="0 0 512.000000 512.000000"
 preserveAspectRatio="xMidYMid meet">
<metadata>
Created by potrace 1.16, written by Peter Selinger 2001-2019
</metadata>
<g transform="translate(0.000000,512.000000) scale(0.100000,-0.100000)"
fill="#000000" stroke="none">
<path d="M2100 4699 c-411 -53 -788 -230 -1087 -512 -492 -465 -704 -1155
-557 -1816 228 -1023 1233 -1677 2259 -1470 232 47 481 151 682 285 61 41 115
79 119 85 4 6 179 -161 418 -399 278 -278 423 -416 448 -426 49 -21 150 -21
191 0 99 50 143 153 112 262 -16 56 -27 67 -432 473 -236 237 -410 419 -404
423 21 14 154 222 203 320 332 661 258 1445 -190 2033 -314 412 -792 684
-1307 743 -104 11 -361 11 -455 -1z m478 -444 c532 -86 992 -476 1163 -985 60
-181 73 -266 73 -480 0 -164 -3 -211 -22 -297 -71 -328 -230 -601 -478 -822
-190 -169 -424 -286 -687 -343 -138 -30 -426 -32 -562 -5 -597 121 -1042 549
-1182 1137 -37 155 -43 409 -15 575 52 300 182 560 391 777 157 164 318 273
521 355 256 103 523 132 798 88z"/>
</g>
</svg>
