<?xml version="1.0" standalone="no"?>
<!DOCTYPE svg PUBLIC "-//W3C//DTD SVG 20010904//EN"
 "http://www.w3.org/TR/2001/REC-SVG-20010904/DTD/svg10.dtd">
<svg version="1.0" xmlns="http://www.w3.org/2000/svg"
 width="512.000000pt" height="512.000000pt" viewBox="0 0 512.000000 512.000000"
 preserveAspectRatio="xMidYMid meet">
<metadata>
Created by potrace 1.16, written by Peter Selinger 2001-2019
</metadata>
<g transform="translate(0.000000,512.000000) scale(0.100000,-0.100000)"
fill="#000000" stroke="none">
<path d="M2992 4628 c-13 -6 -91 -88 -175 -182 l-151 -171 -120 -6 -121 -6
-110 116 c-215 228 -227 239 -270 247 -22 4 -62 2 -90 -3 -132 -28 -453 -172
-512 -230 -19 -20 -35 -48 -39 -70 -4 -20 -1 -138 6 -261 l13 -224 -89 -88
-89 -88 -220 8 c-137 6 -234 5 -257 -1 -51 -13 -93 -66 -154 -194 -108 -227
-155 -416 -120 -483 9 -18 93 -100 186 -183 l170 -151 0 -101 c0 -56 2 -111 5
-122 3 -16 -33 -54 -161 -170 -90 -82 -173 -167 -184 -187 -11 -21 -20 -55
-20 -76 0 -110 186 -533 254 -577 48 -32 84 -34 309 -18 l223 15 91 -89 91
-90 -9 -219 c-9 -243 -4 -277 41 -323 71 -71 450 -221 560 -221 34 0 67 7 87
18 17 9 98 92 179 185 l148 167 122 0 122 0 156 -169 c163 -176 183 -191 259
-191 98 0 505 175 561 241 43 51 46 82 30 322 l-15 222 85 89 85 89 235 -7
c312 -9 308 -12 406 197 105 224 152 416 116 485 -9 17 -93 99 -186 182 l-170
151 0 122 0 122 160 148 c170 157 200 198 200 268 0 79 -109 357 -196 500 -42
70 -89 99 -161 99 -26 0 -135 -5 -241 -12 l-193 -12 -85 85 -86 84 7 235 c6
233 6 235 -17 280 -22 42 -34 50 -153 110 -225 114 -445 173 -513 138z m-246
-1298 c150 -38 275 -110 381 -217 306 -311 303 -804 -6 -1114 -269 -269 -672
-311 -993 -103 -155 100 -269 252 -328 439 -28 88 -38 263 -21 360 54 308 309
574 615 640 96 21 259 19 352 -5z"/>
</g>
</svg>
