<?xml version="1.0" standalone="no"?>
<!DOCTYPE svg PUBLIC "-//W3C//DTD SVG 20010904//EN"
 "http://www.w3.org/TR/2001/REC-SVG-20010904/DTD/svg10.dtd">
<svg version="1.0" xmlns="http://www.w3.org/2000/svg"
 width="512.000000pt" height="512.000000pt" viewBox="0 0 512.000000 512.000000"
 preserveAspectRatio="xMidYMid meet">

<g transform="translate(0.000000,512.000000) scale(0.100000,-0.100000)"
fill="#000000" stroke="none">
<path d="M2451 4905 c-165 -46 -243 -124 -364 -362 -48 -94 -106 -197 -130
-229 -82 -111 -211 -222 -318 -274 l-46 -22 -39 24 c-21 13 -47 27 -56 31 -15
5 -18 20 -18 92 0 102 -16 147 -62 175 -39 24 -69 25 -112 5 -47 -23 -66 -62
-66 -139 0 -36 -3 -66 -7 -66 -5 0 -116 80 -248 177 -132 97 -255 182 -274
190 -42 18 -89 10 -126 -19 -15 -12 -81 -102 -146 -200 -175 -263 -176 -257
117 -452 l204 -136 0 -66 0 -67 -37 6 c-21 3 -77 11 -126 18 -75 11 -89 11
-101 -1 -8 -9 -74 -387 -171 -973 -136 -826 -156 -960 -144 -972 9 -10 198
-45 531 -100 285 -47 520 -85 522 -85 3 0 11 -18 17 -40 20 -66 38 -70 135
-33 12 4 14 -86 16 -582 3 -547 4 -589 20 -599 13 -8 23 -8 35 0 17 10 18 49
21 543 l2 531 1080 0 1080 0 2 -531 c3 -494 4 -533 21 -543 12 -8 22 -8 35 0
16 10 17 53 20 623 l2 611 23 -5 c72 -16 456 -85 475 -85 12 0 25 7 29 16 3 9
29 140 57 292 l51 276 348 95 c304 82 348 97 352 115 7 25 -490 1556 -508
1568 -17 11 -24 10 -102 -12 -134 -38 -118 -22 102 106 103 60 202 121 220
137 38 33 52 85 33 125 -35 79 -256 421 -281 436 -15 9 -45 16 -67 16 -36 0
-65 -19 -298 -190 -143 -104 -262 -190 -266 -190 -5 0 -8 30 -8 66 0 77 -19
116 -66 139 -43 20 -73 19 -112 -5 -48 -30 -62 -72 -62 -192 l-1 -103 -58 -62
-58 -63 -268 0 -268 0 7 43 c34 208 39 259 40 417 1 161 -1 180 -22 232 -50
125 -159 233 -281 279 -74 28 -206 35 -280 14z m217 -79 c136 -36 242 -145
279 -283 23 -88 5 -397 -35 -583 l-8 -35 -92 -3 -92 -3 0 51 c0 39 4 50 16 50
27 0 119 101 132 146 7 23 12 99 12 174 0 75 -5 151 -12 174 -16 55 -99 138
-154 154 -82 24 -114 12 -114 -42 0 -37 -30 -105 -54 -125 -15 -12 -22 -12
-52 2 -138 66 -280 -71 -214 -207 21 -45 71 -86 104 -86 14 0 16 -18 16 -145
l0 -145 -364 0 c-327 0 -365 2 -377 17 -10 12 -11 17 -2 20 29 10 139 84 203
136 108 88 187 197 290 398 102 199 142 251 228 297 98 52 190 64 290 38z m70
-261 c52 -44 62 -79 62 -224 0 -89 -4 -142 -14 -164 -18 -44 -68 -85 -114 -92
-20 -3 -44 -10 -52 -14 -24 -13 -24 -48 -1 -63 18 -11 21 -23 21 -78 0 -38 5
-71 12 -78 7 -7 31 -12 55 -12 53 0 57 -18 14 -77 -38 -52 -91 -78 -161 -78
-70 0 -123 26 -161 78 -43 59 -39 77 14 77 24 0 48 5 55 12 17 17 17 402 0
415 -7 6 -30 13 -50 17 -49 9 -82 49 -74 91 13 65 81 85 135 39 23 -19 38 -24
55 -20 37 9 115 102 129 153 13 51 31 55 75 18z m-2047 -136 c15 -8 423 -304
447 -324 2 -1 -21 -16 -51 -33 -68 -38 -131 -109 -155 -176 -11 -28 -29 -112
-42 -186 -25 -156 -28 -170 -40 -170 -5 0 -11 46 -12 102 l-3 101 -198 133
c-227 151 -237 159 -237 190 0 26 209 347 237 363 23 13 30 13 54 0z m3917
-194 c67 -109 121 -206 120 -215 -3 -14 -48 -42 -348 -219 l-95 -56 -3 -48
c-2 -37 -7 -47 -21 -47 -14 0 -23 19 -41 88 -12 48 -31 111 -42 139 -25 67
-103 154 -169 186 l-49 25 237 176 c177 131 244 175 263 173 21 -2 45 -34 148
-202z m-3218 26 c6 -13 10 -148 10 -370 l0 -351 -161 0 -161 0 4 143 c3 122 7
148 25 182 29 55 89 110 145 135 26 11 52 29 58 40 5 10 10 63 10 117 0 64 4
103 12 111 18 18 46 14 58 -7z m2398 7 c8 -8 12 -48 12 -113 0 -123 9 -140 69
-137 76 5 170 -53 215 -132 25 -41 85 -250 75 -260 -6 -6 -411 -116 -427 -116
-9 0 -12 92 -12 369 0 323 2 372 16 385 19 19 36 20 52 4z m-2752 -370 c-30
-60 -31 -68 -34 -210 l-4 -148 -27 0 -28 0 18 113 c30 179 38 212 69 261 16
25 31 46 33 46 2 0 -10 -28 -27 -62z m498 -74 c10 -27 7 -105 -9 -194 -8 -47
-15 -86 -15 -87 0 -2 -7 -3 -15 -3 -13 0 -15 23 -15 150 l0 150 24 0 c13 0 27
-7 30 -16z m762 -34 c17 -60 74 -124 138 -158 42 -22 64 -26 126 -26 62 0 84
4 126 26 64 34 121 98 138 158 l13 45 329 3 329 2 -3 -77 c-3 -57 2 -99 19
-160 12 -46 20 -86 17 -89 -5 -4 -448 74 -523 92 -47 11 -49 5 -165 -626 -61
-333 -114 -614 -118 -624 -6 -13 -75 181 -236 665 -126 376 -235 691 -243 699
-12 13 -44 4 -264 -69 -138 -45 -252 -81 -253 -79 -2 1 -6 63 -9 136 l-5 132
286 -2 285 -3 13 -45z m1344 -125 c0 -96 -4 -175 -8 -175 -15 0 -62 196 -62
259 0 78 6 91 41 91 l29 0 0 -175z m-2001 -7 l1 -118 -25 0 c-21 0 -25 4 -20
23 15 69 25 148 26 201 2 110 17 20 18 -106z m805 -765 l245 -733 -25 -133
-25 -132 -52 -16 c-29 -9 -324 -109 -658 -222 l-605 -205 -63 192 c-35 105
-66 197 -68 204 -4 9 89 12 444 12 349 0 453 3 467 13 16 12 15 54 -24 822
-22 446 -44 817 -49 825 -5 9 -29 17 -62 20 l-54 5 135 46 c74 26 138 44 142
40 3 -3 117 -336 252 -738z m2076 672 c12 -36 20 -71 18 -79 -5 -21 -962
-1224 -969 -1217 -7 8 -232 1041 -227 1046 1 1 52 17 113 33 72 20 112 27 116
20 4 -6 17 -49 29 -97 26 -97 35 -113 63 -109 40 6 42 30 13 133 -15 54 -23
101 -19 105 4 4 87 28 183 53 96 26 214 58 262 71 l86 24 29 -107 c29 -104 30
-106 60 -109 45 -5 48 19 17 132 -15 53 -24 99 -21 102 5 5 200 61 219 63 3 1
16 -28 28 -64z m-3845 -144 c-3 -42 -22 -404 -41 -804 -26 -553 -32 -732 -23
-743 9 -11 61 -14 252 -16 l240 -3 50 -148 c27 -82 47 -151 43 -154 -6 -6
-926 144 -934 152 -5 4 283 1772 293 1801 2 8 21 8 64 1 l61 -10 -5 -76z
m2565 59 c117 -21 214 -41 216 -43 4 -4 -43 -18 -152 -46 -23 -6 -45 -19 -48
-28 -8 -20 331 -1591 347 -1611 14 -18 16 -17 366 78 162 44 296 79 297 77 1
-1 -17 -105 -40 -232 -31 -168 -46 -231 -57 -233 -8 -1 -158 24 -334 57 -176
33 -457 85 -625 116 -412 75 -513 95 -518 100 -5 5 327 1805 333 1805 2 0 98
-18 215 -40z m-2240 -128 c0 -111 7 -132 42 -132 29 0 38 33 38 139 l0 101
280 0 280 0 0 -108 c0 -107 7 -132 36 -132 34 0 44 30 44 136 l0 104 120 0
120 0 0 -37 c0 -21 3 -54 6 -74 l6 -35 -632 -468 c-348 -257 -633 -465 -635
-464 -2 3 51 1070 54 1076 0 1 55 2 121 2 l120 0 0 -108z m3604 -52 c1 -19
-121 -181 -488 -652 -270 -345 -491 -626 -494 -624 -11 11 -31 130 -24 140 5
6 227 285 493 620 l483 610 14 -35 c8 -19 15 -45 16 -59z m-2626 -170 c1 -35
-4 -38 -641 -517 -353 -264 -644 -480 -646 -478 -2 2 0 34 4 72 l7 68 631 467
c688 508 644 481 645 388z m2827 -437 c87 -269 160 -493 162 -499 2 -6 -58
-27 -149 -51 -196 -53 -1118 -302 -1139 -309 -12 -3 -19 6 -27 36 l-10 41 495
634 c273 349 499 635 502 635 4 0 79 -219 166 -487z m-2821 275 c3 -13 14
-223 26 -468 11 -245 23 -471 26 -502 l6 -58 -681 0 -681 0 1 28 c0 15 4 35 8
45 6 17 1266 975 1283 976 4 1 10 -9 12 -21z m630 -1210 c-12 -66 -10 -100 6
-110 8 -5 240 -50 515 -101 l500 -92 3 -48 3 -47 -1080 0 -1081 0 0 31 c0 24
4 29 18 25 9 -3 81 -15 160 -27 168 -27 164 -29 181 81 7 41 13 75 14 76 8 6
745 253 755 253 11 1 12 -9 6 -41z m-854 -273 c0 -22 -4 -25 -32 -24 -18 1
-44 4 -58 8 -23 7 -22 8 20 23 62 23 70 22 70 -7z"/>
<path d="M2692 4418 c-7 -7 -12 -31 -12 -55 0 -38 -3 -43 -23 -43 -27 0 -47
-17 -47 -42 0 -23 30 -38 75 -38 66 0 75 11 75 93 0 74 -9 97 -40 97 -9 0 -21
-5 -28 -12z"/>
<path d="M2551 4202 c-23 -43 12 -66 114 -78 40 -5 55 -3 68 11 35 35 16 59
-53 68 -25 3 -61 9 -82 13 -30 5 -38 3 -47 -14z"/>
<path d="M2531 666 c-8 -9 -11 -79 -9 -231 3 -195 5 -219 21 -229 12 -8 22 -8
35 0 15 10 17 34 20 229 2 225 -1 245 -38 245 -10 0 -23 -6 -29 -14z"/>
</g>
</svg>
