<?xml version="1.0" standalone="no"?>
<!DOCTYPE svg PUBLIC "-//W3C//DTD SVG 20010904//EN"
 "http://www.w3.org/TR/2001/REC-SVG-20010904/DTD/svg10.dtd">
<svg version="1.0" xmlns="http://www.w3.org/2000/svg"
 width="512.000000pt" height="512.000000pt" viewBox="0 0 512.000000 512.000000"
 preserveAspectRatio="xMidYMid meet">
<metadata>
Created by potrace 1.16, written by Peter Selinger 2001-2019
</metadata>
<g transform="translate(0.000000,512.000000) scale(0.100000,-0.100000)"
fill="#000000" stroke="none">
<path d="M103 5094 c-25 -14 -54 -44 -69 -70 -27 -45 -27 -46 -21 -207 14
-391 156 -777 406 -1102 88 -115 189 -211 678 -646 271 -241 510 -462 531
-491 46 -62 92 -150 118 -228 18 -52 19 -120 24 -1131 l5 -1076 30 -48 c41
-66 97 -95 181 -95 l64 0 632 423 c545 363 636 428 655 461 22 40 22 44 25
705 4 653 5 667 26 739 28 91 72 181 124 250 21 29 260 250 531 490 476 424
592 535 682 652 180 234 311 522 370 814 21 103 25 151 25 296 0 198 -7 220
-84 265 l-43 25 -2424 0 -2424 0 -42 -26z m4602 -416 c-31 -198 -117 -419
-233 -598 -103 -159 -169 -225 -682 -683 -278 -247 -533 -482 -567 -521 -118
-135 -202 -308 -246 -501 -18 -83 -20 -135 -24 -685 l-5 -595 -375 -250 c-206
-137 -379 -251 -384 -253 -5 -2 -10 387 -11 875 -3 868 -4 879 -25 955 -58
206 -143 357 -276 497 -29 30 -270 249 -537 486 -291 260 -511 464 -551 511
-185 220 -317 503 -353 757 l-7 47 2141 0 2142 0 -7 -42z"/>
</g>
</svg>
