<?xml version="1.0" standalone="no"?>
<!DOCTYPE svg PUBLIC "-//W3C//DTD SVG 20010904//EN"
 "http://www.w3.org/TR/2001/REC-SVG-20010904/DTD/svg10.dtd">
<svg version="1.0" xmlns="http://www.w3.org/2000/svg"
 width="512.000000pt" height="512.000000pt" viewBox="0 0 512.000000 512.000000"
 preserveAspectRatio="xMidYMid meet">

<g transform="translate(0.000000,512.000000) scale(0.100000,-0.100000)"
fill="#000000" stroke="none">
<path d="M2300 4953 c-497 -76 -934 -342 -1223 -744 -79 -110 -204 -356 -246
-484 -36 -111 -69 -260 -77 -353 l-7 -69 -81 -7 c-110 -8 -185 -29 -286 -78
-67 -32 -102 -59 -171 -127 -73 -72 -94 -101 -132 -181 -72 -148 -79 -201 -75
-562 4 -297 4 -305 31 -383 60 -181 184 -327 344 -407 131 -66 214 -83 403
-83 176 0 218 12 255 76 19 33 20 57 26 919 6 986 2 935 79 1165 165 496 589
871 1115 986 117 26 367 36 490 20 346 -46 643 -194 887 -443 201 -204 332
-450 401 -750 20 -90 21 -124 26 -978 7 -985 2 -924 74 -969 31 -19 49 -21
209 -21 141 0 190 4 252 20 231 59 415 232 493 465 27 78 27 86 31 383 4 361
-3 415 -75 562 -39 79 -61 109 -132 181 -129 128 -268 191 -457 205 l-81 7 -7
69 c-17 187 -78 384 -181 593 -88 176 -174 301 -304 437 -291 306 -654 493
-1072 553 -131 18 -383 18 -509 -2z"/>
<path d="M683 1247 c9 -66 61 -209 106 -293 145 -269 393 -464 689 -541 73
-19 132 -26 242 -30 l146 -6 0 92 1 91 -101 0 c-126 0 -208 13 -313 49 -273
94 -494 325 -573 600 l-24 81 -89 0 -90 0 6 -43z"/>
<path d="M2280 777 c-142 -40 -236 -167 -234 -318 2 -118 72 -227 182 -281 46
-22 54 -23 332 -23 278 0 286 1 332 23 192 95 243 344 102 501 -26 29 -69 62
-102 78 l-57 28 -255 2 c-181 2 -268 -1 -300 -10z"/>
</g>
</svg>
