<?xml version="1.0" standalone="no"?>
<!DOCTYPE svg PUBLIC "-//W3C//DTD SVG 20010904//EN"
 "http://www.w3.org/TR/2001/REC-SVG-20010904/DTD/svg10.dtd">
<svg version="1.0" xmlns="http://www.w3.org/2000/svg"
 width="512.000000pt" height="512.000000pt" viewBox="0 0 512.000000 512.000000"
 preserveAspectRatio="xMidYMid meet">

<g transform="translate(0.000000,512.000000) scale(0.100000,-0.100000)"
fill="#000000" stroke="none">
<path d="M2380 4625 c-351 -56 -660 -285 -824 -612 -234 -468 -101 -1051 314
-1372 305 -235 688 -302 1036 -180 179 62 316 151 455 296 127 132 198 247
258 417 178 504 -54 1082 -537 1334 -223 116 -457 155 -702 117z"/>
<path d="M1479 2416 c-570 -353 -925 -924 -990 -1591 -16 -167 -10 -233 25
-280 54 -70 -110 -65 2060 -63 l1965 3 27 21 c73 54 84 109 65 318 -62 656
-431 1252 -985 1589 l-96 59 -82 -67 c-536 -432 -1279 -432 -1815 -1 -45 36
-83 66 -85 66 -1 0 -42 -24 -89 -54z"/>
</g>
</svg>
