<?xml version="1.0" standalone="no"?>
<!DOCTYPE svg PUBLIC "-//W3C//DTD SVG 20010904//EN"
 "http://www.w3.org/TR/2001/REC-SVG-20010904/DTD/svg10.dtd">
<svg version="1.0" xmlns="http://www.w3.org/2000/svg"
 width="512.000000pt" height="512.000000pt" viewBox="0 0 512.000000 512.000000"
 preserveAspectRatio="xMidYMid meet">
<metadata>
Created by potrace 1.16, written by Peter Selinger 2001-2019
</metadata>
<g transform="translate(0.000000,512.000000) scale(0.100000,-0.100000)"
fill="#000000" stroke="none">
<path d="M2332 5106 c-512 -97 -870 -449 -989 -971 -26 -114 -26 -444 0 -564
62 -286 194 -531 387 -718 111 -107 181 -157 305 -218 191 -94 322 -125 525
-125 203 0 334 31 525 125 348 171 601 513 692 936 26 120 26 450 0 564 -58
257 -170 467 -336 633 -159 159 -336 257 -570 319 -82 22 -122 26 -281 29
-128 2 -207 -1 -258 -10z m471 -400 c428 -126 680 -551 603 -1014 -58 -344
-264 -622 -549 -740 -400 -167 -840 20 -1051 445 -190 384 -116 865 174 1126
110 99 261 174 407 202 119 22 304 14 416 -19z"/>
<path d="M2320 2234 c-331 -28 -474 -48 -661 -95 -434 -108 -800 -316 -1036
-589 -258 -299 -401 -660 -442 -1120 -24 -259 -11 -339 65 -396 l37 -29 2277
0 2277 0 37 29 c76 57 89 137 65 396 -54 600 -285 1046 -702 1358 -307 230
-707 370 -1217 427 -127 15 -602 27 -700 19z m455 -384 c637 -35 1102 -208
1401 -522 191 -200 332 -519 369 -833 3 -27 8 -65 11 -82 l5 -33 -2001 0
-2001 0 5 33 c3 17 8 55 11 82 37 314 178 633 369 833 292 307 769 488 1373
521 214 12 258 12 458 1z"/>
</g>
</svg>
