<?xml version="1.0" standalone="no"?>
<!DOCTYPE svg PUBLIC "-//W3C//DTD SVG 20010904//EN"
 "http://www.w3.org/TR/2001/REC-SVG-20010904/DTD/svg10.dtd">
<svg version="1.0" xmlns="http://www.w3.org/2000/svg"
 width="512.000000pt" height="512.000000pt" viewBox="0 0 512.000000 512.000000"
 preserveAspectRatio="xMidYMid meet">

<g transform="translate(0.000000,512.000000) scale(0.100000,-0.100000)"
fill="#000000" stroke="none">
<path d="M2142 4910 c-417 -58 -759 -364 -869 -778 -25 -93 -26 -112 -31 -421
l-4 -324 38 30 c43 34 92 53 134 53 27 0 27 1 33 78 14 202 104 307 416 483
153 87 251 148 288 182 13 11 24 19 26 16 2 -2 18 -26 36 -52 49 -72 144 -170
219 -226 177 -130 375 -191 622 -191 l118 0 12 -52 c7 -29 14 -95 17 -145 l6
-93 27 0 c42 0 91 -19 133 -52 l39 -30 -4 388 c-4 367 -6 393 -27 464 -98 329
-366 545 -713 576 -58 5 -85 12 -110 30 -83 61 -243 87 -406 64z"/>
<path d="M1731 3705 c-92 -26 -161 -74 -161 -112 0 -38 26 -38 107 3 71 36 82
39 163 39 81 0 92 -3 162 -38 79 -40 108 -41 108 -1 0 29 -50 68 -122 96 -70
27 -187 32 -257 13z"/>
<path d="M2691 3705 c-92 -26 -161 -74 -161 -112 0 -38 26 -38 107 3 71 36 82
39 163 39 81 0 92 -3 162 -38 79 -40 108 -41 108 -1 0 29 -50 68 -122 96 -70
27 -187 32 -257 13z"/>
<path d="M1795 3471 c-11 -5 -31 -21 -45 -36 -35 -37 -35 -112 -2 -148 54 -57
127 -59 178 -6 24 25 29 39 29 79 0 42 -5 54 -31 81 -33 33 -92 46 -129 30z"/>
<path d="M2755 3471 c-11 -5 -31 -21 -45 -36 -35 -37 -35 -112 -2 -148 54 -57
127 -59 178 -6 24 25 29 39 29 79 0 42 -5 54 -31 81 -33 33 -92 46 -129 30z"/>
<path d="M1240 2993 c1 -164 50 -298 148 -405 99 -107 212 -165 357 -183 l60
-8 -78 73 c-133 124 -225 278 -264 442 -18 76 -19 78 -49 78 -45 0 -94 18
-136 52 l-38 29 0 -78z"/>
<path d="M3362 3040 c-36 -30 -92 -50 -140 -50 -27 0 -30 -4 -36 -37 -31 -174
-130 -349 -273 -483 l-78 -73 60 8 c145 18 258 76 357 183 100 108 152 254
146 407 l-3 73 -33 -28z"/>
<path d="M1937 2230 c-99 -90 -164 -204 -186 -324 -6 -33 -11 -126 -11 -207
l0 -146 -37 -6 c-93 -15 -205 -97 -260 -188 -46 -77 -63 -154 -63 -286 l0
-113 59 0 59 0 4 133 c3 124 5 135 33 186 99 179 333 214 475 71 70 -69 90
-132 90 -275 l0 -115 60 0 60 0 0 113 c0 132 -17 209 -63 286 -55 92 -167 173
-260 188 l-39 6 4 176 c5 203 17 248 94 350 45 60 45 60 42 132 l-3 72 -58
-53z"/>
<path d="M2640 2210 c0 -70 1 -74 44 -131 25 -33 55 -85 68 -117 23 -56 23
-65 26 -472 l3 -415 -41 -23 c-90 -51 -126 -171 -78 -262 53 -98 174 -138 267
-88 25 13 54 36 65 51 l20 27 -22 22 -21 22 -21 -27 c-63 -80 -176 -73 -230
15 -39 64 -16 146 52 188 54 33 113 25 165 -22 l21 -20 17 31 16 31 -45 28
-45 27 -1 390 c0 439 -5 479 -66 596 -38 73 -112 162 -165 200 l-29 20 0 -71z"/>
<path d="M3031 1713 c-26 -119 -21 -329 13 -473 l12 -55 56 110 55 109 -58
174 c-32 96 -60 177 -63 179 -2 2 -9 -18 -15 -44z"/>
<path d="M4253 1584 l-60 -180 55 -110 56 -109 13 55 c21 92 34 296 24 390
-17 157 -21 156 -88 -46z"/>
<path d="M3345 1015 c-50 -49 -15 -135 55 -135 41 0 80 39 80 80 0 41 -39 80
-80 80 -19 0 -40 -9 -55 -25z"/>
<path d="M3905 1015 c-50 -49 -15 -135 55 -135 41 0 80 39 80 80 0 41 -39 80
-80 80 -19 0 -40 -9 -55 -25z"/>
<path d="M3628 773 c-30 -8 -23 -58 11 -82 16 -12 34 -21 41 -21 7 0 25 9 41
21 37 26 41 74 7 83 -26 6 -74 6 -100 -1z"/>
<path d="M1380 698 c-19 -13 -41 -35 -48 -48 -20 -39 -8 -98 27 -134 27 -26
39 -31 81 -31 43 0 54 5 82 33 28 28 33 39 33 82 0 42 -5 54 -31 81 -43 42
-97 49 -144 17z m102 -55 c38 -34 11 -103 -40 -103 -54 0 -81 62 -45 102 20
22 61 23 85 1z"/>
<path d="M2100 698 c-19 -13 -41 -35 -48 -48 -20 -39 -8 -98 27 -134 27 -26
39 -31 81 -31 43 0 54 5 82 33 28 28 33 39 33 82 0 42 -5 54 -31 81 -43 42
-97 49 -144 17z m102 -55 c38 -34 11 -103 -40 -103 -54 0 -81 62 -45 102 20
22 61 23 85 1z"/>
</g>
</svg>
