<?xml version="1.0" standalone="no"?>
<!DOCTYPE svg PUBLIC "-//W3C//DTD SVG 20010904//EN"
 "http://www.w3.org/TR/2001/REC-SVG-20010904/DTD/svg10.dtd">
<svg version="1.0" xmlns="http://www.w3.org/2000/svg"
 width="512.000000pt" height="512.000000pt" viewBox="0 0 512.000000 512.000000"
 preserveAspectRatio="xMidYMid meet">
<metadata>
Created by potrace 1.16, written by Peter Selinger 2001-2019
</metadata>
<g transform="translate(0.000000,512.000000) scale(0.100000,-0.100000)"
fill="#000000" stroke="none">
<path d="M128 4170 c-44 -13 -87 -49 -108 -90 -20 -39 -20 -65 -20 -1521 l0
-1482 25 -43 c14 -23 42 -53 62 -66 l38 -23 2435 0 2435 0 38 23 c20 13 48 43
62 66 l25 43 0 1483 0 1483 -25 43 c-14 23 -42 53 -62 66 l-38 23 -2420 2
c-1331 1 -2432 -2 -2447 -7z m3200 -926 c42 -9 91 -22 108 -29 l32 -13 -30
-138 c-16 -76 -30 -140 -32 -142 -2 -1 -32 6 -66 18 -100 34 -208 46 -287 33
-134 -23 -183 -109 -104 -182 15 -14 85 -57 154 -95 145 -79 220 -141 262
-217 28 -50 30 -61 30 -160 0 -101 -1 -108 -38 -181 -60 -121 -156 -195 -322
-248 -98 -31 -295 -38 -425 -16 -94 16 -188 42 -203 56 -6 5 47 288 56 296 1
1 28 -9 60 -22 95 -40 175 -57 277 -57 150 0 230 47 230 133 0 51 -44 94 -153
151 -266 137 -357 258 -328 439 29 180 168 313 383 370 94 25 287 27 396 4z
m-2371 -15 c34 -13 70 -45 88 -80 8 -15 46 -197 85 -405 39 -209 74 -387 78
-398 6 -13 58 111 187 438 l180 456 184 0 c170 0 183 -1 179 -17 -3 -10 -130
-316 -283 -680 l-278 -663 -187 0 -186 0 -143 553 c-79 303 -149 567 -156 584
-8 20 -32 44 -60 62 -42 26 -207 85 -312 111 -34 9 -40 14 -36 30 5 19 14 20
319 20 197 0 323 -4 341 -11z m1489 -6 c-3 -10 -66 -306 -141 -658 -75 -352
-139 -650 -142 -662 -5 -23 -7 -23 -179 -23 -125 0 -174 3 -174 12 0 13 278
1317 285 1336 3 9 49 12 180 12 163 0 176 -1 171 -17z m2059 -663 l141 -675
-160 -3 c-95 -1 -162 1 -165 7 -4 6 -15 51 -25 100 l-18 91 -227 0 -226 0 -35
-100 -34 -100 -183 0 c-101 0 -183 4 -183 8 0 24 535 1281 553 1301 42 45 70
51 251 48 l170 -2 141 -675z"/>
<path d="M4106 2850 c-11 -28 -176 -484 -176 -487 0 -2 65 -3 145 -3 l145 0
-5 23 c-3 12 -27 126 -54 252 -27 127 -51 223 -55 215z"/>
</g>
</svg>
